<svg width="49" height="48" viewBox="0 0 49 48" fill="none" xmlns="http://www.w3.org/2000/svg">
<path d="M30.0398 11.74C30.499 12.0007 31.0427 12.0693 31.5523 11.9306C32.0619 11.792 32.4959 11.4575 32.7598 11C32.9781 10.6147 33.3181 10.3128 33.7265 10.1416C34.135 9.97033 34.5886 9.9395 35.0164 10.0539C35.4443 10.1683 35.822 10.4214 36.0905 10.7736C36.3589 11.1258 36.5029 11.5572 36.4998 12C36.4998 12.5304 36.2891 13.0391 35.914 13.4142C35.5389 13.7893 35.0302 14 34.4998 14C33.9694 14 33.4606 14.2107 33.0856 14.5858C32.7105 14.9609 32.4998 15.4696 32.4998 16C32.4998 16.5304 32.7105 17.0391 33.0856 17.4142C33.4606 17.7893 33.9694 18 34.4998 18C35.5528 17.9993 36.5872 17.7215 37.4989 17.1945C38.4105 16.6674 39.1674 15.9097 39.6935 14.9975C40.2196 14.0853 40.4964 13.0507 40.4959 11.9976C40.4955 10.9445 40.218 9.91014 39.6911 8.99833C39.1643 8.08653 38.4068 7.32944 37.4947 6.80313C36.5826 6.27682 35.548 5.99983 34.495 6C33.4419 6.00017 32.4075 6.27749 31.4955 6.80409C30.5836 7.33069 29.8263 8.08802 29.2998 9C29.1676 9.22827 29.0818 9.48044 29.0474 9.742C29.013 10.0036 29.0308 10.2693 29.0995 10.524C29.1683 10.7787 29.2868 11.0172 29.4482 11.2259C29.6096 11.4346 29.8106 11.6093 30.0398 11.74ZM38.6398 26C38.1148 25.9319 37.5842 26.0746 37.1643 26.3971C36.7444 26.7195 36.4695 27.1952 36.3998 27.72C35.9801 31.1103 34.3352 34.2302 31.775 36.492C29.2148 38.7538 25.916 40.0015 22.4998 40H11.3198L12.6198 38.7C12.9923 38.3253 13.2014 37.8184 13.2014 37.29C13.2014 36.7616 12.9923 36.2547 12.6198 35.88C10.6697 33.9222 9.34256 31.4311 8.80558 28.7205C8.26859 26.0099 8.54577 23.201 9.60219 20.6477C10.6586 18.0943 12.447 15.9106 14.7422 14.3718C17.0373 12.8329 19.7365 12.0077 22.4998 12C23.0302 12 23.5389 11.7893 23.914 11.4142C24.2891 11.0391 24.4998 10.5304 24.4998 10C24.4998 9.46957 24.2891 8.96086 23.914 8.58579C23.5389 8.21071 23.0302 8 22.4998 8C19.1183 8.0141 15.8091 8.98047 12.9514 10.7884C10.0937 12.5963 7.80306 15.1726 6.34192 18.2222C4.88078 21.2718 4.30824 24.6714 4.68988 28.0313C5.07153 31.3913 6.39192 34.5758 8.49979 37.22L5.07979 40.58C4.80228 40.8612 4.61428 41.2184 4.53953 41.6064C4.46479 41.9944 4.50663 42.3958 4.65979 42.76C4.80983 43.1252 5.06463 43.4379 5.39207 43.6586C5.71951 43.8792 6.10494 43.998 6.49979 44H22.4998C26.8827 44.0006 31.1152 42.402 34.4034 39.5041C37.6916 36.6063 39.8095 32.6082 40.3598 28.26C40.3964 27.9985 40.3808 27.7324 40.314 27.4769C40.2472 27.2215 40.1305 26.9818 39.9706 26.7717C39.8107 26.5616 39.6108 26.3852 39.3824 26.2528C39.1539 26.1203 38.9016 26.0344 38.6398 26V26ZM35.2598 20.14C34.8957 19.9789 34.4918 19.9302 34.0998 20L33.7398 20.12L33.3798 20.3L33.0798 20.56C32.8999 20.7443 32.7573 20.9616 32.6598 21.2C32.5415 21.4495 32.4866 21.7242 32.4998 22C32.494 22.2667 32.5416 22.5319 32.6398 22.78C32.7432 23.02 32.8927 23.2375 33.0798 23.42C33.2667 23.6054 33.4883 23.752 33.732 23.8515C33.9757 23.9511 34.2366 24.0015 34.4998 24C35.0302 24 35.5389 23.7893 35.914 23.4142C36.2891 23.0391 36.4998 22.5304 36.4998 22C36.5066 21.7376 36.4518 21.4774 36.3398 21.24C36.1249 20.7594 35.7404 20.3749 35.2598 20.16V20.14Z" fill="#1963CC"/>
</svg>
