<svg width="41" height="40" viewBox="0 0 41 40" fill="none" xmlns="http://www.w3.org/2000/svg">
<path d="M35.7002 17.8499L21.6835 3.81661C21.5278 3.66214 21.3431 3.53994 21.14 3.45699C20.937 3.37405 20.7195 3.33201 20.5002 3.33328L5.50019 3.33328C5.05816 3.33328 4.63424 3.50887 4.32168 3.82144C4.00912 4.134 3.83352 4.55792 3.83352 4.99995L3.83352 19.9999C3.83226 20.2193 3.8743 20.4367 3.95724 20.6398C4.04018 20.8429 4.16239 21.0275 4.31686 21.1833L18.3502 35.2C19.2877 36.1363 20.5585 36.6622 21.8835 36.6622C23.2085 36.6622 24.4794 36.1363 25.4169 35.2L35.7002 24.9999C36.6365 24.0624 37.1625 22.7916 37.1625 21.4666C37.1625 20.1416 36.6365 18.8708 35.7002 17.9333V17.8499ZM33.3502 22.5499L23.0502 32.8333C22.7379 33.1437 22.3155 33.3179 21.8752 33.3179C21.4349 33.3179 21.0125 33.1437 20.7002 32.8333L7.16686 19.3166V6.66661H19.8169L33.3502 20.1999C33.5047 20.3557 33.6269 20.5404 33.7098 20.7434C33.7928 20.9465 33.8348 21.1639 33.8335 21.3833C33.8317 21.8205 33.6581 22.2395 33.3502 22.5499Z" fill="#E1381D"/>
</svg>
