<svg width="49" height="48" viewBox="0 0 49 48" fill="none" xmlns="http://www.w3.org/2000/svg">
<path d="M24.5 38C24.8956 38 25.2822 37.8827 25.6111 37.6629C25.94 37.4432 26.1964 37.1308 26.3478 36.7654C26.4991 36.3999 26.5387 35.9978 26.4616 35.6098C26.3844 35.2219 26.1939 34.8655 25.9142 34.5858C25.6345 34.3061 25.2781 34.1156 24.8902 34.0384C24.5022 33.9613 24.1001 34.0009 23.7346 34.1522C23.3692 34.3036 23.0568 34.56 22.8371 34.8889C22.6173 35.2178 22.5 35.6044 22.5 36C22.5 36.5304 22.7107 37.0391 23.0858 37.4142C23.4609 37.7893 23.9696 38 24.5 38ZM34.5 38C34.8956 38 35.2822 37.8827 35.6111 37.6629C35.94 37.4432 36.1964 37.1308 36.3478 36.7654C36.4991 36.3999 36.5387 35.9978 36.4616 35.6098C36.3844 35.2219 36.1939 34.8655 35.9142 34.5858C35.6345 34.3061 35.2781 34.1156 34.8902 34.0384C34.5022 33.9613 34.1001 34.0009 33.7346 34.1522C33.3692 34.3036 33.0568 34.56 32.8371 34.8889C32.6173 35.2178 32.5 35.6044 32.5 36C32.5 36.5304 32.7107 37.0391 33.0858 37.4142C33.4609 37.7893 33.9696 38 34.5 38ZM34.5 30C34.8956 30 35.2822 29.8827 35.6111 29.6629C35.94 29.4432 36.1964 29.1308 36.3478 28.7654C36.4991 28.3999 36.5387 27.9978 36.4616 27.6098C36.3844 27.2219 36.1939 26.8655 35.9142 26.5858C35.6345 26.3061 35.2781 26.1156 34.8902 26.0384C34.5022 25.9613 34.1001 26.0009 33.7346 26.1522C33.3692 26.3036 33.0568 26.56 32.8371 26.8889C32.6173 27.2178 32.5 27.6044 32.5 28C32.5 28.5304 32.7107 29.0391 33.0858 29.4142C33.4609 29.7893 33.9696 30 34.5 30ZM24.5 30C24.8956 30 25.2822 29.8827 25.6111 29.6629C25.94 29.4432 26.1964 29.1308 26.3478 28.7654C26.4991 28.3999 26.5387 27.9978 26.4616 27.6098C26.3844 27.2219 26.1939 26.8655 25.9142 26.5858C25.6345 26.3061 25.2781 26.1156 24.8902 26.0384C24.5022 25.9613 24.1001 26.0009 23.7346 26.1522C23.3692 26.3036 23.0568 26.56 22.8371 26.8889C22.6173 27.2178 22.5 27.6044 22.5 28C22.5 28.5304 22.7107 29.0391 23.0858 29.4142C23.4609 29.7893 23.9696 30 24.5 30ZM38.5 6H36.5V4C36.5 3.46957 36.2893 2.96086 35.9142 2.58579C35.5391 2.21071 35.0304 2 34.5 2C33.9696 2 33.4609 2.21071 33.0858 2.58579C32.7107 2.96086 32.5 3.46957 32.5 4V6L16.5 6V4C16.5 3.46957 16.2893 2.96086 15.9142 2.58579C15.5391 2.21071 15.0304 2 14.5 2C13.9696 2 13.4609 2.21071 13.0858 2.58579C12.7107 2.96086 12.5 3.46957 12.5 4V6H10.5C8.9087 6 7.38258 6.63214 6.25736 7.75736C5.13214 8.88258 4.5 10.4087 4.5 12L4.5 40C4.5 41.5913 5.13214 43.1174 6.25736 44.2426C7.38258 45.3679 8.9087 46 10.5 46H38.5C40.0913 46 41.6174 45.3679 42.7426 44.2426C43.8679 43.1174 44.5 41.5913 44.5 40V12C44.5 10.4087 43.8679 8.88258 42.7426 7.75736C41.6174 6.63214 40.0913 6 38.5 6ZM40.5 40C40.5 40.5304 40.2893 41.0391 39.9142 41.4142C39.5391 41.7893 39.0304 42 38.5 42H10.5C9.96957 42 9.46086 41.7893 9.08579 41.4142C8.71071 41.0391 8.5 40.5304 8.5 40V22H40.5V40ZM40.5 18H8.5V12C8.5 11.4696 8.71071 10.9609 9.08579 10.5858C9.46086 10.2107 9.96957 10 10.5 10H12.5V12C12.5 12.5304 12.7107 13.0391 13.0858 13.4142C13.4609 13.7893 13.9696 14 14.5 14C15.0304 14 15.5391 13.7893 15.9142 13.4142C16.2893 13.0391 16.5 12.5304 16.5 12V10H32.5V12C32.5 12.5304 32.7107 13.0391 33.0858 13.4142C33.4609 13.7893 33.9696 14 34.5 14C35.0304 14 35.5391 13.7893 35.9142 13.4142C36.2893 13.0391 36.5 12.5304 36.5 12V10H38.5C39.0304 10 39.5391 10.2107 39.9142 10.5858C40.2893 10.9609 40.5 11.4696 40.5 12V18ZM14.5 30C14.8956 30 15.2822 29.8827 15.6111 29.6629C15.94 29.4432 16.1964 29.1308 16.3478 28.7654C16.4991 28.3999 16.5387 27.9978 16.4616 27.6098C16.3844 27.2219 16.1939 26.8655 15.9142 26.5858C15.6345 26.3061 15.2781 26.1156 14.8902 26.0384C14.5022 25.9613 14.1001 26.0009 13.7346 26.1522C13.3692 26.3036 13.0568 26.56 12.8371 26.8889C12.6173 27.2178 12.5 27.6044 12.5 28C12.5 28.5304 12.7107 29.0391 13.0858 29.4142C13.4609 29.7893 13.9696 30 14.5 30ZM14.5 38C14.8956 38 15.2822 37.8827 15.6111 37.6629C15.94 37.4432 16.1964 37.1308 16.3478 36.7654C16.4991 36.3999 16.5387 35.9978 16.4616 35.6098C16.3844 35.2219 16.1939 34.8655 15.9142 34.5858C15.6345 34.3061 15.2781 34.1156 14.8902 34.0384C14.5022 33.9613 14.1001 34.0009 13.7346 34.1522C13.3692 34.3036 13.0568 34.56 12.8371 34.8889C12.6173 35.2178 12.5 35.6044 12.5 36C12.5 36.5304 12.7107 37.0391 13.0858 37.4142C13.4609 37.7893 13.9696 38 14.5 38Z" fill="#1963CC"/>
</svg>
