<svg width="49" height="48" viewBox="0 0 49 48" fill="none" xmlns="http://www.w3.org/2000/svg">
<path d="M42.74 21.42L25.92 4.58003C25.7332 4.39467 25.5115 4.24802 25.2678 4.14849C25.0242 4.04896 24.7632 3.99851 24.5 4.00003L6.50003 4.00003C5.9696 4.00003 5.46089 4.21075 5.08582 4.58582C4.71075 4.96089 4.50003 5.4696 4.50003 6.00003L4.50003 24C4.49851 24.2632 4.54896 24.5242 4.64849 24.7678C4.74802 25.0115 4.89467 25.2332 5.08003 25.42L21.92 42.24C23.045 43.3636 24.57 43.9948 26.16 43.9948C27.75 43.9948 29.275 43.3636 30.4 42.24L42.74 30C43.8636 28.875 44.4948 27.35 44.4948 25.76C44.4948 24.17 43.8636 22.645 42.74 21.52V21.42ZM39.92 27.06L27.56 39.4C27.1853 39.7725 26.6784 39.9816 26.15 39.9816C25.6217 39.9816 25.1148 39.7725 24.74 39.4L8.50003 23.18V8.00003H23.68L39.92 24.24C40.1054 24.4269 40.252 24.6485 40.3516 24.8922C40.4511 25.1359 40.5016 25.3968 40.5 25.66C40.4978 26.1847 40.2895 26.6875 39.92 27.06Z" fill="#1963CC"/>
</svg>
