<svg width="41" height="40" viewBox="0 0 41 40" fill="none" xmlns="http://www.w3.org/2000/svg">
<path d="M33.6835 25.85H26.1335C25.6915 25.85 25.2675 26.0256 24.955 26.3382C24.6424 26.6508 24.4668 27.0747 24.4668 27.5167C24.4668 27.9587 24.6424 28.3827 24.955 28.6952C25.2675 29.0078 25.6915 29.1834 26.1335 29.1834H30.1335C28.2951 31.1046 25.9242 32.4322 23.3254 32.9957C20.7267 33.5592 18.0188 33.3327 15.5498 32.3455C13.0807 31.3582 10.9633 29.6552 9.46948 27.4553C7.97568 25.2554 7.17379 22.6592 7.16683 20C7.16683 19.558 6.99123 19.1341 6.67867 18.8215C6.36611 18.509 5.94219 18.3334 5.50016 18.3334C5.05814 18.3334 4.63421 18.509 4.32165 18.8215C4.00909 19.1341 3.8335 19.558 3.8335 20C3.84231 23.2547 4.80386 26.4356 6.5995 29.1501C8.39514 31.8646 10.9463 33.994 13.9381 35.2754C16.9299 36.5569 20.2314 36.9343 23.4352 36.3611C26.639 35.7879 29.6049 34.2893 31.9668 32.05V35C31.9668 35.4421 32.1424 35.866 32.455 36.1786C32.7675 36.4911 33.1915 36.6667 33.6335 36.6667C34.0755 36.6667 34.4994 36.4911 34.812 36.1786C35.1246 35.866 35.3002 35.4421 35.3002 35V27.5C35.296 27.0694 35.1254 26.6571 34.824 26.3495C34.5227 26.0419 34.1139 25.8629 33.6835 25.85ZM25.5002 20C25.5002 19.0111 25.2069 18.0444 24.6575 17.2222C24.1081 16.3999 23.3272 15.7591 22.4136 15.3806C21.5 15.0022 20.4946 14.9032 19.5247 15.0961C18.5548 15.289 17.6639 15.7652 16.9646 16.4645C16.2654 17.1638 15.7892 18.0547 15.5962 19.0246C15.4033 19.9945 15.5023 20.9998 15.8808 21.9135C16.2592 22.8271 16.9001 23.608 17.7223 24.1574C18.5446 24.7068 19.5113 25 20.5002 25C21.8262 25 23.098 24.4733 24.0357 23.5356C24.9734 22.5979 25.5002 21.3261 25.5002 20ZM18.8335 20C18.8335 19.6704 18.9312 19.3482 19.1144 19.0741C19.2975 18.8 19.5578 18.5864 19.8624 18.4602C20.1669 18.3341 20.502 18.3011 20.8253 18.3654C21.1486 18.4297 21.4456 18.5884 21.6787 18.8215C21.9118 19.0546 22.0705 19.3516 22.1348 19.6749C22.1991 19.9982 22.1661 20.3333 22.04 20.6378C21.9138 20.9424 21.7002 21.2027 21.4261 21.3858C21.152 21.569 20.8298 21.6667 20.5002 21.6667C20.0581 21.6667 19.6342 21.4911 19.3217 21.1786C19.0091 20.866 18.8335 20.4421 18.8335 20ZM20.5002 3.33337C16.2275 3.34556 12.1226 4.99823 9.0335 7.95004V5.00004C9.0335 4.55801 8.8579 4.13409 8.54534 3.82153C8.23278 3.50897 7.80886 3.33337 7.36683 3.33337C6.9248 3.33337 6.50088 3.50897 6.18832 3.82153C5.87576 4.13409 5.70016 4.55801 5.70016 5.00004V12.5C5.70016 12.9421 5.87576 13.366 6.18832 13.6786C6.50088 13.9911 6.9248 14.1667 7.36683 14.1667H14.8668C15.3089 14.1667 15.7328 13.9911 16.0453 13.6786C16.3579 13.366 16.5335 12.9421 16.5335 12.5C16.5335 12.058 16.3579 11.6341 16.0453 11.3215C15.7328 11.009 15.3089 10.8334 14.8668 10.8334H10.8668C12.7043 8.91316 15.0736 7.58587 17.6708 7.02189C20.268 6.4579 22.9745 6.68295 25.4428 7.66815C27.9112 8.65334 30.0288 10.3537 31.5239 12.551C33.0189 14.7484 33.8232 17.3424 33.8335 20C33.8335 20.4421 34.0091 20.866 34.3217 21.1786C34.6342 21.4911 35.0581 21.6667 35.5002 21.6667C35.9422 21.6667 36.3661 21.4911 36.6787 21.1786C36.9912 20.866 37.1668 20.4421 37.1668 20C37.1668 17.8113 36.7357 15.6441 35.8982 13.622C35.0606 11.5999 33.8329 9.76257 32.2853 8.21493C30.7376 6.66728 28.9003 5.43963 26.8782 4.60205C24.8561 3.76447 22.6889 3.33337 20.5002 3.33337V3.33337Z" fill="#813EE4"/>
</svg>
