<svg width="41" height="40" viewBox="0 0 41 40" fill="none" xmlns="http://www.w3.org/2000/svg">
<path d="M30.4998 8.33329H32.1665V9.99996C32.1665 10.442 32.3421 10.8659 32.6547 11.1785C32.9672 11.491 33.3912 11.6666 33.8332 11.6666C34.2752 11.6666 34.6991 11.491 35.0117 11.1785C35.3243 10.8659 35.4998 10.442 35.4998 9.99996V8.33329H37.1665C37.6085 8.33329 38.0325 8.15769 38.345 7.84513C38.6576 7.53257 38.8332 7.10865 38.8332 6.66662C38.8332 6.2246 38.6576 5.80067 38.345 5.48811C38.0325 5.17555 37.6085 4.99996 37.1665 4.99996H35.4998V3.33329C35.4998 2.89126 35.3243 2.46734 35.0117 2.15478C34.6991 1.84222 34.2752 1.66662 33.8332 1.66662C33.3912 1.66662 32.9672 1.84222 32.6547 2.15478C32.3421 2.46734 32.1665 2.89126 32.1665 3.33329V4.99996H30.4998C30.0578 4.99996 29.6339 5.17555 29.3213 5.48811C29.0088 5.80067 28.8332 6.2246 28.8332 6.66662C28.8332 7.10865 29.0088 7.53257 29.3213 7.84513C29.6339 8.15769 30.0578 8.33329 30.4998 8.33329ZM18.8332 15V25C18.8332 26.326 19.36 27.5978 20.2976 28.5355C21.2353 29.4732 22.5071 30 23.8332 30H25.4998C26.8259 30 28.0977 29.4732 29.0354 28.5355C29.9731 27.5978 30.4998 26.326 30.4998 25V15C30.4998 13.6739 29.9731 12.4021 29.0354 11.4644C28.0977 10.5267 26.8259 9.99996 25.4998 9.99996H23.8332C22.5071 9.99996 21.2353 10.5267 20.2976 11.4644C19.36 12.4021 18.8332 13.6739 18.8332 15V15ZM27.1665 15V25C27.1665 25.442 26.9909 25.8659 26.6784 26.1785C26.3658 26.491 25.9419 26.6666 25.4998 26.6666H23.8332C23.3912 26.6666 22.9672 26.491 22.6547 26.1785C22.3421 25.8659 22.1665 25.442 22.1665 25V15C22.1665 14.5579 22.3421 14.134 22.6547 13.8214C22.9672 13.5089 23.3912 13.3333 23.8332 13.3333H25.4998C25.9419 13.3333 26.3658 13.5089 26.6784 13.8214C26.9909 14.134 27.1665 14.5579 27.1665 15ZM36.4998 15C36.2853 15.0437 36.0815 15.1293 35.9001 15.2518C35.7187 15.3743 35.5631 15.5313 35.4424 15.714C35.3217 15.8966 35.2381 16.1012 35.1965 16.3162C35.1549 16.5311 35.156 16.7521 35.1998 16.9666C35.8506 20.127 35.4649 23.4129 34.1 26.3367C32.7352 29.2604 30.4639 31.6662 27.6234 33.1967C24.7829 34.7273 21.5245 35.3012 18.332 34.8331C15.1395 34.365 12.183 32.8799 9.90146 30.5983C7.61987 28.3168 6.13482 25.3603 5.66673 22.1678C5.19865 18.9753 5.77249 15.7169 7.30306 12.8764C8.83364 10.0359 11.2394 7.76462 14.1631 6.39976C17.0869 5.03491 20.3728 4.64922 23.5332 5.29996C23.9752 5.38836 24.4342 5.29755 24.8093 5.0475C25.1844 4.79746 25.4448 4.40865 25.5332 3.96662C25.6216 3.5246 25.5308 3.06555 25.2807 2.69048C25.0307 2.31541 24.6419 2.05503 24.1998 1.96662C22.9801 1.73937 21.7402 1.63884 20.4998 1.66662C16.8739 1.66662 13.3293 2.74185 10.3144 4.75635C7.29949 6.77084 4.94966 9.63411 3.56205 12.9841C2.17445 16.3341 1.81139 20.0203 2.51878 23.5766C3.22618 27.1329 4.97226 30.3996 7.53622 32.9636C10.1002 35.5275 13.3669 37.2736 16.9232 37.981C20.4795 38.6884 24.1657 38.3254 27.5157 36.9377C30.8657 35.5501 33.729 33.2003 35.7435 30.1854C37.758 27.1705 38.8332 23.6259 38.8332 20C38.8367 18.7684 38.7139 17.5398 38.4665 16.3333C38.4266 16.1158 38.3438 15.9084 38.2229 15.7232C38.102 15.538 37.9455 15.3787 37.7625 15.2546C37.5795 15.1305 37.3735 15.0441 37.1568 15.0004C36.94 14.9567 36.7167 14.9565 36.4998 15ZM12.1665 11.6666V28.3333C12.1665 28.7753 12.3421 29.1992 12.6547 29.5118C12.9672 29.8244 13.3912 30 13.8332 30C14.2752 30 14.6991 29.8244 15.0117 29.5118C15.3243 29.1992 15.4998 28.7753 15.4998 28.3333V11.6666C15.4998 11.2246 15.3243 10.8007 15.0117 10.4881C14.6991 10.1756 14.2752 9.99996 13.8332 9.99996C13.3912 9.99996 12.9672 10.1756 12.6547 10.4881C12.3421 10.8007 12.1665 11.2246 12.1665 11.6666Z" fill="#F5D255"/>
</svg>
