<svg width="48" height="48" viewBox="0 0 48 48" fill="none" xmlns="http://www.w3.org/2000/svg">
<path d="M14.84 31.08C14.4675 31.4548 14.2584 31.9617 14.2584 32.49C14.2584 33.0184 14.4675 33.5253 14.84 33.9C15.0259 34.0875 15.2471 34.2363 15.4908 34.3378C15.7345 34.4394 15.996 34.4916 16.26 34.4916C16.524 34.4916 16.7854 34.4394 17.0291 34.3378C17.2729 34.2363 17.4941 34.0875 17.68 33.9C18.0525 33.5253 18.2616 33.0184 18.2616 32.49C18.2616 31.9617 18.0525 31.4548 17.68 31.08C17.4941 30.8926 17.2729 30.7438 17.0291 30.6423C16.7854 30.5407 16.524 30.4884 16.26 30.4884C15.996 30.4884 15.7345 30.5407 15.4908 30.6423C15.2471 30.7438 15.0259 30.8926 14.84 31.08ZM14.84 14.1C14.4675 14.4748 14.2584 14.9817 14.2584 15.51C14.2584 16.0384 14.4675 16.5453 14.84 16.92C15.0259 17.1075 15.2471 17.2563 15.4908 17.3578C15.7345 17.4594 15.996 17.5116 16.26 17.5116C16.524 17.5116 16.7854 17.4594 17.0291 17.3578C17.2729 17.2563 17.4941 17.1075 17.68 16.92C18.0525 16.5453 18.2616 16.0384 18.2616 15.51C18.2616 14.9817 18.0525 14.4748 17.68 14.1C17.4941 13.9126 17.2729 13.7638 17.0291 13.6623C16.7854 13.5607 16.524 13.5084 16.26 13.5084C15.996 13.5084 15.7345 13.5607 15.4908 13.6623C15.2471 13.7638 15.0259 13.9126 14.84 14.1ZM24.74 34.1C24.3444 34.1 23.9577 34.2173 23.6288 34.4371C23.2999 34.6569 23.0436 34.9692 22.8922 35.3347C22.7408 35.7001 22.7012 36.1023 22.7784 36.4902C22.8556 36.8782 23.0461 37.2345 23.3258 37.5142C23.6055 37.794 23.9618 37.9844 24.3498 38.0616C24.7378 38.1388 25.1399 38.0992 25.5053 37.9478C25.8708 37.7964 26.1832 37.5401 26.4029 37.2112C26.6227 36.8823 26.74 36.4956 26.74 36.1C26.7535 35.8291 26.7118 35.5582 26.6174 35.3039C26.523 35.0496 26.3778 34.8172 26.1908 34.6207C26.0037 34.4243 25.7786 34.268 25.5292 34.1613C25.2798 34.0545 25.0113 33.9997 24.74 34V34.1ZM12.74 22.1C12.3444 22.1 11.9577 22.2173 11.6288 22.4371C11.2999 22.6569 11.0436 22.9692 10.8922 23.3347C10.7408 23.7001 10.7012 24.1023 10.7784 24.4902C10.8556 24.8782 11.0461 25.2345 11.3258 25.5142C11.6055 25.794 11.9618 25.9844 12.3498 26.0616C12.7378 26.1388 13.1399 26.0992 13.5053 25.9478C13.8708 25.7964 14.1832 25.5401 14.4029 25.2112C14.6227 24.8823 14.74 24.4956 14.74 24.1C14.7535 23.8291 14.7118 23.5582 14.6174 23.3039C14.523 23.0496 14.3778 22.8172 14.1908 22.6207C14.0037 22.4243 13.7786 22.268 13.5292 22.1612C13.2798 22.0545 13.0113 21.9997 12.74 22V22.1ZM24.74 10.1C24.3444 10.1 23.9577 10.2173 23.6288 10.4371C23.2999 10.6569 23.0436 10.9692 22.8922 11.3347C22.7408 11.7001 22.7012 12.1023 22.7784 12.4902C22.8556 12.8782 23.0461 13.2345 23.3258 13.5142C23.6055 13.794 23.9618 13.9844 24.3498 14.0616C24.7378 14.1388 25.1399 14.0992 25.5053 13.9478C25.8708 13.7964 26.1832 13.5401 26.4029 13.2112C26.6227 12.8823 26.74 12.4956 26.74 12.1C26.7535 11.8291 26.7118 11.5582 26.6174 11.3039C26.523 11.0496 26.3778 10.8172 26.1908 10.6207C26.0037 10.4243 25.7786 10.268 25.5292 10.1612C25.2798 10.0545 25.0113 9.99969 24.74 10V10.1ZM31.82 14.2C31.5391 14.4793 31.3474 14.8356 31.2693 15.2239C31.1911 15.6122 31.2301 16.0149 31.3811 16.3811C31.5321 16.7472 31.7884 17.0603 32.1176 17.2806C32.4468 17.5008 32.8339 17.6184 33.23 17.6184C33.626 17.6184 34.0132 17.5008 34.3424 17.2806C34.6715 17.0603 34.9279 16.7472 35.0789 16.3811C35.2299 16.0149 35.2688 15.6122 35.1907 15.2239C35.1125 14.8356 34.9209 14.4793 34.64 14.2C34.2786 13.8139 33.7791 13.5867 33.2506 13.5679C32.7221 13.5492 32.2078 13.7405 31.82 14.1V14.2ZM44.42 14.2C42.5915 10.5446 39.7808 7.47087 36.3032 5.32343C32.8255 3.176 28.8184 2.0398 24.7312 2.04224C20.644 2.04468 16.6382 3.18567 13.1631 5.33726C9.68808 7.48885 6.88109 10.566 5.05694 14.2236C3.23279 17.8811 2.46362 21.9746 2.83567 26.0448C3.20772 30.1151 4.70628 34.0012 7.16331 37.2675C9.62035 40.5338 12.9387 43.051 16.7463 44.5369C20.5538 46.0228 24.7 46.4186 28.72 45.68C29.7309 45.4898 30.6937 45.1 31.5522 44.5334C32.4107 43.9668 33.1477 43.2347 33.72 42.38C34.3367 41.4508 34.7622 40.4081 34.9716 39.3127C35.1811 38.2173 35.1703 37.0912 34.94 36C34.814 35.3406 34.7471 34.6713 34.74 34C34.7487 32.062 35.3205 30.1682 36.3857 28.5491C37.4509 26.9299 38.9637 25.6553 40.74 24.88C41.6977 24.4512 42.5574 23.8307 43.266 23.0567C43.9746 22.2828 44.5171 21.3718 44.86 20.38C45.2068 19.3666 45.3465 18.2939 45.2709 17.2254C45.1954 16.1569 44.906 15.1146 44.42 14.16V14.2ZM41.02 19.08C40.8493 19.5587 40.5844 19.9982 40.2408 20.3727C39.8973 20.7471 39.4822 21.0488 39.02 21.26C36.5599 22.3612 34.4701 24.1491 33.0013 26.409C31.5325 28.6689 30.7473 31.3048 30.74 34C30.7429 34.9402 30.8367 35.8779 31.02 36.8C31.1421 37.3636 31.1502 37.946 31.0437 38.5127C30.9372 39.0795 30.7183 39.6192 30.4 40.1C30.1306 40.5208 29.7761 40.8806 29.3593 41.1562C28.9425 41.4317 28.4727 41.617 27.98 41.7C26.9117 41.9008 25.827 42.0012 24.74 42C22.3283 42.0012 19.941 41.5177 17.7198 40.5783C15.4986 39.6389 13.4889 38.2628 11.8099 36.5315C10.1309 34.8003 8.81694 32.7493 7.94601 30.5004C7.07508 28.2515 6.66495 25.8505 6.73998 23.44C6.8952 18.9456 8.71799 14.6699 11.8532 11.446C14.9885 8.22197 19.2116 6.2806 23.7 6.00003H24.72C28.0715 6.00087 31.3562 6.93741 34.2042 8.70416C37.0522 10.4709 39.3504 12.9977 40.84 16C41.2985 16.95 41.3632 18.0426 41.02 19.04V19.08ZM24.74 22C24.3444 22 23.9577 22.1173 23.6288 22.3371C23.2999 22.5569 23.0436 22.8692 22.8922 23.2347C22.7408 23.6001 22.7012 24.0023 22.7784 24.3902C22.8556 24.7782 23.0461 25.1345 23.3258 25.4142C23.6055 25.694 23.9618 25.8844 24.3498 25.9616C24.7378 26.0388 25.1399 25.9992 25.5053 25.8478C25.8708 25.6964 26.1832 25.4401 26.4029 25.1112C26.6227 24.7823 26.74 24.3956 26.74 24C26.74 23.4696 26.5293 22.9609 26.1542 22.5858C25.7791 22.2107 25.2704 22 24.74 22Z" fill="#2E3747"/>
</svg>
