<svg width="88" height="88" viewBox="0 0 88 88" fill="none" xmlns="http://www.w3.org/2000/svg">
<path d="M17.5634 38.5001H10.23C9.25756 38.5001 8.32493 38.8864 7.6373 39.574C6.94966 40.2617 6.56335 41.1943 6.56335 42.1668C6.56335 43.1392 6.94966 44.0719 7.6373 44.7595C8.32493 45.4471 9.25756 45.8334 10.23 45.8334H17.5634C18.5358 45.8334 19.4684 45.4471 20.1561 44.7595C20.8437 44.0719 21.23 43.1392 21.23 42.1668C21.23 41.1943 20.8437 40.2617 20.1561 39.574C19.4684 38.8864 18.5358 38.5001 17.5634 38.5001ZM79.09 28.0868V27.8668C78.0395 26.5827 76.7121 25.5528 75.2072 24.8544C73.7023 24.1559 72.0589 23.8069 70.4 23.8334H41.3234C38.6291 23.8092 36.0197 24.7747 33.99 26.5468C32.0944 28.2171 30.848 30.502 30.47 33.0001L27.2434 51.3334C26.9659 52.9167 27.0388 54.5415 27.4569 56.0935C27.875 57.6456 28.6281 59.0872 29.6634 60.3168C30.6932 61.5423 31.9781 62.5283 33.4283 63.2059C34.8786 63.8836 36.4593 64.2365 38.06 64.2401H67.1734C69.7886 64.2796 72.3323 63.386 74.3483 61.7195C76.3642 60.053 77.7203 57.7228 78.1734 55.1468L81.4 36.8134C81.6542 35.2782 81.5797 33.7065 81.1815 32.2022C80.7833 30.6979 80.0704 29.2952 79.09 28.0868ZM69.0434 31.1668L56.5767 41.2868C55.8396 41.8808 54.9013 42.1668 53.9582 42.0848C53.015 42.0028 52.1402 41.5591 51.5167 40.8468L42.9734 31.1668H69.0434ZM70.8034 53.7901C70.6549 54.651 70.204 55.4306 69.5318 55.9886C68.8596 56.5465 68.0102 56.8461 67.1367 56.8334H38.06C37.5275 56.829 37.0024 56.7086 36.5212 56.4806C36.0399 56.2527 35.6141 55.9226 35.2734 55.5134C34.9317 55.1064 34.6826 54.63 34.5433 54.1172C34.404 53.6043 34.3779 53.0674 34.4667 52.5434L37.4 35.9334L46.0167 45.6868C47.8922 47.8185 50.5194 49.1424 53.3486 49.3815C56.1778 49.6207 58.9899 48.7567 61.1967 46.9701L73.81 36.6668L70.8034 53.7901ZM21.23 23.8334H10.23C9.25756 23.8334 8.32493 24.2198 7.6373 24.9074C6.94966 25.595 6.56335 26.5276 6.56335 27.5001C6.56335 28.4726 6.94966 29.4052 7.6373 30.0928C8.32493 30.7805 9.25756 31.1668 10.23 31.1668H21.23C22.2025 31.1668 23.1351 30.7805 23.8227 30.0928C24.5104 29.4052 24.8967 28.4726 24.8967 27.5001C24.8967 26.5276 24.5104 25.595 23.8227 24.9074C23.1351 24.2198 22.2025 23.8334 21.23 23.8334Z" fill="#2E3747"/>
</svg>
