<svg width="64" height="64" viewBox="0 0 64 64" fill="none" xmlns="http://www.w3.org/2000/svg">
<path d="M32 34.6666C31.1881 34.6571 30.3928 34.8966 29.7212 35.3527C29.0495 35.8089 28.5337 36.4599 28.2432 37.2181C27.9527 37.9763 27.9015 38.8052 28.0964 39.5934C28.2913 40.3816 28.723 41.0912 29.3333 41.6266V45.3333C29.3333 46.0405 29.6143 46.7188 30.1144 47.2189C30.6145 47.719 31.2928 47.9999 32 47.9999C32.7072 47.9999 33.3855 47.719 33.8856 47.2189C34.3857 46.7188 34.6667 46.0405 34.6667 45.3333V41.6266C35.277 41.0912 35.7087 40.3816 35.9036 39.5934C36.0985 38.8052 36.0473 37.9763 35.7568 37.2181C35.4663 36.4599 34.9505 35.8089 34.2788 35.3527C33.6072 34.8966 32.8119 34.6571 32 34.6666V34.6666ZM45.3333 23.9999V18.6666C45.3333 15.1304 43.9286 11.739 41.4281 9.23849C38.9276 6.73801 35.5362 5.33325 32 5.33325C28.4638 5.33325 25.0724 6.73801 22.5719 9.23849C20.0714 11.739 18.6667 15.1304 18.6667 18.6666V23.9999C16.5449 23.9999 14.5101 24.8428 13.0098 26.3431C11.5095 27.8434 10.6667 29.8782 10.6667 31.9999L10.6667 50.6666C10.6667 52.7883 11.5095 54.8232 13.0098 56.3234C14.5101 57.8237 16.5449 58.6666 18.6667 58.6666H45.3333C47.4551 58.6666 49.4899 57.8237 50.9902 56.3234C52.4905 54.8232 53.3333 52.7883 53.3333 50.6666V31.9999C53.3333 29.8782 52.4905 27.8434 50.9902 26.3431C49.4899 24.8428 47.4551 23.9999 45.3333 23.9999ZM24 18.6666C24 16.5449 24.8429 14.51 26.3431 13.0097C27.8434 11.5094 29.8783 10.6666 32 10.6666C34.1217 10.6666 36.1566 11.5094 37.6569 13.0097C39.1571 14.51 40 16.5449 40 18.6666V23.9999H24V18.6666ZM48 50.6666C48 51.3738 47.7191 52.0521 47.219 52.5522C46.7189 53.0523 46.0406 53.3333 45.3333 53.3333H18.6667C17.9594 53.3333 17.2812 53.0523 16.7811 52.5522C16.281 52.0521 16 51.3738 16 50.6666V31.9999C16 31.2927 16.281 30.6144 16.7811 30.1143C17.2812 29.6142 17.9594 29.3333 18.6667 29.3333H45.3333C46.0406 29.3333 46.7189 29.6142 47.219 30.1143C47.7191 30.6144 48 31.2927 48 31.9999V50.6666Z" fill="#2E3747"/>
</svg>
