<svg width="32" height="32" viewBox="0 0 32 32" fill="none" xmlns="http://www.w3.org/2000/svg">
<path d="M16.0001 14.6666C15.7364 14.6666 15.4786 14.7448 15.2593 14.8913C15.0401 15.0378 14.8692 15.2461 14.7682 15.4897C14.6673 15.7333 14.6409 16.0014 14.6924 16.2601C14.7438 16.5187 14.8708 16.7563 15.0573 16.9428C15.2437 17.1292 15.4813 17.2562 15.74 17.3077C15.9986 17.3591 16.2667 17.3327 16.5103 17.2318C16.754 17.1309 16.9622 16.96 17.1087 16.7407C17.2552 16.5215 17.3334 16.2637 17.3334 16C17.3334 15.6463 17.1929 15.3072 16.9429 15.0572C16.6928 14.8071 16.3537 14.6666 16.0001 14.6666ZM16.0001 2.66663C13.363 2.66663 10.7851 3.44861 8.59248 4.9137C6.39983 6.37878 4.69086 8.46117 3.68169 10.8975C2.67253 13.3339 2.40848 16.0148 2.92295 18.6012C3.43742 21.1876 4.7073 23.5634 6.572 25.4281C8.4367 27.2928 10.8125 28.5626 13.3989 29.0771C15.9853 29.5916 18.6662 29.3275 21.1025 28.3184C23.5389 27.3092 25.6213 25.6002 27.0863 23.4076C28.5514 21.2149 29.3334 18.637 29.3334 16C29.3334 14.249 28.9885 12.5152 28.3185 10.8975C27.6484 9.27984 26.6663 7.80998 25.4282 6.57187C24.1901 5.33375 22.7202 4.35163 21.1025 3.68157C19.4849 3.0115 17.751 2.66663 16.0001 2.66663V2.66663ZM17.3334 26.5733V22.6666C17.3334 22.313 17.1929 21.9739 16.9429 21.7238C16.6928 21.4738 16.3537 21.3333 16.0001 21.3333C15.6465 21.3333 15.3073 21.4738 15.0573 21.7238C14.8072 21.9739 14.6668 22.313 14.6668 22.6666V26.5733C12.3201 26.2757 10.1389 25.2065 8.4662 23.5338C6.79355 21.8612 5.72434 19.68 5.42675 17.3333H9.33342C9.68704 17.3333 10.0262 17.1928 10.2762 16.9428C10.5263 16.6927 10.6668 16.3536 10.6668 16C10.6668 15.6463 10.5263 15.3072 10.2762 15.0572C10.0262 14.8071 9.68704 14.6666 9.33342 14.6666H5.42675C5.72434 12.3199 6.79355 10.1387 8.4662 8.46607C10.1389 6.79342 12.3201 5.72422 14.6668 5.42663V9.33329C14.6668 9.68691 14.8072 10.0261 15.0573 10.2761C15.3073 10.5262 15.6465 10.6666 16.0001 10.6666C16.3537 10.6666 16.6928 10.5262 16.9429 10.2761C17.1929 10.0261 17.3334 9.68691 17.3334 9.33329V5.42663C19.6801 5.72422 21.8613 6.79342 23.534 8.46607C25.2066 10.1387 26.2758 12.3199 26.5734 14.6666H22.6668C22.3131 14.6666 21.974 14.8071 21.7239 15.0572C21.4739 15.3072 21.3334 15.6463 21.3334 16C21.3334 16.3536 21.4739 16.6927 21.7239 16.9428C21.974 17.1928 22.3131 17.3333 22.6668 17.3333H26.5734C26.2758 19.68 25.2066 21.8612 23.534 23.5338C21.8613 25.2065 19.6801 26.2757 17.3334 26.5733Z" fill="#728095"/>
</svg>
