<svg width="48" height="48" viewBox="0 0 48 48" fill="none" xmlns="http://www.w3.org/2000/svg">
<path d="M39.82 31.02H30.76C30.2296 31.02 29.7209 31.2307 29.3458 31.6058C28.9707 31.9809 28.76 32.4896 28.76 33.02C28.76 33.5504 28.9707 34.0591 29.3458 34.4342C29.7209 34.8093 30.2296 35.02 30.76 35.02H35.56C33.3539 37.3255 30.5088 38.9186 27.3903 39.5948C24.2718 40.2709 21.0224 39.9992 18.0596 38.8145C15.0967 37.6298 12.5557 35.5862 10.7632 32.9463C8.97063 30.3065 8.00835 27.1909 8 24C8 23.4696 7.78929 22.9609 7.41421 22.5858C7.03914 22.2107 6.53043 22 6 22C5.46957 22 4.96086 22.2107 4.58579 22.5858C4.21071 22.9609 4 23.4696 4 24C4.01057 27.9056 5.16444 31.7226 7.31921 34.9801C9.47397 38.2375 12.5353 40.7927 16.1255 42.3304C19.7156 43.8682 23.6775 44.3211 27.522 43.6333C31.3666 42.9455 34.9257 41.1471 37.76 38.46V42C37.76 42.5304 37.9707 43.0391 38.3458 43.4142C38.7209 43.7893 39.2296 44 39.76 44C40.2904 44 40.7991 43.7893 41.1742 43.4142C41.5493 43.0391 41.76 42.5304 41.76 42V33C41.7551 32.4833 41.5503 31.9885 41.1887 31.6194C40.827 31.2503 40.3365 31.0355 39.82 31.02ZM30 24C30 22.8133 29.6481 21.6533 28.9888 20.6666C28.3295 19.6799 27.3925 18.9108 26.2961 18.4567C25.1997 18.0026 23.9933 17.8838 22.8295 18.1153C21.6656 18.3468 20.5965 18.9182 19.7574 19.7574C18.9182 20.5965 18.3468 21.6656 18.1153 22.8295C17.8838 23.9933 18.0026 25.1997 18.4567 26.2961C18.9108 27.3925 19.6799 28.3295 20.6666 28.9888C21.6533 29.6481 22.8133 30 24 30C25.5913 30 27.1174 29.3679 28.2426 28.2426C29.3679 27.1174 30 25.5913 30 24ZM22 24C22 23.6044 22.1173 23.2178 22.3371 22.8889C22.5568 22.56 22.8692 22.3036 23.2346 22.1522C23.6001 22.0009 24.0022 21.9613 24.3902 22.0384C24.7781 22.1156 25.1345 22.3061 25.4142 22.5858C25.6939 22.8655 25.8844 23.2219 25.9616 23.6098C26.0387 23.9978 25.9991 24.3999 25.8478 24.7654C25.6964 25.1308 25.44 25.4432 25.1111 25.6629C24.7822 25.8827 24.3956 26 24 26C23.4696 26 22.9609 25.7893 22.5858 25.4142C22.2107 25.0391 22 24.5304 22 24ZM24 4C18.8728 4.01462 13.947 5.99783 10.24 9.54V6C10.24 5.46957 10.0293 4.96086 9.65421 4.58579C9.27914 4.21071 8.77043 4 8.24 4C7.70957 4 7.20086 4.21071 6.82579 4.58579C6.45071 4.96086 6.24 5.46957 6.24 6V15C6.24 15.5304 6.45071 16.0391 6.82579 16.4142C7.20086 16.7893 7.70957 17 8.24 17H17.24C17.7704 17 18.2791 16.7893 18.6542 16.4142C19.0293 16.0391 19.24 15.5304 19.24 15C19.24 14.4696 19.0293 13.9609 18.6542 13.5858C18.2791 13.2107 17.7704 13 17.24 13H12.44C14.6449 10.6957 17.4882 9.103 20.6048 8.42622C23.7214 7.74943 26.9692 8.01949 29.9312 9.20173C32.8932 10.384 35.4344 12.4244 37.2285 15.0612C39.0225 17.698 39.9877 20.8108 40 24C40 24.5304 40.2107 25.0391 40.5858 25.4142C40.9609 25.7893 41.4696 26 42 26C42.5304 26 43.0391 25.7893 43.4142 25.4142C43.7893 25.0391 44 24.5304 44 24C44 21.3736 43.4827 18.7728 42.4776 16.3463C41.4725 13.9198 39.9993 11.715 38.1421 9.85786C36.285 8.00069 34.0802 6.5275 31.6537 5.52241C29.2272 4.51732 26.6264 4 24 4V4Z" fill="#1963CC"/>
</svg>
