<svg width="151" height="40" viewBox="0 0 151 40" fill="none" xmlns="http://www.w3.org/2000/svg">
<path d="M42.7837 27.8013H52.6888V24.9992H45.8041V11.915H42.7837V27.8013Z" fill="#728095"/>
<path d="M58.6411 28.1323C59.8405 28.1323 60.8954 27.8675 61.8059 27.3379C62.7239 26.801 63.4382 26.0619 63.9491 25.1205C64.4673 24.1717 64.7264 23.0796 64.7264 21.844C64.7264 20.6157 64.4709 19.5309 63.9602 18.5895C63.4493 17.6408 62.7349 16.8979 61.817 16.361C60.9065 15.8241 59.8479 15.5557 58.6411 15.5557C57.4566 15.5557 56.4091 15.8205 55.4986 16.35C54.5881 16.8795 53.8737 17.6187 53.3554 18.5675C52.8372 19.5088 52.5781 20.601 52.5781 21.844C52.5781 23.0722 52.8298 24.1607 53.3333 25.1094C53.844 26.0509 54.5547 26.79 55.4653 27.3269C56.3759 27.8638 57.4345 28.1323 58.6411 28.1323ZM58.6411 25.3301C57.7009 25.3301 56.9866 25.0176 56.498 24.3924C56.0168 23.7599 55.7762 22.9104 55.7762 21.844C55.7762 20.807 56.0057 19.9685 56.4647 19.3286C56.931 18.6815 57.6565 18.3578 58.6411 18.3578C59.5962 18.3578 60.3142 18.6741 60.7954 19.3066C61.284 19.9391 61.5283 20.7849 61.5283 21.844C61.5283 22.8663 61.2877 23.7047 60.8065 24.3593C60.3327 25.0065 59.6109 25.3301 58.6411 25.3301Z" fill="#728095"/>
<path d="M70.6995 28.1323C71.2621 28.1323 71.7803 28.066 72.2541 27.9337C72.7353 27.8013 73.1721 27.6137 73.5644 27.371V28.5736C73.5793 29.0148 73.4645 29.3825 73.2202 29.6767C72.9833 29.9783 72.665 30.2026 72.2652 30.3497C71.8654 30.5042 71.4398 30.5814 70.9882 30.5814C70.5662 30.5814 70.1739 30.4895 69.8112 30.3056C69.4558 30.1218 69.1818 29.8533 68.9894 29.5003L66.1911 30.8462C66.6501 31.6184 67.3052 32.2399 68.1566 32.7106C69.008 33.1886 69.9444 33.4277 70.966 33.4277C71.847 33.4277 72.665 33.31 73.42 33.0746C74.1752 32.8467 74.8118 32.4973 75.33 32.0266C75.8556 31.5559 76.2147 30.9565 76.4072 30.2284C76.4738 29.9709 76.5182 29.7099 76.5404 29.445C76.57 29.1877 76.5848 28.9119 76.5848 28.6177V15.8866H73.942V16.5486C73.5348 16.2323 73.0721 15.9896 72.5539 15.8205C72.0431 15.6439 71.4768 15.5557 70.8549 15.5557C69.7075 15.5557 68.7081 15.8278 67.8568 16.372C67.0054 16.9163 66.3429 17.6628 65.8691 18.6116C65.4027 19.5529 65.1695 20.6305 65.1695 21.844C65.1695 23.0354 65.399 24.1055 65.858 25.0543C66.3244 26.003 66.9721 26.7533 67.8012 27.3049C68.6303 27.8564 69.5965 28.1323 70.6995 28.1323ZM71.188 25.4625C70.5366 25.4625 70.0036 25.3007 69.589 24.9771C69.1745 24.6535 68.8672 24.2196 68.6674 23.6753C68.4675 23.1237 68.3676 22.5133 68.3676 21.844C68.3676 21.182 68.4712 20.579 68.6785 20.0347C68.8858 19.4831 69.2041 19.0455 69.6334 18.7219C70.0702 18.3909 70.6255 18.2254 71.2991 18.2254C72.2467 18.2254 72.924 18.5601 73.3312 19.2294C73.7384 19.8913 73.942 20.7628 73.942 21.844C73.942 22.9251 73.7347 23.8003 73.3201 24.4696C72.913 25.1315 72.2023 25.4625 71.188 25.4625Z" fill="#728095"/>
<path d="M83.7587 28.1323C84.9581 28.1323 86.013 27.8675 86.9235 27.3379C87.8413 26.801 88.5558 26.0619 89.0662 25.1205C89.5845 24.1717 89.8436 23.0796 89.8436 21.844C89.8436 20.6157 89.5889 19.5309 89.0776 18.5895C88.5672 17.6408 87.8526 16.8979 86.9346 16.361C86.0241 15.8241 84.9654 15.5557 83.7587 15.5557C82.5742 15.5557 81.5267 15.8205 80.6162 16.35C79.7057 16.8795 78.9913 17.6187 78.473 18.5675C77.9548 19.5088 77.6957 20.601 77.6957 21.844C77.6957 23.0722 77.9474 24.1607 78.4509 25.1094C78.9616 26.0509 79.6723 26.79 80.5829 27.3269C81.4935 27.8638 82.5521 28.1323 83.7587 28.1323ZM83.7587 25.3301C82.8185 25.3301 82.1041 25.0176 81.6156 24.3924C81.1344 23.7599 80.8938 22.9104 80.8938 21.844C80.8938 20.807 81.1233 19.9685 81.5823 19.3286C82.0487 18.6815 82.7741 18.3578 83.7587 18.3578C84.7138 18.3578 85.4318 18.6741 85.913 19.3066C86.4016 19.9391 86.6459 20.7849 86.6459 21.844C86.6459 22.8663 86.4052 23.7047 85.9241 24.3593C85.4503 25.0065 84.7285 25.3301 83.7587 25.3301Z" fill="#728095"/>
<path d="M91.175 14.2316H94.1956V11.584H91.175V14.2316ZM91.175 27.8012H94.1956V15.8865H91.175V27.8012Z" fill="#728095"/>
<path d="M96.1701 33.0967H99.2124V27.371C99.605 27.6137 100.038 27.8013 100.512 27.9337C100.993 28.066 101.515 28.1323 102.078 28.1323C103.181 28.1323 104.147 27.8564 104.976 27.3049C105.805 26.7533 106.449 26.003 106.908 25.0543C107.375 24.1055 107.608 23.0354 107.608 21.844C107.608 20.6305 107.371 19.5529 106.897 18.6116C106.431 17.6628 105.772 16.9163 104.92 16.372C104.069 15.8278 103.07 15.5557 101.922 15.5557C101.3 15.5557 100.731 15.6439 100.212 15.8205C99.701 15.9896 99.2421 16.2323 98.8355 16.5486V15.8866H96.1701V33.0967ZM101.589 25.4625C100.582 25.4625 99.872 25.1315 99.4567 24.4696C99.0423 23.8003 98.8355 22.9251 98.8355 21.844C98.8355 20.7628 99.0388 19.8913 99.4463 19.2294C99.8607 18.5601 100.538 18.2254 101.478 18.2254C102.152 18.2254 102.703 18.3909 103.133 18.7219C103.57 19.0455 103.892 19.4831 104.098 20.0347C104.306 20.579 104.41 21.182 104.41 21.844C104.41 22.5133 104.309 23.1237 104.11 23.6753C103.91 24.2196 103.603 24.6535 103.188 24.9771C102.774 25.3007 102.241 25.4625 101.589 25.4625Z" fill="#728095"/>
<path d="M113.08 28.1323C114.648 28.1323 115.878 27.7829 116.766 27.0842C117.654 26.3855 118.098 25.4257 118.098 24.2048C118.098 23.2781 117.809 22.5464 117.233 22.0095C116.662 21.4726 115.693 21.0276 114.323 20.6746C113.39 20.4392 112.694 20.248 112.235 20.1009C111.784 19.9538 111.484 19.8104 111.336 19.6707C111.195 19.5309 111.125 19.3581 111.125 19.1521C111.125 18.8065 111.291 18.5417 111.624 18.3578C111.966 18.1739 112.413 18.1004 112.968 18.1372C114.145 18.2254 114.79 18.7256 114.901 19.6375L117.987 19.0859C117.832 18.0048 117.299 17.148 116.388 16.5155C115.478 15.8756 114.316 15.5557 112.902 15.5557C111.451 15.5557 110.292 15.894 109.426 16.5706C108.56 17.2472 108.127 18.1592 108.127 19.3066C108.127 20.2186 108.427 20.9393 109.026 21.4689C109.626 21.9911 110.659 22.4397 112.124 22.8148C112.991 23.0428 113.627 23.2267 114.034 23.3664C114.449 23.5061 114.716 23.6496 114.833 23.7967C114.952 23.9364 115.011 24.124 115.011 24.3593C115.011 24.7344 114.863 25.0286 114.567 25.2419C114.272 25.4478 113.849 25.5507 113.301 25.5507C112.635 25.5507 112.083 25.3926 111.647 25.0763C111.218 24.7601 110.94 24.3226 110.814 23.7636L107.727 24.2269C107.927 25.4699 108.49 26.4333 109.415 27.1173C110.348 27.7939 111.569 28.1323 113.08 28.1323Z" fill="#728095"/>
<path d="M123.67 28.1545C124.536 28.1545 125.291 28.011 125.936 27.7242C126.58 27.4374 127.12 27.0549 127.557 26.5769V27.8014H130.222V15.8867H127.179V21.9324C127.179 22.6678 127.094 23.2635 126.924 23.7195C126.761 24.1682 126.55 24.5102 126.291 24.7455C126.032 24.9735 125.754 25.1279 125.458 25.2089C125.162 25.2898 124.885 25.3302 124.625 25.3302C123.982 25.3302 123.482 25.1868 123.127 24.9C122.778 24.6131 122.526 24.2564 122.371 23.8299C122.216 23.4032 122.123 22.9804 122.093 22.5611C122.064 22.1346 122.049 21.7853 122.049 21.5131V15.8867H118.984V22.5722C118.984 22.7707 118.999 23.087 119.028 23.521C119.058 23.9549 119.144 24.4366 119.284 24.9662C119.425 25.4883 119.658 25.9921 119.984 26.4775C120.317 26.963 120.78 27.3638 121.372 27.6801C121.963 27.9963 122.73 28.1545 123.67 28.1545Z" fill="#728095"/>
<path d="M131.971 27.8011H135.013V20.5861C135.013 19.9022 135.202 19.3469 135.58 18.9203C135.964 18.4863 136.471 18.2694 137.101 18.2694C137.76 18.2694 138.275 18.4901 138.645 18.9314C139.021 19.3653 139.211 19.9757 139.211 20.7627V27.8011H142.231V20.5861C142.231 19.9022 142.42 19.3469 142.798 18.9203C143.182 18.4863 143.689 18.2694 144.318 18.2694C144.978 18.2694 145.492 18.4901 145.862 18.9314C146.24 19.3653 146.429 19.9757 146.429 20.7627V27.8011H149.449V19.9683C149.449 18.6665 149.097 17.6149 148.394 16.8131C147.698 16.0041 146.665 15.5996 145.296 15.5996C144.526 15.5996 143.819 15.7651 143.175 16.096C142.531 16.4271 142.017 16.8794 141.631 17.453C141.32 16.8941 140.876 16.4454 140.299 16.1071C139.721 15.7688 139.003 15.5996 138.145 15.5996C137.419 15.5996 136.753 15.7431 136.146 16.0299C135.539 16.3094 135.035 16.6955 134.635 17.1882V15.8864H131.971V27.8011Z" fill="#728095"/>
<path d="M17.4498 2.66357C7.81252 2.66357 0 10.4252 0 19.9997C9.63725 19.9997 17.4498 12.2381 17.4498 2.66357Z" fill="#728095"/>
<path d="M17.4498 37.3362C27.0871 37.3362 34.8996 29.5745 34.8996 20C25.2623 20 17.4498 27.7617 17.4498 37.3362Z" fill="#728095"/>
<path d="M17.4498 2.66357C27.0871 2.66357 34.8996 10.4252 34.8996 19.9997C25.2623 19.9997 17.4498 12.2381 17.4498 2.66357Z" fill="#728095"/>
<path d="M17.4498 37.3362C7.81252 37.3362 -8.42514e-07 29.5745 0 20C9.63725 20 17.4498 27.7617 17.4498 37.3362Z" fill="#728095"/>
</svg>
