<svg width="151" height="40" viewBox="0 0 151 40" fill="none" xmlns="http://www.w3.org/2000/svg">
<g clip-path="url(#clip0_1384_674643)">
<path d="M10.9104 28.5089C8.01923 31.3812 3.12272 31.3698 1.75525 27.5416C1.48752 26.7921 1.27346 26.0214 1.11602 25.2351C0.473195 22.0244 0.803117 18.6965 2.06407 15.672C3.32502 12.6477 5.46036 10.0627 8.20007 8.24401C10.9398 6.42532 14.1609 5.45459 17.4559 5.45459C20.7509 5.45459 23.9719 6.42532 26.7116 8.24401C29.4513 10.0627 31.5867 12.6477 32.8476 15.6721C34.1086 18.6965 34.4384 22.0244 33.7957 25.2351C33.6382 26.0214 33.4242 26.7921 33.1564 27.5416C31.7889 31.3698 26.8924 31.3812 24.0013 28.5089L19.5383 24.075C19.1119 23.6514 19.156 22.9528 19.2736 22.3652C19.3451 22.0081 19.3084 21.6379 19.1681 21.3014C19.0278 20.9649 18.7903 20.6773 18.4855 20.4751C18.1807 20.2728 17.8224 20.1648 17.4559 20.1648C17.0893 20.1648 16.731 20.2728 16.4262 20.4751C16.1213 20.6773 15.8838 20.9649 15.7435 21.3014C15.6033 21.6379 15.5666 22.0081 15.6381 22.3652C15.7557 22.9528 15.7997 23.6514 15.3733 24.075L10.9104 28.5089Z" fill="url(#paint0_linear_1384_674643)"/>
<path d="M47.6699 24.535H52.148V27.1568H44.2512V13.2139H47.6699V24.535Z" fill="#728095"/>
<path d="M58.2569 27.3157C57.1641 27.3157 56.1778 27.084 55.2981 26.6205C54.4319 26.1571 53.7454 25.495 53.239 24.6344C52.7459 23.7737 52.4993 22.7674 52.4993 21.6153C52.4993 20.4766 52.7524 19.4769 53.2589 18.6162C53.7655 17.7423 54.4585 17.0736 55.3381 16.6102C56.2178 16.1468 57.204 15.915 58.2969 15.915C59.3898 15.915 60.3761 16.1468 61.2557 16.6102C62.1354 17.0736 62.8284 17.7423 63.3349 18.6162C63.8413 19.4769 64.0946 20.4766 64.0946 21.6153C64.0946 22.7541 63.8346 23.7604 63.3149 24.6344C62.8085 25.495 62.1088 26.1571 61.2157 26.6205C60.3361 27.084 59.3498 27.3157 58.2569 27.3157ZM58.2569 24.3761C58.91 24.3761 59.4631 24.1378 59.9163 23.6611C60.3828 23.1844 60.616 22.5025 60.616 21.6153C60.616 20.7282 60.3894 20.0463 59.9363 19.5696C59.4964 19.0929 58.95 18.8545 58.2969 18.8545C57.6305 18.8545 57.0774 19.0929 56.6376 19.5696C56.1977 20.033 55.9778 20.7149 55.9778 21.6153C55.9778 22.5025 56.1911 23.1844 56.6176 23.6611C57.0575 24.1378 57.6039 24.3761 58.2569 24.3761Z" fill="#728095"/>
<path d="M69.5466 15.915C70.333 15.915 71.0194 16.0739 71.6059 16.3917C72.2055 16.7095 72.6654 17.1266 72.9853 17.643V16.0739H76.4039V27.1369C76.4039 28.1565 76.1974 29.0768 75.7841 29.8976C75.3843 30.7319 74.7645 31.3939 73.9249 31.8838C73.0986 32.3738 72.0656 32.6188 70.8262 32.6188C69.1735 32.6188 67.834 32.2282 66.8077 31.4469C65.7816 30.6789 65.195 29.6328 65.0485 28.3087H68.4271C68.5337 28.7324 68.787 29.0635 69.1869 29.3019C69.5866 29.5534 70.0798 29.6792 70.6662 29.6792C71.3726 29.6792 71.9323 29.4739 72.3455 29.0635C72.772 28.6663 72.9853 28.0241 72.9853 27.1369V25.5679C72.6521 26.0842 72.1923 26.508 71.6059 26.839C71.0194 27.1568 70.333 27.3157 69.5466 27.3157C68.6271 27.3157 67.794 27.084 67.0477 26.6205C66.3013 26.1438 65.7082 25.4751 65.2684 24.6144C64.8419 23.7406 64.6287 22.7343 64.6287 21.5955C64.6287 20.4567 64.8419 19.4571 65.2684 18.5964C65.7082 17.7357 66.3013 17.0736 67.0477 16.6102C67.794 16.1468 68.6271 15.915 69.5466 15.915ZM72.9853 21.6153C72.9853 20.7679 72.7454 20.0992 72.2656 19.6093C71.7991 19.1194 71.2259 18.8744 70.5463 18.8744C69.8665 18.8744 69.2868 19.1194 68.8069 19.6093C68.3405 20.086 68.1072 20.7481 68.1072 21.5955C68.1072 22.4429 68.3405 23.1182 68.8069 23.6214C69.2868 24.1113 69.8665 24.3563 70.5463 24.3563C71.2259 24.3563 71.7991 24.1113 72.2656 23.6214C72.7454 23.1314 72.9853 22.4628 72.9853 21.6153Z" fill="#728095"/>
<path d="M83.3553 27.3157C82.2624 27.3157 81.2762 27.084 80.3966 26.6205C79.5302 26.1571 78.8438 25.495 78.3373 24.6344C77.8443 23.7737 77.5977 22.7674 77.5977 21.6153C77.5977 20.4766 77.8508 19.4769 78.3574 18.6162C78.8638 17.7423 79.5569 17.0736 80.4365 16.6102C81.3161 16.1468 82.3024 15.915 83.3953 15.915C84.4882 15.915 85.4745 16.1468 86.3541 16.6102C87.2338 17.0736 87.9268 17.7423 88.4332 18.6162C88.9397 19.4769 89.193 20.4766 89.193 21.6153C89.193 22.7541 88.9331 23.7604 88.4133 24.6344C87.9068 25.495 87.2071 26.1571 86.3141 26.6205C85.4345 27.084 84.4482 27.3157 83.3553 27.3157ZM83.3553 24.3761C84.0084 24.3761 84.5615 24.1378 85.0147 23.6611C85.4812 23.1844 85.7144 22.5025 85.7144 21.6153C85.7144 20.7282 85.4878 20.0463 85.0346 19.5696C84.5948 19.0929 84.0484 18.8545 83.3953 18.8545C82.7289 18.8545 82.1758 19.0929 81.736 19.5696C81.2962 20.033 81.0762 20.7149 81.0762 21.6153C81.0762 22.5025 81.2895 23.1844 81.716 23.6611C82.1559 24.1378 82.7023 24.3761 83.3553 24.3761Z" fill="#728095"/>
<path d="M92.1261 14.922C91.5263 14.922 91.0332 14.7498 90.6467 14.4056C90.2735 14.0481 90.0869 13.6111 90.0869 13.0947C90.0869 12.5651 90.2735 12.1281 90.6467 11.7838C91.0332 11.4263 91.5263 11.2476 92.1261 11.2476C92.7125 11.2476 93.1923 11.4263 93.5655 11.7838C93.952 12.1281 94.1452 12.5651 94.1452 13.0947C94.1452 13.6111 93.952 14.0481 93.5655 14.4056C93.1923 14.7498 92.7125 14.922 92.1261 14.922ZM93.8253 16.074V27.1568H90.4068V16.074H93.8253Z" fill="#728095"/>
<path d="M99.1215 17.643C99.4545 17.1266 99.9144 16.7095 100.501 16.3917C101.088 16.0739 101.774 15.915 102.56 15.915C103.48 15.915 104.313 16.1468 105.059 16.6102C105.806 17.0736 106.393 17.7357 106.819 18.5964C107.258 19.4571 107.479 20.4567 107.479 21.5955C107.479 22.7343 107.258 23.7406 106.819 24.6144C106.393 25.4751 105.806 26.1438 105.059 26.6205C104.313 27.084 103.48 27.3157 102.56 27.3157C101.787 27.3157 101.101 27.1568 100.501 26.839C99.9144 26.5212 99.4545 26.1107 99.1215 25.6076V32.44H95.7031V16.0739H99.1215V17.643ZM104 21.5955C104 20.7481 103.76 20.086 103.28 19.6093C102.813 19.1194 102.234 18.8744 101.541 18.8744C100.861 18.8744 100.281 19.1194 99.8011 19.6093C99.3355 20.0992 99.1021 20.7679 99.1021 21.6153C99.1021 22.4628 99.3355 23.1314 99.8011 23.6214C100.281 24.1113 100.861 24.3563 101.541 24.3563C102.221 24.3563 102.801 24.1113 103.28 23.6214C103.76 23.1182 104 22.4429 104 21.5955Z" fill="#728095"/>
<path d="M113.21 27.3157C112.237 27.3157 111.371 27.1501 110.611 26.8192C109.852 26.4881 109.252 26.0379 108.812 25.4685C108.372 24.8859 108.126 24.2371 108.072 23.522H111.451C111.491 23.906 111.671 24.2172 111.99 24.4555C112.311 24.6939 112.704 24.8131 113.171 24.8131C113.597 24.8131 113.923 24.7336 114.15 24.5747C114.39 24.4026 114.51 24.1841 114.51 23.9193C114.51 23.6015 114.343 23.3698 114.01 23.2241C113.677 23.0652 113.137 22.8932 112.39 22.7077C111.591 22.5224 110.925 22.3304 110.391 22.1317C109.859 21.9199 109.399 21.5955 109.012 21.1585C108.625 20.7084 108.432 20.1058 108.432 19.3512C108.432 18.7155 108.606 18.1396 108.952 17.6231C109.312 17.0935 109.831 16.6764 110.511 16.3718C111.204 16.0673 112.024 15.915 112.97 15.915C114.369 15.915 115.469 16.2593 116.269 16.9478C117.082 17.6364 117.549 18.55 117.669 19.6888H114.51C114.456 19.3048 114.283 19.0003 113.99 18.7751C113.71 18.55 113.337 18.4375 112.871 18.4375C112.471 18.4375 112.164 18.5169 111.951 18.6758C111.738 18.8214 111.631 19.0267 111.631 19.2915C111.631 19.6093 111.798 19.8477 112.131 20.0066C112.477 20.1655 113.01 20.3244 113.73 20.4832C114.556 20.6951 115.229 20.907 115.749 21.1188C116.269 21.3174 116.722 21.6484 117.108 22.1119C117.508 22.5621 117.715 23.1711 117.729 23.9392C117.729 24.588 117.542 25.1706 117.168 25.687C116.809 26.1902 116.282 26.5874 115.589 26.8787C114.91 27.1701 114.117 27.3157 113.21 27.3157Z" fill="#728095"/>
<path d="M130.236 16.074V27.1568H126.817V25.6473C126.471 26.1372 125.997 26.5345 125.398 26.839C124.811 27.1304 124.159 27.276 123.438 27.276C122.585 27.276 121.832 27.0906 121.179 26.7198C120.526 26.3359 120.02 25.7863 119.66 25.0714C119.3 24.3563 119.12 23.5155 119.12 22.5488V16.074H122.518V22.0921C122.518 22.8336 122.712 23.4095 123.098 23.8201C123.485 24.2305 124.005 24.4358 124.658 24.4358C125.324 24.4358 125.851 24.2305 126.237 23.8201C126.624 23.4095 126.817 22.8336 126.817 22.0921V16.074H130.236Z" fill="#728095"/>
<path d="M146.326 15.9546C147.711 15.9546 148.811 16.3717 149.625 17.2059C150.45 18.04 150.864 19.1986 150.864 20.6816V27.1566H147.466V21.1385C147.466 20.4235 147.272 19.8739 146.886 19.49C146.512 19.0927 145.993 18.8941 145.326 18.8941C144.66 18.8941 144.133 19.0927 143.747 19.49C143.374 19.8739 143.187 20.4235 143.187 21.1385V27.1566H139.788V21.1385C139.788 20.4235 139.595 19.8739 139.209 19.49C138.835 19.0927 138.315 18.8941 137.649 18.8941C136.983 18.8941 136.456 19.0927 136.07 19.49C135.696 19.8739 135.51 20.4235 135.51 21.1385V27.1566H132.092V16.0738H135.51V17.4641C135.857 17.0006 136.31 16.6365 136.87 16.3717C137.429 16.0936 138.063 15.9546 138.768 15.9546C139.609 15.9546 140.355 16.1333 141.008 16.4908C141.674 16.8484 142.194 17.3582 142.568 18.0202C142.954 17.4111 143.481 16.9145 144.147 16.5306C144.813 16.1466 145.54 15.9546 146.326 15.9546Z" fill="#728095"/>
</g>
<defs>
<linearGradient id="paint0_linear_1384_674643" x1="32.5993" y1="13.7303" x2="3.02791" y2="13.7303" gradientUnits="userSpaceOnUse">
<stop stop-color="#64C2DB"/>
<stop offset="0.510417" stop-color="#7476ED"/>
<stop offset="1" stop-color="#E56F8C"/>
</linearGradient>
<clipPath id="clip0_1384_674643">
<rect width="150.068" height="40" fill="white" transform="translate(0.795898)"/>
</clipPath>
</defs>
</svg>
