<svg width="151" height="40" viewBox="0 0 151 40" fill="none" xmlns="http://www.w3.org/2000/svg">
<path d="M32.3395 11.461H34.3359V25.2659H40.3254V27.2494H32.3395V11.461ZM46.5444 11.461C47.729 11.461 48.8869 11.8099 49.8719 12.4638C50.8568 13.1177 51.6246 14.0469 52.0779 15.1342C52.5312 16.2216 52.6498 17.418 52.4187 18.5722C52.1876 19.7265 51.6172 20.7867 50.7795 21.6189C49.9419 22.4512 48.8746 23.0178 47.7128 23.2474C46.551 23.477 45.3468 23.3592 44.2523 22.9089C43.1578 22.4584 42.2225 21.6958 41.5644 20.7172C40.9062 19.7387 40.5549 18.5883 40.5549 17.4114C40.5549 16.63 40.7099 15.8561 41.0108 15.1342C41.3118 14.4123 41.753 13.7563 42.3092 13.2038C42.8654 12.6512 43.5256 12.2129 44.2523 11.9139C44.9789 11.6149 45.7579 11.461 46.5444 11.461ZM46.5444 21.3783C47.3341 21.3783 48.1061 21.1457 48.7627 20.7098C49.4194 20.2738 49.9312 19.6543 50.2333 18.9294C50.5356 18.2046 50.6147 17.407 50.4605 16.6374C50.3065 15.8679 49.9262 15.1611 49.3678 14.6063C48.8094 14.0516 48.0979 13.6737 47.3234 13.5207C46.5488 13.3676 45.746 13.4461 45.0164 13.7464C44.2868 14.0466 43.6631 14.5551 43.2243 15.2074C42.7856 15.8598 42.5514 16.6268 42.5514 17.4114C42.5567 18.46 42.9797 19.464 43.7279 20.2036C44.4762 20.9432 45.4888 21.3585 46.5444 21.3585V21.3783ZM42.5514 25.2858H50.5373V27.2692H42.5514V25.2858ZM68.1062 27.2692H66.1098V25.851C64.8222 26.7464 63.2892 27.2276 61.7175 27.2296C60.3774 27.2385 59.0565 26.9122 57.8767 26.2808C56.6968 25.6492 55.6959 24.733 54.9662 23.6163C54.2364 22.4996 53.8011 21.2183 53.7007 19.8906C53.6002 18.563 53.8377 17.2315 54.3912 16.019C54.9447 14.8064 55.7965 13.7517 56.868 12.9521C57.9396 12.1525 59.1965 11.6336 60.5228 11.4434C61.8493 11.2531 63.2026 11.3976 64.458 11.8634C65.7135 12.3292 66.8308 13.1014 67.7069 14.1089L66.2395 15.4081C65.5731 14.6678 64.7309 14.1051 63.7895 13.7712C62.8481 13.4372 61.8376 13.3426 60.8501 13.496C59.8624 13.6494 58.9293 14.046 58.1354 14.6495C57.3416 15.2531 56.7124 16.0443 56.3053 16.9513C55.8981 17.8582 55.7259 18.852 55.8044 19.842C55.8829 20.8321 56.2094 21.7868 56.7544 22.6193C57.2994 23.4517 58.0454 24.1355 58.9246 24.6082C59.8036 25.0809 60.7879 25.3274 61.7874 25.3254C62.6169 25.3271 63.4371 25.1508 64.1918 24.8084C64.9463 24.4661 65.6176 23.9659 66.1597 23.3419H60.7692V21.3585H68.1262L68.1062 27.2692ZM75.4532 11.5006C76.6379 11.5006 77.7958 11.8496 78.7808 12.5035C79.7657 13.1573 80.5335 14.0866 80.9868 15.1739C81.4401 16.2613 81.5587 17.4577 81.3276 18.6119C81.0965 19.7661 80.5261 20.8264 79.6884 21.6586C78.8507 22.4908 77.7835 23.0575 76.6217 23.2871C75.4599 23.5167 74.2557 23.3989 73.1612 22.9485C72.0667 22.4981 71.1314 21.7354 70.4733 20.7569C69.8151 19.7783 69.4638 18.6279 69.4638 17.451C69.4585 16.6646 69.6103 15.885 69.9102 15.1572C70.21 14.4293 70.6521 13.7677 71.211 13.2108C71.7698 12.6537 72.4342 12.2123 73.1658 11.9119C73.8974 11.6116 74.6816 11.4583 75.4732 11.461L75.4532 11.5006ZM75.4532 21.418C76.243 21.418 77.015 21.1853 77.6716 20.7495C78.3283 20.3135 78.8401 19.6939 79.1422 18.9691C79.4445 18.2442 79.5236 17.4467 79.3694 16.6771C79.2154 15.9076 78.8351 15.2008 78.2767 14.646C77.7182 14.0912 77.0068 13.7134 76.2323 13.5604C75.4576 13.4072 74.6549 13.4858 73.9252 13.7861C73.1956 14.0863 72.5719 14.5947 72.1332 15.2471C71.6945 15.8995 71.4603 16.6665 71.4603 17.451C71.4761 18.4962 71.9064 19.493 72.6579 20.2247C73.4093 20.9563 74.4211 21.3638 75.4732 21.3585L75.4532 21.418ZM71.4603 25.3254H79.4462V27.3089H71.4603V25.3254ZM83.5689 11.461H85.5654V27.2296H83.5689V11.461ZM88.3305 11.461H90.327C90.4298 11.4501 90.5335 11.4501 90.6364 11.461C91.4725 11.3708 92.3184 11.4567 93.1189 11.7129C93.9194 11.9691 94.6567 12.3899 95.2826 12.948C95.9086 13.506 96.4092 14.1888 96.7519 14.9519C97.0947 15.7149 97.2718 16.5411 97.2718 17.3767C97.2718 18.2122 97.0947 19.0384 96.7519 19.8015C96.4092 20.5645 95.9086 21.2473 95.2826 21.8054C94.6567 22.3634 93.9194 22.7842 93.1189 23.0405C92.3184 23.2966 91.4725 23.3825 90.6364 23.2924H90.327V27.2593H88.3305V11.461ZM90.327 13.4444V21.2891H90.6364C91.2003 21.3636 91.7737 21.3177 92.3183 21.1542C92.8629 20.9907 93.366 20.7136 93.7939 20.3413C94.222 19.969 94.5649 19.5101 94.7998 18.9954C95.0348 18.4807 95.1564 17.922 95.1564 17.3568C95.1564 16.7916 95.0348 16.233 94.7998 15.7183C94.5649 15.2036 94.222 14.7447 93.7939 14.3724C93.366 14 92.8629 13.7229 92.3183 13.5594C91.7737 13.3959 91.2003 13.35 90.6364 13.4246C90.5277 13.4358 90.4205 13.4591 90.317 13.494L90.327 13.4444ZM104.712 12.6015L103.234 13.7618C102.979 13.4972 102.654 13.3103 102.296 13.2233C101.938 13.1362 101.562 13.1525 101.213 13.2702C100.864 13.3878 100.556 13.602 100.325 13.8876C100.094 14.1733 99.9501 14.5184 99.91 14.8824V15.0411C99.91 15.9138 100.519 16.499 101.707 16.5783C106.279 16.856 108.375 18.9882 108.375 21.8048V21.9833C108.257 23.098 107.819 24.1556 107.114 25.0303C106.408 25.905 105.464 26.5598 104.395 26.9172C103.326 27.2744 102.176 27.319 101.081 27.0456C99.9872 26.7723 98.995 26.1924 98.223 25.375L99.7503 24.2048C100.106 24.5833 100.54 24.8804 101.023 25.0757C101.505 25.2709 102.025 25.3595 102.545 25.3353C103.507 25.3857 104.451 25.0651 105.18 24.4404C105.909 23.8158 106.367 22.9354 106.458 21.9833V21.8444C106.458 19.1965 103.843 18.7105 101.577 18.4924C99.4808 18.294 97.9734 16.9948 97.9734 15.1205V15.0411C98.0473 14.0653 98.4956 13.1548 99.2256 12.4979C99.9556 11.8409 100.912 11.4874 101.897 11.5105C102.418 11.4953 102.938 11.5888 103.421 11.7853C103.904 11.9817 104.34 12.2767 104.702 12.651L104.712 12.6015ZM116.191 25.2163C118.677 25.2163 120.643 22.5486 120.643 19.2659V11.332H122.64V19.2659C122.64 23.6296 119.765 27.1502 116.231 27.1502C112.697 27.1502 109.822 23.6296 109.822 19.2659V11.332H111.819V19.2659C111.739 22.5981 113.706 25.2659 116.181 25.2659L116.191 25.2163ZM137.963 27.1998H135.966V17.3816L131.364 23.332L126.763 17.3816V27.2296H124.766V11.461L131.354 20.0791L137.943 11.461L137.963 27.1998Z" fill="#728095"/>
<path d="M22.7564 9.09084C22.7564 7.65999 22.1843 6.28773 21.1659 5.27597C20.1475 4.2642 18.7663 3.6958 17.326 3.6958C15.8858 3.6958 14.5046 4.2642 13.4862 5.27597C12.4678 6.28773 11.8956 7.65999 11.8956 9.09084V25.4049L16.3677 28.5884V36.3437H18.2843V28.5884L22.7564 25.4049V9.09084ZM20.8398 18.2148L18.2843 20.7537V18.3735L20.8398 15.8346V18.2148ZM13.8522 15.8346L16.4077 18.3735V20.7537L13.8522 18.2148V15.8346ZM20.8398 13.1371L17.326 16.628L13.8122 13.0578V10.6776L17.326 14.1685L20.8398 10.6776V13.1371ZM17.326 5.59993C18.0988 5.60332 18.8492 5.85831 19.4622 6.32581C20.0752 6.79332 20.517 7.44757 20.72 8.18836L17.326 11.5503L13.932 8.18836C14.1276 7.4402 14.5663 6.77707 15.18 6.30189C15.7936 5.8267 16.548 5.56601 17.326 5.56025V5.59993ZM13.8122 24.4429V20.8727L16.3677 23.4115V26.2479L13.8122 24.4429ZM18.2843 26.2578V23.4115L20.8398 20.8727V24.433L18.2843 26.2578Z" fill="#728095"/>
</svg>
