<svg width="49" height="48" viewBox="0 0 49 48" fill="none" xmlns="http://www.w3.org/2000/svg">
<path d="M45.0294 4.85556C44.4599 4.38183 43.7727 4.07135 43.0408 3.95717C42.3089 3.84299 41.5598 3.92938 40.8731 4.20714L5.03132 18.6778C4.26482 18.9932 3.61235 19.5342 3.16052 20.2291C2.70869 20.9239 2.47885 21.7398 2.50153 22.5683C2.5242 23.3968 2.79831 24.1989 3.28748 24.868C3.77664 25.5371 4.45772 26.0416 5.24032 26.3146L12.4903 28.836L16.5313 42.1993C16.5862 42.3778 16.6659 42.5477 16.7681 42.7041C16.7836 42.7281 16.8054 42.746 16.8219 42.7693C16.9399 42.9339 17.0825 43.0795 17.2448 43.2008C17.2909 43.236 17.3351 43.2689 17.3844 43.3002C17.5743 43.4261 17.7846 43.5182 18.0059 43.5724L18.0296 43.5744L18.043 43.5801C18.176 43.6072 18.3115 43.6209 18.4473 43.6211C18.4603 43.6211 18.4719 43.6149 18.4849 43.6147C18.6898 43.6111 18.8929 43.5758 19.0871 43.51C19.1322 43.4947 19.1709 43.4689 19.2147 43.4504C19.3595 43.3904 19.4966 43.3135 19.6233 43.2212C19.7248 43.1357 19.8262 43.0503 19.9278 42.9649L25.3321 36.9981L33.3926 43.2422C34.1023 43.7947 34.9757 44.095 35.875 44.0958C36.8174 44.0946 37.7307 43.7694 38.4618 43.1748C39.1929 42.5803 39.6974 41.7524 39.8907 40.8301L46.4161 8.79698C46.564 8.07601 46.513 7.32841 46.2688 6.63416C46.0245 5.9399 45.5961 5.32511 45.0294 4.85556V4.85556ZM19.2403 29.4728C18.963 29.749 18.7734 30.1009 18.6954 30.4845L18.0764 33.4925L16.5083 28.3063L24.6388 24.0724L19.2403 29.4728ZM35.8438 40.0801L26.3184 32.7012C25.9199 32.3933 25.42 32.2468 24.9183 32.2909C24.4166 32.3351 23.95 32.5667 23.6114 32.9395L21.8806 34.8499L22.4923 31.877L36.6583 17.711C36.9964 17.3733 37.2024 16.9257 37.239 16.4492C37.2756 15.9728 37.1403 15.4989 36.8577 15.1136C36.575 14.7283 36.1638 14.4569 35.6983 14.3487C35.2329 14.2404 34.744 14.3024 34.3204 14.5235L13.9898 25.1087L6.5411 22.3829L42.4981 7.9981L35.8438 40.0801Z" fill="#1963CC"/>
</svg>
