<svg width="41" height="40" viewBox="0 0 41 40" fill="none" xmlns="http://www.w3.org/2000/svg">
<path d="M20.9998 20.3667C21.8891 19.5969 22.6024 18.6449 23.0913 17.5751C23.5802 16.5053 23.8332 15.3429 23.8332 14.1667C23.8332 11.9566 22.9552 9.83695 21.3924 8.27415C19.8296 6.71135 17.71 5.83337 15.4998 5.83337C13.2897 5.83337 11.1701 6.71135 9.60728 8.27415C8.04448 9.83695 7.1665 11.9566 7.1665 14.1667C7.16649 15.3429 7.41951 16.5053 7.90838 17.5751C8.39725 18.6449 9.11054 19.5969 9.99984 20.3667C7.66674 21.4232 5.68728 23.1293 4.29814 25.281C2.909 27.4326 2.16896 29.9389 2.1665 32.5C2.1665 32.9421 2.3421 33.366 2.65466 33.6786C2.96722 33.9911 3.39114 34.1667 3.83317 34.1667C4.2752 34.1667 4.69912 33.9911 5.01168 33.6786C5.32424 33.366 5.49984 32.9421 5.49984 32.5C5.49984 29.8479 6.55341 27.3043 8.42877 25.429C10.3041 23.5536 12.8477 22.5 15.4998 22.5C18.152 22.5 20.6955 23.5536 22.5709 25.429C24.4463 27.3043 25.4998 29.8479 25.4998 32.5C25.4998 32.9421 25.6754 33.366 25.988 33.6786C26.3006 33.9911 26.7245 34.1667 27.1665 34.1667C27.6085 34.1667 28.0325 33.9911 28.345 33.6786C28.6576 33.366 28.8332 32.9421 28.8332 32.5C28.8307 29.9389 28.0907 27.4326 26.7015 25.281C25.3124 23.1293 23.3329 21.4232 20.9998 20.3667V20.3667ZM15.4998 19.1667C14.5109 19.1667 13.5442 18.8735 12.722 18.3241C11.8997 17.7746 11.2589 16.9938 10.8804 16.0801C10.502 15.1665 10.403 14.1612 10.5959 13.1913C10.7888 12.2214 11.265 11.3304 11.9643 10.6312C12.6636 9.93191 13.5545 9.45571 14.5244 9.26278C15.4943 9.06986 16.4996 9.16887 17.4133 9.54731C18.3269 9.92575 19.1078 10.5666 19.6572 11.3889C20.2066 12.2111 20.4998 13.1778 20.4998 14.1667C20.4998 15.4928 19.9731 16.7646 19.0354 17.7022C18.0977 18.6399 16.8259 19.1667 15.4998 19.1667ZM31.7332 19.7C32.7998 18.4989 33.4965 17.0151 33.7395 15.4273C33.9825 13.8394 33.7614 12.2152 33.1028 10.75C32.4442 9.28492 31.3762 8.04137 30.0273 7.16908C28.6784 6.29679 27.1062 5.83294 25.4998 5.83337C25.0578 5.83337 24.6339 6.00897 24.3213 6.32153C24.0088 6.63409 23.8332 7.05801 23.8332 7.50004C23.8332 7.94207 24.0088 8.36599 24.3213 8.67855C24.6339 8.99111 25.0578 9.16671 25.4998 9.16671C26.8259 9.16671 28.0977 9.69349 29.0354 10.6312C29.9731 11.5689 30.4998 12.8406 30.4998 14.1667C30.4975 15.0421 30.2653 15.9015 29.8266 16.6591C29.3879 17.4166 28.758 18.0457 27.9998 18.4834C27.7527 18.6259 27.5464 18.8295 27.4004 19.0746C27.2545 19.3197 27.174 19.5982 27.1665 19.8834C27.1595 20.1663 27.2247 20.4464 27.3559 20.6971C27.4872 20.9479 27.6801 21.1611 27.9165 21.3167L28.5665 21.75L28.7832 21.8667C30.7922 22.8196 32.487 24.3267 33.6681 26.2106C34.8492 28.0944 35.4674 30.2766 35.4498 32.5C35.4498 32.9421 35.6254 33.366 35.938 33.6786C36.2506 33.9911 36.6745 34.1667 37.1165 34.1667C37.5585 34.1667 37.9825 33.9911 38.295 33.6786C38.6076 33.366 38.7832 32.9421 38.7832 32.5C38.7968 29.9424 38.1562 27.4238 36.9223 25.1835C35.6884 22.9432 33.9021 21.0556 31.7332 19.7V19.7Z" fill="#6EE97E"/>
</svg>
