<svg width="48" height="48" viewBox="0 0 48 48" fill="none" xmlns="http://www.w3.org/2000/svg">
<path d="M24 38C24.3956 38 24.7822 37.8827 25.1111 37.6629C25.44 37.4432 25.6964 37.1308 25.8478 36.7654C25.9991 36.3999 26.0387 35.9978 25.9616 35.6098C25.8844 35.2219 25.6939 34.8655 25.4142 34.5858C25.1345 34.3061 24.7781 34.1156 24.3902 34.0384C24.0022 33.9613 23.6001 34.0009 23.2346 34.1522C22.8692 34.3036 22.5568 34.56 22.3371 34.8889C22.1173 35.2178 22 35.6044 22 36C22 36.5304 22.2107 37.0391 22.5858 37.4142C22.9609 37.7893 23.4696 38 24 38ZM34 38C34.3956 38 34.7822 37.8827 35.1111 37.6629C35.44 37.4432 35.6964 37.1308 35.8478 36.7654C35.9991 36.3999 36.0387 35.9978 35.9616 35.6098C35.8844 35.2219 35.6939 34.8655 35.4142 34.5858C35.1345 34.3061 34.7781 34.1156 34.3902 34.0384C34.0022 33.9613 33.6001 34.0009 33.2346 34.1522C32.8692 34.3036 32.5568 34.56 32.3371 34.8889C32.1173 35.2178 32 35.6044 32 36C32 36.5304 32.2107 37.0391 32.5858 37.4142C32.9609 37.7893 33.4696 38 34 38ZM34 30C34.3956 30 34.7822 29.8827 35.1111 29.6629C35.44 29.4432 35.6964 29.1308 35.8478 28.7654C35.9991 28.3999 36.0387 27.9978 35.9616 27.6098C35.8844 27.2219 35.6939 26.8655 35.4142 26.5858C35.1345 26.3061 34.7781 26.1156 34.3902 26.0384C34.0022 25.9613 33.6001 26.0009 33.2346 26.1522C32.8692 26.3036 32.5568 26.56 32.3371 26.8889C32.1173 27.2178 32 27.6044 32 28C32 28.5304 32.2107 29.0391 32.5858 29.4142C32.9609 29.7893 33.4696 30 34 30ZM24 30C24.3956 30 24.7822 29.8827 25.1111 29.6629C25.44 29.4432 25.6964 29.1308 25.8478 28.7654C25.9991 28.3999 26.0387 27.9978 25.9616 27.6098C25.8844 27.2219 25.6939 26.8655 25.4142 26.5858C25.1345 26.3061 24.7781 26.1156 24.3902 26.0384C24.0022 25.9613 23.6001 26.0009 23.2346 26.1522C22.8692 26.3036 22.5568 26.56 22.3371 26.8889C22.1173 27.2178 22 27.6044 22 28C22 28.5304 22.2107 29.0391 22.5858 29.4142C22.9609 29.7893 23.4696 30 24 30ZM38 6H36V4C36 3.46957 35.7893 2.96086 35.4142 2.58579C35.0391 2.21071 34.5304 2 34 2C33.4696 2 32.9609 2.21071 32.5858 2.58579C32.2107 2.96086 32 3.46957 32 4V6L16 6V4C16 3.46957 15.7893 2.96086 15.4142 2.58579C15.0391 2.21071 14.5304 2 14 2C13.4696 2 12.9609 2.21071 12.5858 2.58579C12.2107 2.96086 12 3.46957 12 4V6H10C8.4087 6 6.88258 6.63214 5.75736 7.75736C4.63214 8.88258 4 10.4087 4 12L4 40C4 41.5913 4.63214 43.1174 5.75736 44.2426C6.88258 45.3679 8.4087 46 10 46H38C39.5913 46 41.1174 45.3679 42.2426 44.2426C43.3679 43.1174 44 41.5913 44 40V12C44 10.4087 43.3679 8.88258 42.2426 7.75736C41.1174 6.63214 39.5913 6 38 6ZM40 40C40 40.5304 39.7893 41.0391 39.4142 41.4142C39.0391 41.7893 38.5304 42 38 42H10C9.46957 42 8.96086 41.7893 8.58579 41.4142C8.21071 41.0391 8 40.5304 8 40V22H40V40ZM40 18H8V12C8 11.4696 8.21071 10.9609 8.58579 10.5858C8.96086 10.2107 9.46957 10 10 10H12V12C12 12.5304 12.2107 13.0391 12.5858 13.4142C12.9609 13.7893 13.4696 14 14 14C14.5304 14 15.0391 13.7893 15.4142 13.4142C15.7893 13.0391 16 12.5304 16 12V10H32V12C32 12.5304 32.2107 13.0391 32.5858 13.4142C32.9609 13.7893 33.4696 14 34 14C34.5304 14 35.0391 13.7893 35.4142 13.4142C35.7893 13.0391 36 12.5304 36 12V10H38C38.5304 10 39.0391 10.2107 39.4142 10.5858C39.7893 10.9609 40 11.4696 40 12V18ZM14 30C14.3956 30 14.7822 29.8827 15.1111 29.6629C15.44 29.4432 15.6964 29.1308 15.8478 28.7654C15.9991 28.3999 16.0387 27.9978 15.9616 27.6098C15.8844 27.2219 15.6939 26.8655 15.4142 26.5858C15.1345 26.3061 14.7781 26.1156 14.3902 26.0384C14.0022 25.9613 13.6001 26.0009 13.2346 26.1522C12.8692 26.3036 12.5568 26.56 12.3371 26.8889C12.1173 27.2178 12 27.6044 12 28C12 28.5304 12.2107 29.0391 12.5858 29.4142C12.9609 29.7893 13.4696 30 14 30ZM14 38C14.3956 38 14.7822 37.8827 15.1111 37.6629C15.44 37.4432 15.6964 37.1308 15.8478 36.7654C15.9991 36.3999 16.0387 35.9978 15.9616 35.6098C15.8844 35.2219 15.6939 34.8655 15.4142 34.5858C15.1345 34.3061 14.7781 34.1156 14.3902 34.0384C14.0022 33.9613 13.6001 34.0009 13.2346 34.1522C12.8692 34.3036 12.5568 34.56 12.3371 34.8889C12.1173 35.2178 12 35.6044 12 36C12 36.5304 12.2107 37.0391 12.5858 37.4142C12.9609 37.7893 13.4696 38 14 38Z" fill="#2E3747"/>
</svg>
