<svg width="32" height="32" viewBox="0 0 32 32" fill="none" xmlns="http://www.w3.org/2000/svg">
<path d="M12.6668 14H16.0001C16.3537 14 16.6929 13.8595 16.9429 13.6095C17.1929 13.3594 17.3334 13.0203 17.3334 12.6667C17.3334 12.3131 17.1929 11.9739 16.9429 11.7239C16.6929 11.4738 16.3537 11.3333 16.0001 11.3333H14.6668V10.6667C14.6668 10.3131 14.5263 9.97392 14.2762 9.72387C14.0262 9.47382 13.687 9.33334 13.3334 9.33334C12.9798 9.33334 12.6407 9.47382 12.3906 9.72387C12.1406 9.97392 12.0001 10.3131 12.0001 10.6667V11.4C11.19 11.5645 10.4699 12.0241 9.97963 12.6897C9.48936 13.3552 9.26388 14.1792 9.34695 15.0017C9.43003 15.8241 9.81574 16.5864 10.4292 17.1404C11.0427 17.6945 11.8401 18.0008 12.6668 18H14.0001C14.1769 18 14.3465 18.0702 14.4715 18.1953C14.5965 18.3203 14.6668 18.4899 14.6668 18.6667C14.6668 18.8435 14.5965 19.0131 14.4715 19.1381C14.3465 19.2631 14.1769 19.3333 14.0001 19.3333H10.6668C10.3131 19.3333 9.974 19.4738 9.72395 19.7239C9.4739 19.9739 9.33343 20.3131 9.33343 20.6667C9.33343 21.0203 9.4739 21.3594 9.72395 21.6095C9.974 21.8595 10.3131 22 10.6668 22H12.0001V22.6667C12.0001 23.0203 12.1406 23.3594 12.3906 23.6095C12.6407 23.8595 12.9798 24 13.3334 24C13.687 24 14.0262 23.8595 14.2762 23.6095C14.5263 23.3594 14.6668 23.0203 14.6668 22.6667V21.9333C15.4769 21.7688 16.1969 21.3092 16.6872 20.6437C17.1775 19.9781 17.403 19.1541 17.3199 18.3317C17.2368 17.5092 16.8511 16.747 16.2376 16.1929C15.6242 15.6389 14.8267 15.3325 14.0001 15.3333H12.6668C12.4899 15.3333 12.3204 15.2631 12.1954 15.1381C12.0703 15.0131 12.0001 14.8435 12.0001 14.6667C12.0001 14.4899 12.0703 14.3203 12.1954 14.1953C12.3204 14.0702 12.4899 14 12.6668 14ZM28.0001 16H24.0001V4.00001C24.001 3.76506 23.9399 3.53404 23.8228 3.33034C23.7057 3.12663 23.5369 2.95748 23.3334 2.84001C23.1307 2.72299 22.9008 2.66138 22.6668 2.66138C22.4327 2.66138 22.2028 2.72299 22.0001 2.84001L18.0001 5.13334L14.0001 2.84001C13.7974 2.72299 13.5675 2.66138 13.3334 2.66138C13.0994 2.66138 12.8695 2.72299 12.6668 2.84001L8.66676 5.13334L4.66676 2.84001C4.46407 2.72299 4.23414 2.66138 4.00009 2.66138C3.76604 2.66138 3.53612 2.72299 3.33343 2.84001C3.12995 2.95748 2.96113 3.12663 2.84406 3.33034C2.72699 3.53404 2.66583 3.76506 2.66676 4.00001L2.66676 25.3333C2.66676 26.3942 3.08819 27.4116 3.83833 28.1618C4.58848 28.9119 5.60589 29.3333 6.66676 29.3333H25.3334C26.3943 29.3333 27.4117 28.9119 28.1619 28.1618C28.912 27.4116 29.3334 26.3942 29.3334 25.3333V17.3333C29.3334 16.9797 29.1929 16.6406 28.9429 16.3905C28.6929 16.1405 28.3537 16 28.0001 16ZM6.66676 26.6667C6.31314 26.6667 5.974 26.5262 5.72395 26.2762C5.4739 26.0261 5.33343 25.687 5.33343 25.3333V6.30668L8.00009 7.82668C8.20588 7.93416 8.4346 7.99029 8.66676 7.99029C8.89892 7.99029 9.12764 7.93416 9.33343 7.82668L13.3334 5.53334L17.3334 7.82668C17.5392 7.93416 17.7679 7.99029 18.0001 7.99029C18.2323 7.99029 18.461 7.93416 18.6668 7.82668L21.3334 6.30668V25.3333C21.337 25.7882 21.4182 26.2391 21.5734 26.6667H6.66676ZM26.6668 25.3333C26.6668 25.687 26.5263 26.0261 26.2762 26.2762C26.0262 26.5262 25.687 26.6667 25.3334 26.6667C24.9798 26.6667 24.6407 26.5262 24.3906 26.2762C24.1406 26.0261 24.0001 25.687 24.0001 25.3333V18.6667H26.6668V25.3333Z" fill="#728095"/>
</svg>
