<svg width="48" height="48" viewBox="0 0 48 48" fill="none" xmlns="http://www.w3.org/2000/svg">
<path d="M36 9.99998H38V12C38 12.5304 38.2107 13.0391 38.5858 13.4142C38.9609 13.7893 39.4696 14 40 14C40.5304 14 41.0392 13.7893 41.4142 13.4142C41.7893 13.0391 42 12.5304 42 12V9.99998H44C44.5304 9.99998 45.0392 9.78927 45.4142 9.4142C45.7893 9.03912 46 8.53042 46 7.99998C46 7.46955 45.7893 6.96084 45.4142 6.58577C45.0392 6.2107 44.5304 5.99998 44 5.99998H42V3.99998C42 3.46955 41.7893 2.96084 41.4142 2.58577C41.0392 2.2107 40.5304 1.99998 40 1.99998C39.4696 1.99998 38.9609 2.2107 38.5858 2.58577C38.2107 2.96084 38 3.46955 38 3.99998V5.99998H36C35.4696 5.99998 34.9609 6.2107 34.5858 6.58577C34.2107 6.96084 34 7.46955 34 7.99998C34 8.53042 34.2107 9.03912 34.5858 9.4142C34.9609 9.78927 35.4696 9.99998 36 9.99998ZM22 18V30C22 31.5913 22.6321 33.1174 23.7574 34.2426C24.8826 35.3678 26.4087 36 28 36H30C31.5913 36 33.1174 35.3678 34.2427 34.2426C35.3679 33.1174 36 31.5913 36 30V18C36 16.4087 35.3679 14.8826 34.2427 13.7573C33.1174 12.6321 31.5913 12 30 12H28C26.4087 12 24.8826 12.6321 23.7574 13.7573C22.6321 14.8826 22 16.4087 22 18V18ZM32 18V30C32 30.5304 31.7893 31.0391 31.4142 31.4142C31.0391 31.7893 30.5304 32 30 32H28C27.4696 32 26.9609 31.7893 26.5858 31.4142C26.2107 31.0391 26 30.5304 26 30V18C26 17.4696 26.2107 16.9608 26.5858 16.5858C26.9609 16.2107 27.4696 16 28 16H30C30.5304 16 31.0391 16.2107 31.4142 16.5858C31.7893 16.9608 32 17.4696 32 18ZM43.2 18C42.9426 18.0525 42.698 18.1551 42.4803 18.3022C42.2626 18.4492 42.076 18.6376 41.9311 18.8568C41.7862 19.076 41.686 19.3215 41.636 19.5794C41.5861 19.8374 41.5874 20.1026 41.64 20.36C42.4209 24.1524 41.9581 28.0955 40.3202 31.604C38.6824 35.1126 35.9569 37.9994 32.5483 39.8361C29.1397 41.6728 25.2296 42.3614 21.3986 41.7997C17.5676 41.238 14.0198 39.4559 11.2819 36.7181C8.54404 33.9802 6.76198 30.4324 6.20028 26.6014C5.63857 22.7704 6.32718 18.8603 8.16387 15.4517C10.0006 12.0431 12.8874 9.31758 16.396 7.67975C19.9045 6.04193 23.8476 5.57911 27.64 6.35998C28.1704 6.46607 28.7213 6.3571 29.1714 6.05704C29.6215 5.75698 29.9339 5.29042 30.04 4.75998C30.1461 4.22955 30.0371 3.6787 29.7371 3.22861C29.437 2.77853 28.9704 2.46607 28.44 2.35998C26.9764 2.08729 25.4885 1.96665 24 1.99998C19.6488 1.99998 15.3953 3.29026 11.7775 5.70765C8.15958 8.12504 5.33979 11.561 3.67466 15.5809C2.00953 19.6009 1.57386 24.0244 2.42273 28.292C3.27161 32.5596 5.36691 36.4796 8.44366 39.5563C11.5204 42.6331 15.4404 44.7284 19.708 45.5773C23.9756 46.4261 28.3991 45.9905 32.419 44.3253C36.439 42.6602 39.875 39.8404 42.2923 36.2225C44.7097 32.6046 46 28.3512 46 24C46.0043 22.5221 45.8568 21.0477 45.56 19.6C45.5121 19.339 45.4127 19.0901 45.2677 18.8679C45.1227 18.6457 44.9348 18.4545 44.7152 18.3056C44.4955 18.1567 44.2484 18.053 43.9883 18.0005C43.7282 17.948 43.4602 17.9479 43.2 18ZM14 14L14 34C14 34.5304 14.2107 35.0391 14.5858 35.4142C14.9609 35.7893 15.4696 36 16 36C16.5304 36 17.0391 35.7893 17.4142 35.4142C17.7893 35.0391 18 34.5304 18 34V14C18 13.4696 17.7893 12.9608 17.4142 12.5858C17.0391 12.2107 16.5304 12 16 12C15.4696 12 14.9609 12.2107 14.5858 12.5858C14.2107 12.9608 14 13.4696 14 14Z" fill="#1963CC"/>
</svg>
