<svg width="48" height="48" viewBox="0 0 48 48" fill="none" xmlns="http://www.w3.org/2000/svg">
<path d="M39.9999 19.34V19C40.012 15.5979 38.9326 12.2816 36.9202 9.53846C34.9079 6.7953 32.0687 4.76995 28.8199 3.76003H28.6999C27.022 3.2485 25.2737 3.0055 23.5199 3.04003C19.3435 3.26921 15.4121 5.08353 12.5279 8.11268C9.64368 11.1418 8.02417 15.1575 7.99989 19.34C6.82791 19.7523 5.81281 20.5182 5.09472 21.5321C4.37663 22.5459 3.99097 23.7576 3.99097 25C3.99097 26.2424 4.37663 27.4542 5.09472 28.468C5.81281 29.4818 6.82791 30.2477 7.99989 30.66C8.41182 34.6096 10.2777 38.2648 13.2348 40.9152C16.192 43.5655 20.029 45.0215 23.9999 45H24.4599C28.2998 44.8142 31.9497 43.2737 34.7616 40.6522C37.5736 38.0306 39.3657 34.4975 39.8199 30.68C41.0057 30.2911 42.0406 29.542 42.7807 28.5373C43.5208 27.5325 43.9292 26.3219 43.949 25.0741C43.9688 23.8264 43.5991 22.6035 42.8912 21.5757C42.1834 20.5479 41.1727 19.7664 39.9999 19.34V19.34ZM24.3599 41C21.4647 41.0838 18.6369 40.1175 16.3983 38.2796C14.1597 36.4417 12.6614 33.8561 12.1799 31H35.7199C35.2318 33.7038 33.8438 36.1632 31.7815 37.9786C29.7193 39.794 27.1037 40.8588 24.3599 41ZM37.9999 27H9.99989C9.46945 27 8.96075 26.7893 8.58567 26.4142C8.2106 26.0392 7.99989 25.5305 7.99989 25C7.99989 24.4696 8.2106 23.9609 8.58567 23.5858C8.96075 23.2107 9.46945 23 9.99989 23H13.9999C14.5303 23 15.039 22.7893 15.4141 22.4142C15.7892 22.0392 15.9999 21.5305 15.9999 21C15.9999 20.4696 15.7892 19.9609 15.4141 19.5858C15.039 19.2107 14.5303 19 13.9999 19H11.9999C12.0894 16.9253 12.6824 14.9034 13.7277 13.109C14.773 11.3145 16.2393 9.80135 17.9999 8.70003V15C17.9999 15.5305 18.2106 16.0392 18.5857 16.4142C18.9607 16.7893 19.4695 17 19.9999 17C20.5303 17 21.039 16.7893 21.4141 16.4142C21.7892 16.0392 21.9999 15.5305 21.9999 15V7.18003C22.5427 7.08933 23.0903 7.02924 23.6399 7.00003H23.9999C24.6701 7.00947 25.3387 7.06964 25.9999 7.18003V15C25.9999 15.5305 26.2106 16.0392 26.5857 16.4142C26.9607 16.7893 27.4695 17 27.9999 17C28.5303 17 29.039 16.7893 29.4141 16.4142C29.7892 16.0392 29.9999 15.5305 29.9999 15V8.64003C30.8483 9.13128 31.6398 9.71482 32.3599 10.38C33.513 11.4998 34.4294 12.8399 35.0547 14.3206C35.68 15.8014 36.0014 17.3927 35.9999 19H33.9999C33.4695 19 32.9607 19.2107 32.5857 19.5858C32.2106 19.9609 31.9999 20.4696 31.9999 21C31.9999 21.5305 32.2106 22.0392 32.5857 22.4142C32.9607 22.7893 33.4695 23 33.9999 23H37.9999C38.5303 23 39.039 23.2107 39.4141 23.5858C39.7892 23.9609 39.9999 24.4696 39.9999 25C39.9999 25.5305 39.7892 26.0392 39.4141 26.4142C39.039 26.7893 38.5303 27 37.9999 27Z" fill="#1963CC"/>
</svg>
