<svg width="32" height="32" viewBox="0 0 32 32" fill="none" xmlns="http://www.w3.org/2000/svg">
<path d="M28.0001 18.6667H26.6667V4.00008C26.6667 3.64646 26.5263 3.30732 26.2762 3.05727C26.0262 2.80722 25.687 2.66675 25.3334 2.66675L6.66675 2.66675C6.31313 2.66675 5.97399 2.80722 5.72394 3.05727C5.47389 3.30732 5.33341 3.64646 5.33341 4.00008V18.6667H4.00008C3.64646 18.6667 3.30732 18.8072 3.05727 19.0573C2.80722 19.3073 2.66675 19.6465 2.66675 20.0001C2.66675 20.3537 2.80722 20.6928 3.05727 20.9429C3.30732 21.1929 3.64646 21.3334 4.00008 21.3334H14.6667V22.8667L8.60008 26.8667C8.35119 27.0208 8.15992 27.2525 8.05577 27.5261C7.95163 27.7996 7.94039 28.0998 8.02381 28.3804C8.10722 28.661 8.28065 28.9063 8.51733 29.0786C8.75401 29.2508 9.04078 29.3403 9.33341 29.3334C9.59555 29.3364 9.85202 29.2571 10.0667 29.1067L14.6667 26.0667V28.0001C14.6667 28.3537 14.8072 28.6928 15.0573 28.9429C15.3073 29.1929 15.6465 29.3334 16.0001 29.3334C16.3537 29.3334 16.6928 29.1929 16.9429 28.9429C17.1929 28.6928 17.3334 28.3537 17.3334 28.0001V26.0667L21.9334 29.1067C22.1481 29.2571 22.4046 29.3364 22.6667 29.3334C22.9516 29.3312 23.2283 29.2378 23.4562 29.067C23.6842 28.8961 23.8514 28.6567 23.9334 28.3839C24.0154 28.1111 24.0078 27.8192 23.9119 27.5509C23.8159 27.2827 23.6365 27.0523 23.4001 26.8934L17.3334 22.8934V21.3334H28.0001C28.3537 21.3334 28.6928 21.1929 28.9429 20.9429C29.1929 20.6928 29.3334 20.3537 29.3334 20.0001C29.3334 19.6465 29.1929 19.3073 28.9429 19.0573C28.6928 18.8072 28.3537 18.6667 28.0001 18.6667ZM24.0001 18.6667H8.00008V5.33341H24.0001V18.6667ZM12.0001 16.0001C12.2197 15.9989 12.4356 15.9436 12.6287 15.8389C12.8217 15.7342 12.986 15.5835 13.1067 15.4001L14.8801 12.7334L16.3867 14.2534C16.5266 14.3942 16.6962 14.5019 16.883 14.5688C17.0699 14.6357 17.2693 14.6601 17.4667 14.6401C17.6633 14.6185 17.8527 14.5535 18.021 14.4497C18.1893 14.3459 18.3325 14.206 18.4401 14.0401L21.1067 10.0401C21.2638 9.74732 21.3059 9.40649 21.2248 9.08432C21.1437 8.76216 20.9452 8.48187 20.6683 8.29836C20.3914 8.11485 20.0559 8.04134 19.7276 8.09221C19.3993 8.14309 19.1018 8.31469 18.8934 8.57341L17.1201 11.2401L15.6134 9.72008C15.4735 9.57932 15.304 9.47156 15.1171 9.40466C14.9303 9.33777 14.7309 9.31343 14.5334 9.33341C14.3368 9.35498 14.1475 9.42001 13.9792 9.52378C13.8108 9.62756 13.6677 9.76748 13.5601 9.93341L10.8934 13.9334C10.7004 14.2274 10.6314 14.5857 10.7013 14.9303C10.7712 15.2749 10.9745 15.5779 11.2667 15.7734C11.4815 15.9238 11.7379 16.0031 12.0001 16.0001V16.0001Z" fill="#728095"/>
</svg>
