<svg width="151" height="40" viewBox="0 0 151 40" fill="none" xmlns="http://www.w3.org/2000/svg">
<path d="M37.6976 23.5581H39.901V34.2918H37.6976V23.5581Z" fill="#728095"/>
<path d="M41.1791 30.6143C41.1776 29.8434 41.4064 29.0892 41.8365 28.4475C42.2665 27.8057 42.8786 27.3052 43.5951 27.0091C44.3116 26.7131 45.1005 26.6349 45.8618 26.7844C46.6231 26.934 47.3226 27.3045 47.8718 27.8492C48.4211 28.3938 48.7954 29.0881 48.9473 29.8441C49.0993 30.6002 49.022 31.384 48.7254 32.0965C48.4287 32.8089 47.926 33.4178 47.2809 33.8463C46.6358 34.2749 45.8772 34.5035 45.1012 34.5035C44.585 34.5094 44.073 34.4129 43.595 34.2195C43.117 34.0263 42.6826 33.7401 42.3173 33.3779C41.952 33.0157 41.6632 32.5847 41.4677 32.1101C41.2723 31.6355 41.1741 31.127 41.1791 30.6143ZM46.8051 30.6143C46.7964 30.2815 46.6892 29.9586 46.4968 29.686C46.3043 29.4134 46.0353 29.2033 45.7232 29.0818C45.4112 28.9604 45.0701 28.9331 44.7425 29.0032C44.4149 29.0734 44.1155 29.238 43.8815 29.4764C43.6476 29.7148 43.4897 30.0164 43.4274 30.3436C43.3651 30.6707 43.4014 31.0089 43.5315 31.3156C43.6617 31.6224 43.88 31.8843 44.1592 32.0684C44.4384 32.2526 44.766 32.3509 45.1012 32.3509C45.3304 32.3573 45.5585 32.3165 45.7711 32.2308C45.9837 32.1452 46.1761 32.0168 46.3362 31.8536C46.4963 31.6904 46.6207 31.4961 46.7013 31.2828C46.7821 31.0694 46.8174 30.8419 46.8051 30.6143Z" fill="#728095"/>
<path d="M57.8809 26.9365V33.9269C57.8809 36.4006 55.9345 37.4441 53.9662 37.4441C53.274 37.4952 52.581 37.3561 51.963 37.0421C51.3451 36.7281 50.8261 36.2511 50.4628 35.6636L52.3577 34.5764C52.508 34.8775 52.746 35.1268 53.0406 35.292C53.3352 35.4572 53.673 35.5308 54.0103 35.5031C54.2321 35.5398 54.4595 35.5255 54.675 35.461C54.8904 35.3967 55.088 35.284 55.2527 35.1317C55.4173 34.9794 55.5445 34.7915 55.6246 34.5827C55.7046 34.3738 55.7352 34.1495 55.7142 33.9269V33.2483C55.4552 33.565 55.1246 33.8165 54.7495 33.9826C54.3743 34.1486 53.9651 34.2246 53.5549 34.2043C52.5575 34.2043 51.6011 33.8106 50.8958 33.11C50.1905 32.4094 49.7943 31.4591 49.7943 30.4682C49.7943 29.4773 50.1905 28.5271 50.8958 27.8265C51.6011 27.1259 52.5575 26.7322 53.5549 26.7322C53.9648 26.7136 54.3735 26.7903 54.7484 26.9562C55.1233 27.1222 55.454 27.3728 55.7142 27.6881V26.9584L57.8809 26.9365ZM55.7142 30.4682C55.7289 30.1134 55.6363 29.7622 55.4486 29.46C55.2607 29.1577 54.9862 28.9182 54.6603 28.7722C54.3344 28.6262 53.972 28.5804 53.6197 28.6406C53.2673 28.7008 52.9412 28.8644 52.6832 29.1102C52.4251 29.3561 52.247 29.673 52.1717 30.0202C52.0964 30.3674 52.1273 30.7291 52.2605 31.0586C52.3938 31.3883 52.6232 31.6707 52.9193 31.8698C53.2154 32.0689 53.5646 32.1754 53.9221 32.1757C54.1555 32.1921 54.3897 32.1598 54.6096 32.0807C54.8297 32.0017 55.0306 31.8778 55.1994 31.7169C55.3682 31.5561 55.5013 31.3618 55.59 31.1467C55.6786 30.9317 55.7209 30.7006 55.7142 30.4682Z" fill="#728095"/>
<path d="M59.1515 30.6143C59.15 29.8434 59.3789 29.0892 59.8089 28.4475C60.239 27.8057 60.8511 27.3052 61.5676 27.0091C62.2841 26.7131 63.0729 26.6349 63.8342 26.7844C64.5955 26.934 65.2951 27.3045 65.8443 27.8492C66.3935 28.3938 66.7678 29.0881 66.9198 29.8441C67.0717 30.6002 66.9945 31.384 66.6978 32.0965C66.4012 32.8089 65.8985 33.4178 65.2534 33.8463C64.6082 34.2749 63.8496 34.5035 63.0736 34.5035C62.5576 34.5094 62.0455 34.4129 61.5674 34.2195C61.0894 34.0263 60.655 33.7401 60.2897 33.3779C59.9245 33.0157 59.6356 32.5847 59.4402 32.1101C59.2447 31.6355 59.1465 31.127 59.1515 30.6143ZM64.7776 30.6143C64.7689 30.2815 64.6616 29.9586 64.4692 29.686C64.2768 29.4134 64.0077 29.2033 63.6957 29.0818C63.3837 28.9604 63.0426 28.9331 62.715 29.0032C62.3874 29.0734 62.0879 29.238 61.854 29.4764C61.6201 29.7148 61.4621 30.0164 61.3998 30.3436C61.3376 30.6707 61.3738 31.0089 61.504 31.3156C61.6342 31.6224 61.8525 31.8843 62.1316 32.0684C62.4109 32.2526 62.7385 32.3509 63.0736 32.3509C63.3017 32.3553 63.5282 32.3129 63.739 32.2264C63.9498 32.1398 64.1404 32.0111 64.299 31.8481C64.4575 31.6852 64.5804 31.4915 64.6603 31.2792C64.7401 31.067 64.775 30.8406 64.7629 30.6143H64.7776Z" fill="#728095"/>
<path d="M68.0168 24.9667C68.0168 24.704 68.0952 24.4473 68.242 24.2289C68.389 24.0105 68.5977 23.8403 68.8419 23.7398C69.0862 23.6392 69.355 23.613 69.6143 23.6642C69.8736 23.7154 70.1118 23.8419 70.2987 24.0276C70.4857 24.2134 70.613 24.45 70.6645 24.7076C70.7162 24.9652 70.6897 25.2323 70.5885 25.4749C70.4874 25.7176 70.316 25.925 70.0962 26.0709C69.8763 26.2168 69.6179 26.2947 69.3535 26.2947C68.9996 26.2929 68.6607 26.1523 68.4104 25.9036C68.1601 25.655 68.0187 25.3184 68.0168 24.9667ZM68.2444 26.9368H70.4478V34.2921H68.2444V26.9368Z" fill="#728095"/>
<path d="M80.0546 30.6142C80.0812 31.1004 80.0109 31.587 79.8476 32.0461C79.6842 32.5052 79.4311 32.9276 79.1027 33.2891C78.7743 33.6506 78.3773 33.944 77.9343 34.1524C77.4914 34.3608 77.0113 34.4801 76.5218 34.5034C76.1108 34.523 75.7004 34.4528 75.3198 34.2977C74.939 34.1427 74.5972 33.9065 74.3183 33.6059V37.2544H72.1149V26.9365H74.3183V27.6297C74.5972 27.3291 74.939 27.093 75.3198 26.9379C75.7004 26.7828 76.1108 26.7127 76.5218 26.7322C77.0107 26.7555 77.4901 26.8746 77.9325 27.0826C78.375 27.2906 78.7718 27.5833 79.1 27.944C79.4283 28.3047 79.6815 28.7262 79.8453 29.1845C80.0092 29.6427 80.0803 30.1286 80.0546 30.6142ZM77.8512 30.6142C77.8425 30.2717 77.7328 29.9393 77.5358 29.6581C77.3388 29.3769 77.0631 29.1593 76.7429 29.0322C76.4227 28.9051 76.0719 28.8741 75.7342 28.9431C75.3964 29.0121 75.0863 29.178 74.8425 29.4202C74.5987 29.6625 74.4318 29.9704 74.3623 30.306C74.2929 30.6416 74.3241 30.99 74.452 31.3081C74.5799 31.6263 74.7989 31.9002 75.082 32.0959C75.365 32.2916 75.6996 32.4005 76.0443 32.4092C76.2849 32.4244 76.526 32.3883 76.7514 32.3033C76.9767 32.2182 77.1811 32.0862 77.3509 31.9162C77.5206 31.7461 77.6518 31.542 77.7356 31.3174C77.8193 31.0929 77.8537 30.8531 77.8365 30.6142H77.8512Z" fill="#728095"/>
<path d="M86.9146 32.0884C86.9146 33.7813 85.4456 34.5037 83.8298 34.5037C83.1843 34.5605 82.5364 34.424 81.9697 34.1119C81.403 33.7998 80.9431 33.3263 80.6495 32.7524L82.5739 31.6652C82.6519 31.9306 82.8192 32.1615 83.0476 32.3195C83.2761 32.4774 83.5521 32.553 83.8298 32.5335C84.366 32.5335 84.6303 32.3657 84.6303 32.0738C84.6303 31.2639 80.958 31.6944 80.958 29.1551C80.958 27.5497 82.3241 26.7398 83.8959 26.7398C84.4759 26.7223 85.05 26.8592 85.5589 27.1363C86.0677 27.4134 86.4926 27.8207 86.7897 28.3159L84.8581 29.3229C84.7727 29.1302 84.6329 28.9662 84.4556 28.8509C84.2782 28.7356 84.0711 28.674 83.8592 28.6734C83.4773 28.6734 83.2422 28.8194 83.2422 29.0894C83.2716 29.9285 86.9146 29.3667 86.9146 32.0884Z" fill="#728095"/>
<path d="M95.0232 26.9365V34.2918H92.8197V33.6059C92.5634 33.9107 92.2382 34.1509 91.8705 34.3069C91.5029 34.4629 91.1033 34.5302 90.7044 34.5035C89.2355 34.5035 87.9355 33.4454 87.9355 31.4533V26.9365H90.1389V31.1323C90.1195 31.3111 90.1406 31.4919 90.2003 31.6617C90.26 31.8314 90.357 31.9858 90.4843 32.1137C90.6116 32.2416 90.766 32.3397 90.9362 32.4009C91.1063 32.4621 91.2882 32.4849 91.4683 32.4676C92.2763 32.4676 92.8418 32.0006 92.8418 30.9572V26.9365H95.0232Z" fill="#728095"/>
<path d="M107.759 29.7823V34.2918H105.555V29.9721C105.555 29.2424 105.195 28.7608 104.49 28.7608C103.785 28.7608 103.33 29.2789 103.33 30.1472V34.2918H101.126V29.9721C101.126 29.2424 100.774 28.7608 100.061 28.7608C99.3491 28.7608 98.9084 29.2789 98.9084 30.1472V34.2918H96.705V26.9366H98.9084V27.6152C99.1387 27.3155 99.4407 27.0777 99.7871 26.9235C100.133 26.7693 100.513 26.7035 100.891 26.7323C101.271 26.7139 101.65 26.7937 101.99 26.9637C102.329 27.1338 102.619 27.3884 102.83 27.7028C103.076 27.3741 103.402 27.1127 103.777 26.943C104.152 26.7733 104.564 26.7008 104.975 26.7323C106.65 26.7323 107.759 27.9435 107.759 29.7823Z" fill="#728095"/>
<path d="M109.639 26.893C110.548 26.893 111.284 26.1612 111.284 25.2585C111.284 24.3558 110.548 23.624 109.639 23.624C108.731 23.624 107.994 24.3558 107.994 25.2585C107.994 26.1612 108.731 26.893 109.639 26.893Z" fill="#728095"/>
<path d="M62.6329 17.9906C66.8881 17.9906 70.3375 14.5635 70.3375 10.3361C70.3375 6.10865 66.8881 2.68164 62.6329 2.68164C58.3778 2.68164 54.9283 6.10865 54.9283 10.3361C54.9283 14.5635 58.3778 17.9906 62.6329 17.9906Z" fill="#728095"/>
<path d="M79.8563 17.9906C84.1115 17.9906 87.5609 14.5635 87.5609 10.3361C87.5609 6.10865 84.1115 2.68164 79.8563 2.68164C75.6012 2.68164 72.1517 6.10865 72.1517 10.3361C72.1517 14.5635 75.6012 17.9906 79.8563 17.9906Z" fill="#728095"/>
<path d="M53.1141 2.68164H37.7123V17.9832H53.1141V2.68164Z" fill="#728095"/>
</svg>
