<svg width="151" height="40" viewBox="0 0 151 40" fill="none" xmlns="http://www.w3.org/2000/svg">
<path d="M37.8336 23.5583H40.037V34.2921H37.8336V23.5583Z" fill="#728095"/>
<path d="M41.315 30.6143C41.3135 29.8434 41.5423 29.0892 41.9724 28.4475C42.4025 27.8057 43.0145 27.3052 43.7311 27.0091C44.4476 26.7131 45.2364 26.6349 45.9977 26.7844C46.759 26.934 47.4586 27.3045 48.0078 27.8492C48.557 28.3938 48.9313 29.0881 49.0832 29.8441C49.2352 30.6002 49.158 31.384 48.8613 32.0965C48.5647 32.8089 48.062 33.4178 47.4168 33.8463C46.7717 34.2749 46.0131 34.5035 45.2371 34.5035C44.721 34.5094 44.2089 34.4129 43.7309 34.2195C43.2529 34.0263 42.8185 33.7401 42.4532 33.3779C42.0879 33.0157 41.7991 32.5847 41.6037 32.1101C41.4082 31.6355 41.3101 31.127 41.315 30.6143ZM46.941 30.6143C46.9324 30.2815 46.8251 29.9586 46.6327 29.686C46.4403 29.4134 46.1712 29.2033 45.8592 29.0818C45.5471 28.9604 45.206 28.9331 44.8785 29.0032C44.5509 29.0734 44.2514 29.238 44.0175 29.4764C43.7836 29.7148 43.6256 30.0164 43.5633 30.3436C43.5011 30.6707 43.5373 31.0089 43.6674 31.3156C43.7977 31.6224 44.016 31.8843 44.2951 32.0684C44.5744 32.2526 44.902 32.3509 45.2371 32.3509C45.4663 32.3573 45.6945 32.3165 45.907 32.2308C46.1196 32.1452 46.312 32.0168 46.4722 31.8536C46.6322 31.6904 46.7566 31.4961 46.8373 31.2828C46.918 31.0694 46.9533 30.8419 46.941 30.6143Z" fill="#728095"/>
<path d="M58.0168 26.9365V33.9269C58.0168 36.4006 56.0705 37.4441 54.1021 37.4441C53.41 37.4952 52.717 37.3561 52.099 37.0421C51.4811 36.7281 50.962 36.2511 50.5987 35.6636L52.4937 34.5764C52.644 34.8775 52.8819 35.1268 53.1766 35.292C53.4712 35.4572 53.809 35.5308 54.1462 35.5031C54.3681 35.5398 54.5955 35.5255 54.8109 35.461C55.0264 35.3967 55.224 35.284 55.3887 35.1317C55.5533 34.9794 55.6805 34.7915 55.7605 34.5827C55.8406 34.3738 55.8712 34.1495 55.8501 33.9269V33.2483C55.5911 33.565 55.2606 33.8165 54.8855 33.9826C54.5103 34.1486 54.101 34.2246 53.6908 34.2043C52.6935 34.2043 51.737 33.8106 51.0317 33.11C50.3265 32.4094 49.9303 31.4591 49.9303 30.4682C49.9303 29.4773 50.3265 28.5271 51.0317 27.8265C51.737 27.1259 52.6935 26.7322 53.6908 26.7322C54.1008 26.7136 54.5095 26.7903 54.8844 26.9562C55.2593 27.1222 55.59 27.3728 55.8501 27.6881V26.9584L58.0168 26.9365ZM55.8501 30.4682C55.8648 30.1134 55.7723 29.7622 55.5845 29.46C55.3967 29.1577 55.1222 28.9182 54.7963 28.7722C54.4704 28.6262 54.108 28.5804 53.7556 28.6406C53.4033 28.7008 53.0772 28.8644 52.8192 29.1102C52.5611 29.3561 52.383 29.673 52.3077 30.0202C52.2323 30.3674 52.2633 30.7291 52.3965 31.0586C52.5298 31.3883 52.7591 31.6707 53.0552 31.8698C53.3513 32.0689 53.7006 32.1754 54.058 32.1757C54.2915 32.1921 54.5256 32.1598 54.7456 32.0807C54.9656 32.0017 55.1665 31.8778 55.3354 31.7169C55.5042 31.5561 55.6373 31.3618 55.7259 31.1467C55.8146 30.9317 55.8569 30.7006 55.8501 30.4682Z" fill="#728095"/>
<path d="M59.2875 30.6143C59.2861 29.8434 59.5149 29.0892 59.9449 28.4475C60.375 27.8057 60.9871 27.3052 61.7036 27.0091C62.4201 26.7131 63.2089 26.6349 63.9702 26.7844C64.7315 26.934 65.4311 27.3045 65.9804 27.8492C66.5296 28.3938 66.9038 29.0881 67.0558 29.8441C67.2077 30.6002 67.1305 31.384 66.8338 32.0965C66.5372 32.8089 66.0345 33.4178 65.3894 33.8463C64.7442 34.2749 63.9856 34.5035 63.2096 34.5035C62.6936 34.5094 62.1815 34.4129 61.7034 34.2195C61.2254 34.0263 60.791 33.7401 60.4258 33.3779C60.0605 33.0157 59.7716 32.5847 59.5762 32.1101C59.3807 31.6355 59.2826 31.127 59.2875 30.6143ZM64.9136 30.6143C64.9049 30.2815 64.7976 29.9586 64.6052 29.686C64.4128 29.4134 64.1438 29.2033 63.8317 29.0818C63.5197 28.9604 63.1786 28.9331 62.851 29.0032C62.5234 29.0734 62.2239 29.238 61.99 29.4764C61.7561 29.7148 61.5981 30.0164 61.5358 30.3436C61.4736 30.6707 61.5098 31.0089 61.64 31.3156C61.7702 31.6224 61.9885 31.8843 62.2676 32.0684C62.5469 32.2526 62.8745 32.3509 63.2096 32.3509C63.4377 32.3553 63.6642 32.3129 63.875 32.2264C64.0858 32.1398 64.2764 32.0111 64.435 31.8481C64.5935 31.6852 64.7164 31.4915 64.7963 31.2792C64.8761 31.067 64.911 30.8406 64.8989 30.6143H64.9136Z" fill="#728095"/>
<path d="M68.1527 24.9665C68.1527 24.7038 68.2311 24.447 68.378 24.2287C68.5249 24.0103 68.7336 23.84 68.9779 23.7395C69.2222 23.639 69.4909 23.6127 69.7502 23.6639C70.0095 23.7152 70.2477 23.8417 70.4347 24.0274C70.6217 24.2131 70.7489 24.4497 70.8005 24.7074C70.8521 24.965 70.8256 25.232 70.7245 25.4747C70.6233 25.7173 70.4519 25.9248 70.2321 26.0707C70.0123 26.2166 69.7539 26.2945 69.4894 26.2945C69.1355 26.2926 68.7966 26.152 68.5463 25.9034C68.2961 25.6548 68.1547 25.3181 68.1527 24.9665ZM68.3804 26.9366H70.5838V34.2919H68.3804V26.9366Z" fill="#728095"/>
<path d="M80.1906 30.6144C80.2173 31.1006 80.147 31.5873 79.9836 32.0463C79.8202 32.5054 79.5671 32.9279 79.2387 33.2893C78.9104 33.6508 78.5133 33.9442 78.0703 34.1526C77.6274 34.361 77.1473 34.4804 76.6578 34.5037C76.2468 34.5232 75.8364 34.4531 75.4558 34.298C75.0751 34.1429 74.7332 33.9068 74.4544 33.6062V37.2546H72.251V26.9368H74.4544V27.63C74.7332 27.3294 75.0751 27.0932 75.4558 26.9382C75.8364 26.7831 76.2468 26.7129 76.6578 26.7324C77.1467 26.7558 77.6261 26.8749 78.0686 27.0828C78.511 27.2908 78.9078 27.5835 79.236 27.9442C79.5643 28.305 79.8176 28.7265 79.9814 29.1847C80.1453 29.6429 80.2163 30.1288 80.1906 30.6144ZM77.9872 30.6144C77.9785 30.2719 77.8688 29.9395 77.6718 29.6583C77.4748 29.3772 77.1991 29.1595 76.8789 29.0325C76.5587 28.9054 76.2079 28.8744 75.8702 28.9434C75.5324 29.0123 75.2224 29.1782 74.9785 29.4205C74.7347 29.6627 74.5678 29.9706 74.4983 30.3062C74.429 30.6418 74.4601 30.9903 74.588 31.3084C74.716 31.6265 74.935 31.9004 75.218 32.0961C75.5011 32.2918 75.8357 32.4008 76.1804 32.4094C76.421 32.4247 76.662 32.3885 76.8874 32.3035C77.1127 32.2184 77.3171 32.0864 77.4869 31.9164C77.6566 31.7464 77.7878 31.5422 77.8716 31.3177C77.9553 31.0931 77.9898 30.8533 77.9725 30.6144H77.9872Z" fill="#728095"/>
<path d="M87.0506 32.0884C87.0506 33.7813 85.5816 34.5037 83.9658 34.5037C83.3203 34.5605 82.6724 34.424 82.1057 34.1119C81.539 33.7998 81.0791 33.3263 80.7855 32.7524L82.7099 31.6652C82.7879 31.9306 82.9552 32.1615 83.1836 32.3195C83.4121 32.4774 83.6881 32.553 83.9658 32.5335C84.502 32.5335 84.7663 32.3657 84.7663 32.0738C84.7663 31.2639 81.094 31.6944 81.094 29.1551C81.094 27.5497 82.4601 26.7398 84.0319 26.7398C84.6119 26.7223 85.186 26.8592 85.6949 27.1363C86.2037 27.4134 86.6286 27.8207 86.9257 28.3159L84.9941 29.3229C84.9088 29.1302 84.7689 28.9662 84.5916 28.8509C84.4142 28.7356 84.2071 28.674 83.9952 28.6734C83.6133 28.6734 83.3782 28.8194 83.3782 29.0894C83.4076 29.9285 87.0506 29.3667 87.0506 32.0884Z" fill="#728095"/>
<path d="M95.1592 26.9365V34.2918H92.9558V33.6059C92.6995 33.9107 92.3742 34.1509 92.0065 34.3069C91.639 34.4629 91.2393 34.5302 90.8405 34.5035C89.3715 34.5035 88.0715 33.4454 88.0715 31.4533V26.9365H90.2749V31.1323C90.2556 31.3111 90.2766 31.4919 90.3363 31.6617C90.396 31.8314 90.493 31.9858 90.6204 32.1137C90.7476 32.2416 90.902 32.3397 91.0722 32.4009C91.2424 32.4621 91.4242 32.4849 91.6043 32.4676C92.4123 32.4676 92.9778 32.0006 92.9778 30.9572V26.9365H95.1592Z" fill="#728095"/>
<path d="M107.895 29.7823V34.2918H105.691V29.9721C105.691 29.2424 105.331 28.7608 104.626 28.7608C103.921 28.7608 103.466 29.2789 103.466 30.1472V34.2918H101.262V29.9721C101.262 29.2424 100.91 28.7608 100.197 28.7608C99.485 28.7608 99.0443 29.2789 99.0443 30.1472V34.2918H96.8409V26.9366H99.0443V27.6152C99.2747 27.3155 99.5767 27.0777 99.923 26.9235C100.269 26.7693 100.649 26.7035 101.027 26.7323C101.407 26.7139 101.786 26.7937 102.126 26.9637C102.465 27.1338 102.755 27.3884 102.966 27.7028C103.212 27.3741 103.538 27.1127 103.913 26.943C104.288 26.7733 104.7 26.7008 105.111 26.7323C106.786 26.7323 107.895 27.9435 107.895 29.7823Z" fill="#728095"/>
<path d="M109.775 26.8928C110.684 26.8928 111.42 26.161 111.42 25.2583C111.42 24.3556 110.684 23.6238 109.775 23.6238C108.867 23.6238 108.13 24.3556 108.13 25.2583C108.13 26.161 108.867 26.8928 109.775 26.8928Z" fill="#728095"/>
<path d="M62.769 17.9908C67.0241 17.9908 70.4735 14.5637 70.4735 10.3363C70.4735 6.1089 67.0241 2.68188 62.769 2.68188C58.5138 2.68188 55.0643 6.1089 55.0643 10.3363C55.0643 14.5637 58.5138 17.9908 62.769 17.9908Z" fill="#7476ED"/>
<path d="M79.9924 17.9908C84.2475 17.9908 87.6969 14.5637 87.6969 10.3363C87.6969 6.1089 84.2475 2.68188 79.9924 2.68188C75.7372 2.68188 72.2877 6.1089 72.2877 10.3363C72.2877 14.5637 75.7372 17.9908 79.9924 17.9908Z" fill="#E56F8C"/>
<path d="M53.2501 2.68188H37.8483V17.9835H53.2501V2.68188Z" fill="#64C2DB"/>
</svg>
