<svg width="151" height="40" viewBox="0 0 151 40" fill="none" xmlns="http://www.w3.org/2000/svg">
<path d="M23.7575 29.4629L4.24865 16.0933C2.27166 14.7385 2.94371 11.9177 5.40895 11.2543L26.1434 5.6634C26.5826 5.50594 27.0532 5.45483 27.5164 5.51431C27.9794 5.57378 28.4216 5.74212 28.8061 6.00537C29.1905 6.26861 29.5063 6.61916 29.727 7.02791C29.9478 7.43667 30.0673 7.89185 30.0756 8.35568L28.8468 27.3151C28.701 29.5655 25.7345 30.8176 23.7575 29.4629Z" fill="#E9327C"/>
<path d="M17.57 32.7636L6.0767 10.4335C5.81398 9.92262 5.69837 9.3496 5.74262 8.77762C5.78687 8.20564 5.98926 7.65691 6.32747 7.19195C6.66569 6.72699 7.12658 6.36386 7.65934 6.1426C8.19209 5.92134 8.77599 5.85056 9.34667 5.93805L30.6466 9.204C31.1369 9.2792 31.6023 9.46897 32.0046 9.7577C32.4067 10.0464 32.7341 10.4259 32.96 10.8649C33.1858 11.3038 33.3035 11.7898 33.3034 12.2827C33.3033 12.7757 33.1854 13.2616 32.9596 13.7005L23.1475 32.7646C22.884 33.274 22.4843 33.7014 21.9922 33.9997C21.5001 34.2981 20.9349 34.4559 20.3584 34.4557C19.782 34.4556 19.2167 34.2977 18.7247 33.9992C18.2328 33.7006 17.8333 33.2731 17.57 32.7636Z" fill="#1DACE3"/>
<path d="M30.0235 9.10761L19.4056 7.47949L6.36926 10.9961L11.5727 21.1094L23.7576 29.4628C24.0264 29.6451 24.3221 29.7847 24.6341 29.8766L29.2622 20.8847L30.0235 9.10761Z" fill="#001A49"/>
<path d="M83.8054 11.7178C83.8054 11.3257 83.9224 10.9424 84.1417 10.6164C84.361 10.2904 84.6727 10.0363 85.0373 9.88625C85.4019 9.73621 85.8031 9.69695 86.1902 9.77344C86.5772 9.84994 86.9328 10.0388 87.2119 10.316C87.491 10.5933 87.681 10.9465 87.758 11.3311C87.835 11.7156 87.7955 12.1142 87.6445 12.4765C87.4934 12.8387 87.2376 13.1484 86.9095 13.3662C86.5814 13.584 86.1955 13.7003 85.8009 13.7003C85.2733 13.695 84.7689 13.4844 84.3958 13.1137C84.0228 12.7431 83.8107 12.242 83.8054 11.7178ZM84.1382 14.6694H87.4647V25.6827H84.1382V14.6694Z" fill="#728095"/>
<path d="M101.83 20.1762C101.868 20.9042 101.762 21.6325 101.516 22.3194C101.27 23.0062 100.89 23.6381 100.398 24.1786C99.9057 24.719 99.3107 25.1575 98.6471 25.4687C97.9835 25.7799 97.2646 25.9577 96.5317 25.9918C95.9152 26.0251 95.2989 25.9218 94.7275 25.6894C94.1561 25.4569 93.644 25.1012 93.228 24.6478V30.0886H89.9026V14.6696H93.228V15.7046C93.6441 15.2513 94.1563 14.8958 94.7277 14.6635C95.2991 14.4313 95.9153 14.3282 96.5317 14.3616C97.2646 14.3957 97.9834 14.5733 98.647 14.8843C99.3106 15.1955 99.9056 15.6338 100.398 16.1742C100.89 16.7146 101.27 17.3463 101.516 18.0332C101.762 18.72 101.868 19.4483 101.83 20.1762ZM98.5043 20.1762C98.4913 19.6605 98.3254 19.1602 98.0276 18.7377C97.7297 18.3153 97.313 17.9894 96.8297 17.8011C96.3464 17.6127 95.8179 17.5702 95.3104 17.6788C94.8029 17.7874 94.3387 18.0423 93.9763 18.4115C93.6138 18.7808 93.3691 19.2482 93.2726 19.755C93.1761 20.2618 93.2324 20.7856 93.4341 21.2609C93.6358 21.7361 93.9741 22.1417 94.4067 22.4269C94.8394 22.7122 95.347 22.8642 95.8662 22.8642C96.2227 22.8801 96.5785 22.8209 96.9104 22.6907C97.2423 22.5603 97.5427 22.3616 97.7918 22.1078C98.041 21.8539 98.2332 21.5506 98.3561 21.2177C98.4789 20.8848 98.5294 20.5298 98.5043 20.1762Z" fill="#728095"/>
<path d="M112.094 22.3768C112.094 24.9103 109.877 25.9895 107.483 25.9895C106.515 26.0765 105.544 25.8731 104.694 25.4056C103.844 24.9382 103.156 24.2282 102.716 23.3675L105.598 21.7383C105.715 22.1362 105.966 22.482 106.309 22.718C106.652 22.9539 107.067 23.0657 107.483 23.0347C108.281 23.0347 108.679 22.7917 108.679 22.3519C108.679 21.1398 103.225 21.7793 103.225 17.9678C103.225 15.5672 105.264 14.3561 107.575 14.3561C108.442 14.3291 109.3 14.5334 110.06 14.9479C110.821 15.3623 111.455 15.9716 111.898 16.7124L109.06 18.2325C108.936 17.9434 108.729 17.697 108.465 17.5241C108.201 17.3511 107.891 17.2594 107.575 17.2602C106.999 17.2602 106.644 17.4762 106.644 17.8771C106.641 19.1411 112.094 18.3038 112.094 22.3768Z" fill="#728095"/>
<path d="M124.249 14.6694V25.6827H120.923V24.6456C120.54 25.1024 120.051 25.4624 119.5 25.6961C118.95 25.9297 118.351 26.0303 117.752 25.9895C115.513 25.9895 113.607 24.4036 113.607 21.4293V14.6694H116.932V20.9475C116.904 21.21 116.935 21.4754 117.021 21.7252C117.106 21.975 117.246 22.2033 117.429 22.3941C117.613 22.5849 117.836 22.7335 118.083 22.8298C118.331 22.9262 118.596 22.9676 118.862 22.9515C120.081 22.9515 120.928 22.2471 120.928 20.6828V14.6694H124.249Z" fill="#728095"/>
<path d="M143.309 18.9196V25.6827H139.984V19.2069C139.984 18.106 139.451 17.4006 138.388 17.4006C137.278 17.4006 136.659 18.1719 136.659 19.4716V25.6827H133.332V19.2069C133.332 18.106 132.8 17.4006 131.736 17.4006C130.628 17.4006 130.007 18.1719 130.007 19.4716V25.6827H126.681V14.6694H130.012V15.6785C130.357 15.2291 130.809 14.8728 131.328 14.642C131.847 14.4112 132.416 14.3133 132.983 14.3572C133.552 14.3295 134.119 14.4488 134.628 14.7035C135.137 14.9582 135.571 15.3394 135.888 15.8103C136.256 15.3177 136.745 14.926 137.307 14.6719C137.869 14.4177 138.488 14.3095 139.103 14.3572C141.648 14.3615 143.309 16.1668 143.309 18.9196Z" fill="#728095"/>
<path d="M146.127 14.6014C147.491 14.6014 148.596 13.5034 148.596 12.149C148.596 10.7945 147.491 9.69653 146.127 9.69653C144.764 9.69653 143.659 10.7945 143.659 12.149C143.659 13.5034 144.764 14.6014 146.127 14.6014Z" fill="#728095"/>
<path d="M38.4023 9.60352H41.7288V25.6827H38.4023V9.60352ZM43.6123 20.1761C43.6087 19.0214 43.95 17.8916 44.593 16.9299C45.236 15.968 46.1518 15.2174 47.2245 14.773C48.2973 14.3286 49.4785 14.2105 50.6189 14.4335C51.7592 14.6566 52.8072 15.2107 53.6303 16.0259C54.4534 16.8411 55.0145 17.8805 55.2426 19.0127C55.4706 20.1449 55.3555 21.3189 54.9116 22.386C54.4677 23.453 53.715 24.3653 52.749 25.0071C51.7829 25.649 50.6468 25.9917 49.4845 25.9917C48.7127 25.9998 47.9469 25.8551 47.2319 25.566C46.517 25.2769 45.8671 24.8491 45.3205 24.3077C44.7737 23.7662 44.3411 23.122 44.0478 22.4126C43.7546 21.7033 43.6066 20.9429 43.6123 20.1761ZM52.0379 20.1761C52.0248 19.6779 51.8643 19.1948 51.5762 18.7869C51.2883 18.3791 50.8856 18.0646 50.4187 17.8829C49.9516 17.7013 49.4412 17.6603 48.9509 17.7654C48.4607 17.8704 48.0126 18.1169 47.6625 18.4736C47.3125 18.8305 47.0762 19.2818 46.983 19.7714C46.8899 20.261 46.944 20.7669 47.1389 21.2261C47.3337 21.6851 47.6605 22.077 48.0783 22.3526C48.4961 22.6282 48.9864 22.7752 49.4878 22.7754C49.8312 22.7852 50.173 22.724 50.4914 22.596C50.8099 22.4681 51.0982 22.2759 51.3382 22.0316C51.5782 21.7874 51.7647 21.4965 51.8858 21.1771C52.007 20.8577 52.0603 20.5168 52.0422 20.1761H52.0379ZM68.6204 14.6662V25.1296C68.6204 28.8298 65.7158 30.3931 62.7677 30.3931C61.7301 30.4709 60.6908 30.2634 59.7639 29.7932C58.837 29.3231 58.0583 28.6084 57.5132 27.7278L60.3503 26.0976C60.5794 26.5572 60.9442 26.9364 61.396 27.1845C61.8479 27.4326 62.3651 27.5377 62.8787 27.4858C63.2065 27.5302 63.5402 27.5011 63.8551 27.4003C64.17 27.2995 64.4581 27.1299 64.6982 26.9036C64.9382 26.6775 65.124 26.4007 65.242 26.0936C65.36 25.7865 65.4071 25.457 65.3798 25.1296V24.1162C64.9903 24.5894 64.4945 24.9653 63.9324 25.2139C63.3702 25.4625 62.7572 25.5768 62.1425 25.5477C60.6793 25.5024 59.2912 24.8932 58.2722 23.8489C57.2533 22.8046 56.6835 21.4074 56.6835 19.953C56.6835 18.4985 57.2533 17.1012 58.2722 16.0569C59.2912 15.0127 60.6793 14.4034 62.1425 14.3582C62.7572 14.329 63.3702 14.4433 63.9324 14.6919C64.4945 14.9405 64.9903 15.3165 65.3798 15.7898V14.6662H68.6204ZM65.3841 19.9524C65.4061 19.4205 65.2673 18.8942 64.9858 18.4412C64.7043 17.9882 64.2928 17.6292 63.8042 17.4104C63.3157 17.1916 62.7724 17.123 62.2443 17.2135C61.7163 17.3039 61.2275 17.5491 60.8408 17.9178C60.4541 18.2864 60.1872 18.7614 60.0746 19.2818C59.9618 19.8024 60.0083 20.3444 60.2082 20.8384C60.408 21.3324 60.752 21.7557 61.1959 22.0539C61.6398 22.352 62.1634 22.5115 62.6992 22.5118C63.0486 22.5361 63.3993 22.4876 63.7287 22.3693C64.0581 22.251 64.3589 22.0655 64.6118 21.8247C64.8647 21.584 65.0641 21.2933 65.1971 20.9714C65.3301 20.6495 65.3938 20.3034 65.3841 19.9557V19.9524ZM70.5039 20.1685C70.5003 19.0138 70.8415 17.8841 71.4845 16.9223C72.1275 15.9605 73.0434 15.2098 74.116 14.7655C75.1888 14.3211 76.37 14.2029 77.5104 14.426C78.6507 14.649 79.6987 15.2031 80.5219 16.0184C81.345 16.8335 81.9061 17.8729 82.1341 19.0052C82.3622 20.1374 82.247 21.3113 81.8031 22.3784C81.3592 23.4455 80.6066 24.3577 79.6405 24.9996C78.6744 25.6414 77.5383 25.9841 76.3761 25.9841C75.6049 25.9922 74.8397 25.8478 74.1253 25.5591C73.4108 25.2705 72.7613 24.8434 72.2147 24.3027C71.6681 23.7621 71.2354 23.1189 70.9417 22.4103C70.6478 21.7018 70.4991 20.9423 70.5039 20.1761V20.1685ZM78.9294 20.1685C78.9166 19.6701 78.7561 19.1866 78.4681 18.7783C78.18 18.3701 77.7772 18.0554 77.31 17.8735C76.8427 17.6915 76.3319 17.6506 75.8414 17.7557C75.3508 17.8607 74.9024 18.1073 74.5522 18.4642C74.2019 18.8213 73.9654 19.273 73.8723 19.7628C73.7791 20.2527 73.8335 20.759 74.0285 21.2183C74.2236 21.6777 74.5506 22.0696 74.9687 22.3453C75.3869 22.6209 75.8776 22.7679 76.3793 22.7679C76.7218 22.7768 77.0623 22.7156 77.3797 22.5878C77.6971 22.46 77.9845 22.2683 78.224 22.025C78.4633 21.7817 78.6496 21.4918 78.771 21.1737C78.8924 20.8555 78.9464 20.5158 78.9294 20.1761V20.1685Z" fill="#728095"/>
</svg>
