<svg width="151" height="40" viewBox="0 0 151 40" fill="none" xmlns="http://www.w3.org/2000/svg">
<path d="M50.9663 28.8052C50.2901 28.8421 49.6213 28.6489 49.0677 28.2566C48.8365 28.0843 48.6504 27.8579 48.5255 27.5971C48.4007 27.3362 48.341 27.0487 48.3515 26.7595V16.1652C48.346 16.1204 48.3507 16.0748 48.3654 16.032C48.3799 15.9893 48.404 15.9506 48.4358 15.9186C48.4677 15.8866 48.5062 15.8623 48.5487 15.8477C48.5913 15.833 48.6366 15.8283 48.6812 15.8338H50.5911C50.8071 15.8338 50.9095 15.948 50.9095 16.1652V25.9366C50.9095 26.3709 51.1027 26.5881 51.5006 26.5881C51.6694 26.595 51.8381 26.5758 52.0009 26.5309C52.2282 26.5309 52.3533 26.5995 52.3647 26.8052L52.5352 28.2338C52.5434 28.2755 52.5426 28.3183 52.5329 28.3597C52.5233 28.401 52.5048 28.4398 52.4789 28.4733C52.4531 28.5069 52.4204 28.5346 52.3831 28.5543C52.3457 28.5741 52.3045 28.5857 52.2624 28.5881C51.844 28.727 51.4069 28.8003 50.9663 28.8052Z" fill="#728095"/>
<path d="M61.7098 27.5826C60.7502 28.3797 59.5441 28.8157 58.2992 28.8157C57.0543 28.8157 55.8483 28.3797 54.8885 27.5826C54.0451 26.7266 53.5718 25.5703 53.5718 24.3654C53.5718 23.1605 54.0451 22.0043 54.8885 21.1483C55.8501 20.3552 57.0554 19.9219 58.2992 19.9219C59.5429 19.9219 60.7482 20.3552 61.7098 21.1483C62.5339 22.0122 62.994 23.1628 62.994 24.3597C62.994 25.5566 62.5339 26.7072 61.7098 27.5711V27.5826ZM56.6848 26.074C57.1302 26.4796 57.7096 26.7042 58.3106 26.7042C58.9115 26.7042 59.491 26.4796 59.9363 26.074C60.3394 25.6082 60.5613 25.0115 60.5613 24.394C60.5613 23.7766 60.3394 23.1799 59.9363 22.714C59.491 22.3085 58.9115 22.0838 58.3106 22.0838C57.7096 22.0838 57.1302 22.3085 56.6848 22.714C56.2818 23.1799 56.0598 23.7766 56.0598 24.394C56.0598 25.0115 56.2818 25.6082 56.6848 26.074Z" fill="#728095"/>
<path d="M73.5106 20.211C73.7266 20.211 73.8289 20.3253 73.8289 20.5424V28.7367C73.8488 29.2899 73.7458 29.8404 73.5275 30.3484C73.3092 30.8565 72.9812 31.3093 72.567 31.6739C71.6477 32.4619 70.4656 32.8702 69.2587 32.8167C68.1686 32.8552 67.093 32.556 66.1777 31.9596C65.7869 31.7016 65.453 31.3655 65.1968 30.9724C64.9406 30.5791 64.7675 30.1372 64.6884 29.6739C64.6884 29.4453 64.6884 29.3424 64.9954 29.3424H66.9053C66.9864 29.3452 67.0651 29.3716 67.1316 29.4182C67.1982 29.4648 67.2499 29.5298 67.2805 29.6053C67.4044 29.9524 67.6513 30.2414 67.974 30.4167C68.3672 30.6207 68.8049 30.7229 69.2473 30.7139C69.5142 30.7286 69.7814 30.6896 70.0332 30.5994C70.285 30.5092 70.5164 30.3693 70.7139 30.1882C70.8943 29.9987 71.0346 29.7743 71.1264 29.5288C71.2183 29.2834 71.2597 29.0216 71.2482 28.7596V28.0396C70.5644 28.5452 69.7321 28.8067 68.8835 28.7824C68.2896 28.8042 67.6975 28.7051 67.1426 28.491C66.5878 28.2768 66.0818 27.9524 65.6548 27.5367C64.8352 26.6844 64.377 25.5452 64.377 24.3596C64.377 23.1741 64.8352 22.0349 65.6548 21.1824C66.0838 20.7706 66.5905 20.4492 67.145 20.2372C67.6996 20.0252 68.2906 19.9269 68.8835 19.9482C69.7566 19.925 70.6113 20.2034 71.3051 20.7367V20.5539C71.2998 20.5101 71.3044 20.4656 71.3184 20.4238C71.3323 20.3821 71.3554 20.3439 71.3859 20.3122C71.4164 20.2804 71.4535 20.2559 71.4946 20.2404C71.5357 20.2248 71.5797 20.2188 71.6234 20.2224L73.5106 20.211ZM69.0995 26.7482C69.3924 26.7573 69.6837 26.7016 69.9528 26.5851C70.2219 26.4686 70.4624 26.2941 70.657 26.0739C71.035 25.5832 71.2401 24.9802 71.2401 24.3596C71.2401 23.739 71.035 23.136 70.657 22.6453C70.4631 22.4282 70.2241 22.2562 69.9571 22.1416C69.6899 22.0271 69.4011 21.9728 69.1109 21.9824C68.8146 21.9731 68.5199 22.0285 68.2471 22.145C67.9742 22.2614 67.7298 22.436 67.5306 22.6567C67.1119 23.1261 66.8917 23.7411 66.9167 24.371C66.8962 24.9948 67.1116 25.6032 67.5192 26.0739C67.7189 26.294 67.9634 26.4683 68.2362 26.5846C68.5089 26.701 68.8033 26.7567 69.0995 26.7482Z" fill="#728095"/>
<path d="M83.6401 27.5827C82.6786 28.3757 81.4732 28.8091 80.2295 28.8091C78.9858 28.8091 77.7804 28.3757 76.8189 27.5827C75.9941 26.7168 75.5336 25.5644 75.5336 24.3655C75.5336 23.1668 75.9941 22.0142 76.8189 21.1484C77.7813 20.3574 78.9863 19.9253 80.2295 19.9253C81.4727 19.9253 82.6777 20.3574 83.6401 21.1484C84.4643 22.0123 84.9244 23.1629 84.9244 24.3598C84.9244 25.5567 84.4643 26.7074 83.6401 27.5712V27.5827ZM78.6038 26.0741C78.8217 26.2825 79.0786 26.4454 79.3597 26.5533C79.6407 26.6612 79.9402 26.712 80.2409 26.7027C80.5396 26.7104 80.837 26.659 81.116 26.5511C81.395 26.4432 81.65 26.2812 81.8666 26.0741C82.2632 25.6051 82.4809 25.0096 82.4809 24.3941C82.4809 23.7786 82.2632 23.1831 81.8666 22.7141C81.65 22.5071 81.395 22.3449 81.116 22.2372C80.837 22.1293 80.5396 22.0777 80.2409 22.0855C79.9402 22.0763 79.6407 22.127 79.3597 22.2349C79.0786 22.3428 78.8217 22.5058 78.6038 22.7141C78.2073 23.1831 77.9896 23.7786 77.9896 24.3941C77.9896 25.0096 78.2073 25.6051 78.6038 26.0741Z" fill="#728095"/>
<path d="M89.029 18.2681C88.7285 18.5325 88.3427 18.6782 87.9433 18.6782C87.5439 18.6782 87.1582 18.5325 86.8576 18.2681C86.7214 18.1388 86.6128 17.9829 86.5386 17.81C86.4644 17.6371 86.4261 17.4507 86.4261 17.2623C86.4261 17.074 86.4644 16.8877 86.5386 16.7147C86.6128 16.5418 86.7214 16.3859 86.8576 16.2566C87.1612 15.9988 87.5458 15.8574 87.9433 15.8574C88.3407 15.8574 88.7253 15.9988 89.029 16.2566C89.1653 16.3859 89.2739 16.5418 89.348 16.7147C89.4222 16.8877 89.4604 17.074 89.4604 17.2623C89.4604 17.4507 89.4222 17.6371 89.348 17.81C89.2739 17.9829 89.1653 18.1388 89.029 18.2681ZM89.2677 28.8052C88.592 28.8386 87.9243 28.6457 87.3692 28.2566C87.1414 28.0818 86.9585 27.8546 86.836 27.5941C86.7133 27.3337 86.6544 27.0475 86.6643 26.7595V20.5423C86.6588 20.4975 86.6635 20.4519 86.6782 20.4092C86.6927 20.3665 86.7168 20.3277 86.7486 20.2957C86.7805 20.2637 86.819 20.2395 86.8615 20.2249C86.9041 20.2101 86.9494 20.2054 86.994 20.2109H88.9039C89.1199 20.2109 89.2223 20.3252 89.2223 20.5423V25.9366C89.2223 26.3709 89.4155 26.5881 89.8021 26.5881C89.9745 26.5943 90.1469 26.575 90.3137 26.5309C90.5411 26.5309 90.6661 26.5995 90.6775 26.8052L90.848 28.2338C90.8562 28.2755 90.8554 28.3183 90.8457 28.3597C90.8361 28.401 90.8176 28.4398 90.7917 28.4733C90.7659 28.5069 90.7332 28.5346 90.6959 28.5543C90.6585 28.5741 90.6173 28.5857 90.5752 28.5881C90.1531 28.7278 89.7121 28.8011 89.2677 28.8052Z" fill="#728095"/>
<path d="M97.8739 19.9369C98.4705 19.9133 99.0657 20.0103 99.6242 20.2223C100.183 20.4344 100.693 20.7571 101.125 21.1712C101.929 22.0387 102.376 23.18 102.376 24.3655C102.376 25.551 101.929 26.6925 101.125 27.5598C100.695 27.9777 100.185 28.3036 99.6266 28.5176C99.0677 28.7318 98.4715 28.8297 97.8739 28.8055C97.0226 28.8246 96.1882 28.5638 95.4978 28.0627V32.1884C95.4978 32.4055 95.3841 32.5084 95.1681 32.5084H93.2581C93.2146 32.5166 93.1697 32.514 93.1273 32.5008C93.085 32.4876 93.0464 32.4643 93.0151 32.4327C92.9838 32.4012 92.9605 32.3626 92.9474 32.3199C92.9342 32.2774 92.9317 32.2323 92.9398 32.1884V22.8169C92.9532 22.7253 92.945 22.6318 92.9162 22.5438C92.8872 22.4559 92.8381 22.3759 92.7729 22.3104C92.7078 22.2449 92.6283 22.1957 92.5408 22.1665C92.4533 22.1374 92.3602 22.1293 92.269 22.1427H91.8939C91.6438 22.1427 91.5187 22.0512 91.5187 21.8684V20.5198C91.5128 20.4364 91.5355 20.3534 91.5832 20.2848C91.6307 20.2161 91.7003 20.166 91.7802 20.1427C92.1734 19.999 92.5896 19.9293 93.008 19.9369C93.4252 19.8998 93.844 19.9888 94.2106 20.1924C94.5771 20.396 94.875 20.7051 95.0658 21.0798C95.432 20.7075 95.8699 20.4141 96.3527 20.2175C96.8355 20.0211 97.3532 19.9255 97.8739 19.9369ZM96.1003 26.0741C96.303 26.2871 96.5466 26.4566 96.8162 26.5724C97.0859 26.6881 97.376 26.7478 97.6692 26.7478C97.9624 26.7478 98.2527 26.6881 98.5222 26.5724C98.7919 26.4566 99.0354 26.2871 99.2381 26.0741C99.6651 25.5953 99.8894 24.968 99.8634 24.3255C99.8932 23.6825 99.6683 23.0537 99.2381 22.5769C99.0354 22.364 98.7919 22.1945 98.5222 22.0788C98.2527 21.9629 97.9624 21.9032 97.6692 21.9032C97.376 21.9032 97.0859 21.9629 96.8162 22.0788C96.5466 22.1945 96.303 22.364 96.1003 22.5769C95.6867 23.0622 95.4714 23.687 95.4978 24.3255C95.4747 24.9636 95.6897 25.5872 96.1003 26.0741Z" fill="#728095"/>
<path d="M107.742 28.8054C106.721 28.8476 105.71 28.6022 104.82 28.0969C104.464 27.8809 104.16 27.5868 103.931 27.2367C103.703 26.8865 103.556 26.4891 103.502 26.074C103.502 25.8454 103.581 25.7312 103.831 25.7312H105.502C105.582 25.7344 105.659 25.7594 105.725 25.8039C105.791 25.8482 105.844 25.91 105.878 25.9826C106.116 26.5997 106.742 26.9083 107.742 26.9083C108.091 26.9244 108.439 26.8537 108.754 26.7026C108.863 26.6532 108.956 26.575 109.024 26.4764C109.092 26.3778 109.132 26.2624 109.14 26.1426C109.14 25.8455 108.959 25.6397 108.595 25.5026C108.163 25.3582 107.717 25.2624 107.265 25.2169C106.729 25.1558 106.197 25.0604 105.673 24.9312C105.163 24.8153 104.7 24.5485 104.343 24.1654C104.132 23.9051 103.978 23.604 103.888 23.2809C103.798 22.9578 103.775 22.6195 103.821 22.2873C103.867 21.9549 103.98 21.6356 104.154 21.3493C104.328 21.0629 104.559 20.8156 104.832 20.6226C105.651 20.0979 106.613 19.8422 107.583 19.8912C108.522 19.8593 109.452 20.0929 110.266 20.5654C110.594 20.7523 110.876 21.0103 111.093 21.3207C111.309 21.6311 111.454 21.986 111.516 22.3597C111.516 22.5883 111.414 22.7026 111.21 22.7026H109.527C109.456 22.7068 109.386 22.6895 109.325 22.6528C109.264 22.6161 109.216 22.5617 109.186 22.4969C109.073 22.2263 108.862 22.0093 108.595 21.8912C108.293 21.7328 107.957 21.654 107.617 21.6626C107.284 21.6444 106.951 21.7113 106.651 21.8569C106.545 21.898 106.454 21.97 106.389 22.0637C106.324 22.1575 106.288 22.2685 106.287 22.3826C106.294 22.5389 106.351 22.6888 106.449 22.8101C106.548 22.9315 106.682 23.0179 106.833 23.0569C107.269 23.2224 107.723 23.3373 108.185 23.3997C108.717 23.4701 109.245 23.5693 109.766 23.6969C110.275 23.8129 110.739 24.0795 111.096 24.4626C111.287 24.6737 111.435 24.9207 111.53 25.1895C111.626 25.4581 111.668 25.7433 111.653 26.0283C111.663 26.4234 111.571 26.8143 111.385 27.1628C111.2 27.5113 110.928 27.8056 110.596 28.0169C109.746 28.5651 108.751 28.8401 107.742 28.8054Z" fill="#728095"/>
<path d="M123.67 28.2338C123.676 28.2744 123.674 28.3158 123.665 28.3557C123.655 28.3957 123.638 28.4332 123.613 28.4663C123.589 28.4993 123.558 28.5271 123.523 28.548C123.488 28.5689 123.449 28.5825 123.408 28.5881C122.993 28.7243 122.56 28.7976 122.123 28.8052C121.691 28.8503 121.255 28.7824 120.857 28.6082C120.458 28.434 120.111 28.1594 119.85 27.8109C119.047 28.505 118.008 28.8611 116.951 28.8052C116.46 28.828 115.97 28.7472 115.511 28.5681C115.053 28.389 114.637 28.1155 114.29 27.7652C113.946 27.3983 113.679 26.9651 113.505 26.4919C113.331 26.0186 113.254 25.5149 113.279 25.0109V20.5424C113.279 20.3252 113.381 20.2109 113.597 20.2109H115.507C115.723 20.2109 115.825 20.3252 115.825 20.5424V24.6681C115.805 25.1821 115.979 25.6848 116.314 26.0738C116.481 26.2521 116.685 26.3922 116.91 26.4849C117.135 26.5776 117.378 26.6205 117.621 26.6109C117.87 26.6219 118.119 26.5832 118.354 26.4968C118.588 26.4105 118.803 26.2784 118.986 26.1081C119.159 25.9287 119.294 25.7154 119.381 25.4815C119.47 25.2475 119.509 24.9979 119.497 24.7481V20.5424C119.497 20.3252 119.6 20.2109 119.816 20.2109H121.748C121.964 20.2109 122.067 20.3252 122.067 20.5424V25.9252C122.067 26.3709 122.26 26.5881 122.635 26.5881C122.811 26.5949 122.988 26.5757 123.158 26.5309C123.201 26.5188 123.247 26.5167 123.29 26.5247C123.334 26.5325 123.375 26.5504 123.412 26.5768C123.448 26.6032 123.478 26.6375 123.499 26.677C123.52 26.7165 123.531 26.7604 123.533 26.8052L123.67 28.2338Z" fill="#728095"/>
<path d="M141.735 28.2341C141.745 28.2751 141.746 28.3178 141.738 28.3592C141.729 28.4004 141.712 28.4395 141.687 28.4733C141.662 28.5072 141.63 28.535 141.593 28.5549C141.556 28.5749 141.515 28.5864 141.473 28.5884C141.05 28.7266 140.61 28.7999 140.166 28.8056C139.489 28.8407 138.822 28.6476 138.267 28.257C138.027 28.0897 137.833 27.8656 137.7 27.6044C137.567 27.3433 137.5 27.0531 137.505 26.7598V24.0741C137.529 23.5617 137.359 23.0592 137.028 22.6684C136.869 22.4898 136.671 22.349 136.452 22.2561C136.231 22.1633 135.993 22.1207 135.755 22.1313C135.54 22.1232 135.326 22.1642 135.128 22.2513C134.932 22.3384 134.758 22.4693 134.618 22.6341C134.318 23.0171 134.164 23.4957 134.186 23.9827V28.1998C134.186 28.417 134.083 28.5313 133.867 28.5313H131.946C131.902 28.5369 131.856 28.5321 131.814 28.5175C131.771 28.5027 131.732 28.4785 131.701 28.4465C131.669 28.4146 131.645 28.3757 131.63 28.333C131.615 28.2903 131.611 28.2448 131.616 28.1998V24.0741C131.641 23.5673 131.483 23.0683 131.173 22.6684C131.034 22.5004 130.86 22.3652 130.664 22.2724C130.468 22.1796 130.253 22.1314 130.036 22.1313C129.804 22.1219 129.573 22.1618 129.357 22.2485C129.141 22.3352 128.947 22.4666 128.786 22.6341C128.46 23.0049 128.293 23.4892 128.319 23.9827V28.1998C128.325 28.2448 128.321 28.2903 128.306 28.333C128.291 28.3757 128.267 28.4146 128.235 28.4465C128.204 28.4785 128.165 28.5027 128.123 28.5175C128.08 28.5321 128.034 28.5369 127.99 28.5313H126.137C125.921 28.5313 125.818 28.417 125.818 28.1998V22.817C125.832 22.7253 125.824 22.6319 125.794 22.5439C125.766 22.456 125.717 22.376 125.651 22.3105C125.586 22.245 125.507 22.1957 125.419 22.1666C125.332 22.1374 125.239 22.1293 125.148 22.1427H124.772C124.522 22.1427 124.397 22.0513 124.397 21.8684V20.5199C124.392 20.4364 124.414 20.3535 124.462 20.2849C124.51 20.2162 124.579 20.166 124.659 20.1427C125.052 19.9991 125.468 19.9293 125.887 19.937C126.288 19.9026 126.691 19.9831 127.05 20.1691C127.408 20.3552 127.706 20.6392 127.91 20.9884C128.293 20.6231 128.748 20.341 129.245 20.1601C129.742 19.9792 130.27 19.9033 130.798 19.937C131.311 19.9119 131.821 20.0084 132.289 20.2189C132.758 20.4295 133.169 20.7479 133.492 21.1484C133.869 20.7373 134.331 20.4155 134.846 20.2059C135.361 19.9964 135.916 19.9047 136.471 19.937C136.967 19.9137 137.462 19.994 137.926 20.1731C138.39 20.3521 138.812 20.6258 139.165 20.977C139.511 21.3433 139.778 21.7763 139.952 22.2498C140.126 22.7232 140.203 23.2273 140.177 23.7313V25.937C140.177 26.3713 140.37 26.5884 140.734 26.5884C140.91 26.5966 141.087 26.5775 141.257 26.5313C141.492 26.5313 141.618 26.6227 141.632 26.8056L141.735 28.2341Z" fill="#728095"/>
<path d="M8.42427 18.7252C9.26303 15.3362 11.2056 12.3268 13.9426 10.1761C16.6796 8.02532 20.0537 6.85693 23.5277 6.85693C27.0017 6.85693 30.3758 8.02532 33.1129 10.1761C35.8499 12.3268 37.7924 15.3362 38.6311 18.7252H37.2669C34.9655 18.6911 32.7113 19.3825 30.8208 20.7023C30.7116 20.7817 30.5977 20.8543 30.4797 20.9194H30.3206C30.2026 20.8543 30.0886 20.7817 29.9795 20.7023C28.0723 19.413 25.826 18.7245 23.5277 18.7245C21.2294 18.7245 18.9832 19.413 17.0759 20.7023C16.9668 20.7817 16.8529 20.8543 16.7349 20.9194H16.5757C16.4577 20.8543 16.3438 20.7817 16.2346 20.7023C14.3441 19.3825 12.0899 18.6911 9.78853 18.7252H8.42427ZM34.8112 25.8909C35.5116 25.3426 36.3796 25.0558 37.2669 25.0794H39.0973V21.4109H37.2669C35.7039 21.3919 34.1767 21.8809 32.9126 22.8052C32.2013 23.3324 31.3408 23.6168 30.457 23.6168C29.5732 23.6168 28.7127 23.3324 28.0013 22.8052C26.7052 21.8982 25.1638 21.4119 23.5846 21.4119C22.0053 21.4119 20.4639 21.8982 19.1678 22.8052C18.4564 23.3324 17.5959 23.6168 16.7121 23.6168C15.8283 23.6168 14.9678 23.3324 14.2565 22.8052C12.9768 21.869 11.4277 21.3794 9.84537 21.4109H7.95815V25.0794H9.78853C10.6759 25.0558 11.5439 25.3426 12.2442 25.8909C13.538 26.7985 15.0776 27.2852 16.6553 27.2852C18.2329 27.2852 19.7726 26.7985 21.0664 25.8909C21.7676 25.3444 22.6349 25.0577 23.522 25.0794C24.4097 25.0538 25.2783 25.3409 25.9777 25.8909C27.2738 26.798 28.8152 27.2841 30.3945 27.2841C31.9737 27.2841 33.5151 26.798 34.8112 25.8909ZM34.8112 32.4509C35.5116 31.9026 36.3796 31.6158 37.2669 31.6394H39.0973V27.9709H37.2669C35.7039 27.9519 34.1767 28.4409 32.9126 29.3652C32.2013 29.8924 31.3408 30.1768 30.457 30.1768C29.5732 30.1768 28.7127 29.8924 28.0013 29.3652C26.7052 28.4582 25.1638 27.972 23.5846 27.972C22.0053 27.972 20.4639 28.4582 19.1678 29.3652C18.4564 29.8924 17.5959 30.1768 16.7121 30.1768C15.8283 30.1768 14.9678 29.8924 14.2565 29.3652C12.9768 28.4292 11.4277 27.9394 9.84537 27.9709H7.95815V31.6394H9.78853C10.6759 31.6158 11.5439 31.9026 12.2442 32.4509C13.538 33.3585 15.0776 33.8452 16.6553 33.8452C18.2329 33.8452 19.7726 33.3585 21.0664 32.4509C21.7676 31.9044 22.6349 31.6177 23.522 31.6394C24.4097 31.6138 25.2783 31.9009 25.9777 32.4509C27.2738 33.358 28.8152 33.8441 30.3945 33.8441C31.9737 33.8441 33.5151 33.358 34.8112 32.4509Z" fill="#728095"/>
</svg>
