<svg width="151" height="40" viewBox="0 0 151 40" fill="none" xmlns="http://www.w3.org/2000/svg">
<g clip-path="url(#clip0_1384_674647)">
<path d="M43.7681 27.8588H54.5083V24.6449H47.5854V12.5391H43.7681V27.8588Z" fill="#728095"/>
<path d="M60.8716 25.716C59.3404 25.716 58.5424 24.3875 58.5424 22.3949C58.5424 20.4022 59.3404 19.0524 60.8716 19.0524C62.4028 19.0524 63.2223 20.4022 63.2223 22.3949C63.2223 24.3875 62.4028 25.716 60.8716 25.716ZM60.8931 28.2014C64.4516 28.2014 66.7808 25.6945 66.7808 22.3949C66.7808 19.0952 64.4516 16.5884 60.8931 16.5884C57.3562 16.5884 54.9839 19.0952 54.9839 22.3949C54.9839 25.6945 57.3562 28.2014 60.8931 28.2014Z" fill="#728095"/>
<path d="M72.9403 31.6512C74.5794 31.6512 76.0243 31.287 76.9948 30.4299C77.8791 29.6371 78.4614 28.4373 78.4614 26.7875V16.8885H75.097V18.067H75.0538C74.4068 17.1456 73.4148 16.5671 71.9482 16.5671C69.2093 16.5671 67.3114 18.8383 67.3114 22.0523C67.3114 25.4162 69.619 27.2588 72.0992 27.2588C73.4363 27.2588 74.2774 26.7232 74.9244 25.9947H75.0107V27.0874C75.0107 28.4158 74.3853 29.1872 72.8972 29.1872C71.7326 29.1872 71.1503 28.6944 70.9562 28.1159H67.5486C67.8937 30.4085 69.8994 31.6512 72.9403 31.6512ZM72.9187 24.6663C71.6032 24.6663 70.7405 23.5949 70.7405 21.9451C70.7405 20.2739 71.6032 19.2026 72.9187 19.2026C74.3853 19.2026 75.1617 20.4453 75.1617 21.9237C75.1617 23.4664 74.45 24.6663 72.9187 24.6663Z" fill="#728095"/>
<path d="M85.379 25.716C83.8478 25.716 83.0498 24.3875 83.0498 22.3949C83.0498 20.4022 83.8478 19.0524 85.379 19.0524C86.9103 19.0524 87.7298 20.4022 87.7298 22.3949C87.7298 24.3875 86.9103 25.716 85.379 25.716ZM85.4006 28.2014C88.9591 28.2014 91.2886 25.6945 91.2886 22.3949C91.2886 19.0952 88.9591 16.5884 85.4006 16.5884C81.8637 16.5884 79.4913 19.0952 79.4913 22.3949C79.4913 25.6945 81.8637 28.2014 85.4006 28.2014Z" fill="#728095"/>
<path d="M92.3149 27.8588H95.8303V16.8886H92.3149V27.8588ZM92.3149 15.3673H95.8303V12.5391H92.3149V15.3673Z" fill="#728095"/>
<path d="M97.3552 31.4798H100.871V26.7232H100.914C101.604 27.6445 102.617 28.2016 104.041 28.2016C106.931 28.2016 108.85 25.9304 108.85 22.3736C108.85 19.074 107.06 16.5671 104.127 16.5671C102.617 16.5671 101.539 17.2314 100.784 18.217H100.72V16.8885H97.3552V31.4798ZM103.135 25.5019C101.625 25.5019 100.763 24.2806 100.763 22.5022C100.763 20.7238 101.539 19.374 103.07 19.374C104.58 19.374 105.292 20.6167 105.292 22.5022C105.292 24.3663 104.472 25.5019 103.135 25.5019Z" fill="#728095"/>
<path d="M114.574 28.2016C117.464 28.2016 119.599 26.9589 119.599 24.5591C119.599 21.7523 117.313 21.2595 115.372 20.9381C113.97 20.681 112.72 20.5738 112.72 19.8025C112.72 19.1169 113.388 18.7955 114.251 18.7955C115.221 18.7955 115.89 19.0954 116.019 20.081H119.254C119.082 17.917 117.4 16.5671 114.272 16.5671C111.663 16.5671 109.506 17.767 109.506 20.081C109.506 22.6522 111.555 23.1664 113.474 23.4878C114.941 23.7449 116.278 23.8521 116.278 24.8377C116.278 25.5447 115.61 25.9304 114.553 25.9304C113.388 25.9304 112.655 25.3947 112.525 24.302H109.204C109.312 26.7232 111.339 28.2016 114.574 28.2016Z" fill="#728095"/>
<path d="M124.374 28.1801C125.905 28.1801 126.875 27.5801 127.673 26.5088H127.738V27.8587H131.102V16.8884H127.587V23.0163C127.587 24.3233 126.854 25.2232 125.646 25.2232C124.525 25.2232 123.985 24.559 123.985 23.3592V16.8884H120.492V24.0876C120.492 26.5302 121.829 28.1801 124.374 28.1801Z" fill="#728095"/>
<path d="M132.632 27.8588H136.147V21.7094C136.147 20.4024 136.794 19.4811 137.894 19.4811C138.951 19.4811 139.447 20.1667 139.447 21.3452V27.8588H142.963V21.7094C142.963 20.4024 143.588 19.4811 144.709 19.4811C145.766 19.4811 146.262 20.1667 146.262 21.3452V27.8588H149.778V20.7238C149.778 18.2598 148.527 16.5671 146.025 16.5671C144.602 16.5671 143.415 17.1671 142.553 18.4955H142.51C141.949 17.3171 140.849 16.5671 139.404 16.5671C137.808 16.5671 136.751 17.3171 136.061 18.4526H135.996V16.8885H132.632V27.8588Z" fill="#728095"/>
<path fill-rule="evenodd" clip-rule="evenodd" d="M7.84476 5.62707C6.55915 6.52015 5.39662 7.57606 4.38743 8.7647C8.51143 8.38432 13.7508 9.00543 19.8337 12.0271C26.3294 15.2537 31.56 15.3628 35.2003 14.6652C34.87 13.6716 34.4541 12.7168 33.9616 11.809C29.7944 12.2456 24.4522 11.6677 18.2263 8.57506C14.2727 6.61117 10.7877 5.80217 7.84476 5.62707ZM31.5273 8.36675C28.2365 4.71389 23.4542 2.41504 18.1314 2.41504C16.5682 2.41504 15.0516 2.61333 13.6057 2.98594C15.5639 3.51678 17.6442 4.29339 19.8337 5.38102C24.392 7.6453 28.3274 8.37435 31.5273 8.36675ZM35.9786 18.1527C31.5808 19.0154 25.5079 18.8382 18.2263 15.2211C11.4187 11.8395 6.00054 11.8821 2.34631 12.6889C2.15769 12.7305 1.97351 12.7742 1.79378 12.8198C1.31535 13.8535 0.933453 14.9405 0.659438 16.0693C0.952101 15.9917 1.25452 15.9178 1.56655 15.8489C5.99976 14.8702 12.2635 14.9127 19.8337 18.6732C26.6413 22.0548 32.0595 22.0122 35.7138 21.2054C35.8389 21.1778 35.9623 21.1492 36.0836 21.1198C36.0969 20.8383 36.1036 20.555 36.1036 20.2702C36.1036 19.5538 36.0612 18.8472 35.9786 18.1527ZM35.4968 24.8878C31.1417 25.6443 25.2457 25.3539 18.2263 21.8672C11.4187 18.4856 6.00054 18.5282 2.34631 19.335C1.53518 19.514 0.805496 19.7321 0.161813 19.9623C0.160058 20.0647 0.15918 20.1674 0.15918 20.2702C0.15918 30.1314 8.2056 38.1254 18.1314 38.1254C26.4499 38.1254 33.4485 32.5108 35.4968 24.8878Z" fill="#7F57F1"/>
</g>
<defs>
<clipPath id="clip0_1384_674647">
<rect width="150.068" height="40" fill="white" transform="translate(0.0679932)"/>
</clipPath>
</defs>
</svg>
