<svg width="151" height="40" viewBox="0 0 151 40" fill="none" xmlns="http://www.w3.org/2000/svg">
<path d="M44.8931 12.8265H48.546V27.4999H44.8931V12.8265ZM49.9949 21.9596C49.9949 18.3306 52.2353 16.1652 55.6933 16.1652C59.1513 16.1652 61.3917 18.3306 61.3917 21.9596C61.3917 25.5886 59.2 27.766 55.6933 27.766C52.1866 27.766 49.9949 25.6491 49.9949 21.9596ZM57.7267 21.9596C57.7267 19.9636 56.9353 18.7902 55.6933 18.7902C54.4513 18.7902 53.6721 19.9999 53.6721 21.9596C53.6721 23.9193 54.4392 25.1048 55.6933 25.1048C56.9474 25.1048 57.7267 23.9918 57.7267 21.9717V21.9596ZM62.7676 28.2136H66.2743C66.4412 28.582 66.7233 28.8869 67.0788 29.0831C67.4342 29.2792 67.8439 29.3562 68.2468 29.3023C69.6349 29.3023 70.3654 28.5523 70.3654 27.4636V25.4314H70.2924C70.0014 26.0542 69.5291 26.5761 68.9366 26.9298C68.3441 27.2834 67.6585 27.4525 66.9683 27.4152C64.3018 27.4152 62.5362 25.3951 62.5362 21.9233C62.5362 18.4515 64.2165 16.262 67.017 16.262C67.7288 16.2343 68.4321 16.4234 69.0328 16.8038C69.6334 17.1844 70.1027 17.7382 70.3776 18.391V16.3709H74.0304V27.3789C74.0304 30.0281 71.6805 31.6733 68.2103 31.6733C64.9836 31.6733 62.9746 30.2338 62.7676 28.2257V28.2136ZM70.3776 21.9475C70.3776 20.1814 69.5618 19.0685 68.2712 19.0685C66.9805 19.0685 66.1891 20.1693 66.1891 21.9475C66.1891 23.7257 66.9683 24.7298 68.2712 24.7298C69.574 24.7298 70.3776 23.7499 70.3776 21.9596V21.9475ZM75.4063 21.9475C75.4063 18.3185 77.6467 16.1531 81.1047 16.1531C84.5627 16.1531 86.8153 18.3185 86.8153 21.9475C86.8153 25.5765 84.6236 27.7539 81.1047 27.7539C77.5858 27.7539 75.4063 25.6491 75.4063 21.9596V21.9475ZM83.1381 21.9475C83.1381 19.9515 82.3467 18.7781 81.1047 18.7781C79.8628 18.7781 79.1444 19.9999 79.1444 21.9717C79.1444 23.9435 79.9115 25.1168 81.1534 25.1168C82.3954 25.1168 83.1381 23.9918 83.1381 21.9717V21.9475ZM88.2034 13.7338C88.1937 13.3674 88.294 13.0064 88.4911 12.6966C88.6883 12.3868 88.9736 12.1422 89.3109 11.9937C89.6482 11.8452 90.0222 11.7995 90.3857 11.8625C90.7491 11.9255 91.0856 12.0942 91.3523 12.3474C91.6192 12.6005 91.8043 12.9267 91.8843 13.2845C91.9643 13.6423 91.9356 14.0156 91.8016 14.3573C91.6678 14.6987 91.4349 14.9932 91.1324 15.2031C90.8301 15.4129 90.4716 15.5289 90.1028 15.5362C89.8583 15.5529 89.613 15.5191 89.3823 15.4371C89.1514 15.3551 88.9403 15.2266 88.7619 15.0596C88.5835 14.8927 88.4418 14.6908 88.3457 14.4667C88.2495 14.2428 88.2011 14.0015 88.2034 13.758V13.7338ZM88.2034 16.3951H91.8562V27.4999H88.2034V16.3951ZM105.116 21.9475C105.116 25.5765 103.496 27.6451 100.72 27.6451C100.009 27.6904 99.2998 27.5176 98.69 27.1498C98.0802 26.782 97.5989 26.237 97.311 25.5886H97.238V31.0564H93.5852V16.3709H97.238V18.3548H97.311C97.5855 17.6956 98.0577 17.1365 98.6633 16.7534C99.269 16.3703 99.9787 16.1818 100.696 16.2136C103.496 16.262 105.165 18.3427 105.165 21.9717L105.116 21.9475ZM101.463 21.9475C101.463 20.1814 100.647 19.0564 99.3688 19.0564C98.0903 19.0564 97.2745 20.1935 97.2623 21.9475C97.2502 23.7015 98.0903 24.8265 99.3688 24.8265C100.647 24.8265 101.463 23.7257 101.463 21.9717V21.9475ZM111.387 16.141C114.418 16.141 116.257 17.5685 116.342 19.8548H113.018C113.018 19.0685 112.361 18.5725 111.35 18.5725C110.339 18.5725 109.889 18.9596 109.889 19.5281C109.889 20.0967 110.291 20.2781 111.107 20.4475L113.444 20.9193C115.673 21.391 116.622 22.2862 116.622 23.9677C116.622 26.266 114.516 27.7418 111.411 27.7418C108.306 27.7418 106.273 26.266 106.114 24.0039H109.633C109.743 24.8265 110.4 25.3104 111.472 25.3104C112.543 25.3104 113.03 24.9596 113.03 24.3789C113.03 23.7983 112.689 23.6773 111.813 23.4959L109.706 23.0483C107.527 22.6007 106.382 21.4515 106.382 19.758C106.407 17.5806 108.367 16.1652 111.387 16.1652V16.141ZM128.811 27.4757H125.292V25.4072H125.219C125.025 26.1016 124.599 26.7095 124.009 27.1299C123.42 27.5501 122.704 27.7576 121.98 27.7177C121.425 27.749 120.87 27.6616 120.351 27.4614C119.833 27.2612 119.365 26.953 118.977 26.5573C118.589 26.1618 118.291 25.6879 118.103 25.1681C117.916 24.6483 117.842 24.0946 117.889 23.5443V16.3709H121.541V22.7096C121.541 24.0281 122.223 24.7298 123.356 24.7298C123.621 24.7302 123.884 24.6745 124.126 24.566C124.367 24.4575 124.584 24.2987 124.76 24.1006C124.934 23.9023 125.065 23.6692 125.142 23.4169C125.219 23.1644 125.242 22.8985 125.206 22.637V16.3709H128.859L128.811 27.4757ZM130.576 16.3709H134.107V18.512H134.18C134.374 17.8267 134.791 17.2246 135.366 16.8C135.941 16.3754 136.642 16.1521 137.358 16.1652C138.087 16.1073 138.811 16.3239 139.387 16.7723C139.961 17.2206 140.346 17.8675 140.463 18.5846H140.536C140.756 17.8599 141.214 17.2289 141.836 16.7909C142.457 16.3529 143.209 16.1327 143.97 16.1652C144.466 16.1487 144.961 16.2361 145.421 16.4219C145.883 16.6076 146.298 16.8877 146.642 17.2435C146.987 17.5996 147.252 18.0235 147.422 18.4879C147.59 18.9523 147.659 19.447 147.623 19.9394V27.4999H143.97V20.9072C143.97 19.6975 143.422 19.141 142.399 19.141C142.171 19.1391 141.945 19.1858 141.737 19.278C141.528 19.3702 141.342 19.5056 141.191 19.6754C141.04 19.8451 140.927 20.0449 140.86 20.2616C140.793 20.4783 140.775 20.7067 140.804 20.9314V27.4999H137.334V20.8588C137.334 19.7459 136.786 19.141 135.787 19.141C135.557 19.1412 135.328 19.1898 135.119 19.2838C134.908 19.3779 134.72 19.5152 134.567 19.6866C134.414 19.858 134.299 20.0598 134.23 20.2786C134.162 20.4973 134.14 20.728 134.168 20.9556V27.4999H130.515L130.576 16.3709Z" fill="#728095"/>
<path d="M34.6773 13.4922C34.0577 12.0846 33.2376 10.7727 32.2421 9.59702C30.7707 7.80711 28.9343 6.34709 26.8539 5.31307C24.7735 4.27906 22.4962 3.69449 20.172 3.59782C17.8478 3.50116 15.5294 3.89459 13.3692 4.75225C11.2092 5.6099 9.25638 6.91232 7.63944 8.57379C6.02248 10.2352 4.77803 12.2181 3.98799 14.3918C3.19794 16.5655 2.88021 18.8808 3.05571 21.1853C3.23123 23.4898 3.89598 25.7312 5.00625 27.762C6.11651 29.793 7.6471 31.5672 9.49727 32.968C10.6844 33.8848 11.9962 34.6301 13.3936 35.1817C15.3527 35.9794 17.4496 36.3902 19.5669 36.3914C23.9373 36.3818 28.1257 34.651 31.2139 31.5784C34.302 28.5059 36.0379 24.3423 36.0411 20.0002C36.0442 17.7605 35.58 15.5445 34.6773 13.4922ZM19.5547 6.92362C21.4561 6.92343 23.3345 7.33629 25.0583 8.1333C24.6379 8.31375 24.196 8.43978 23.7432 8.50831C22.2536 8.72253 20.8737 9.40961 19.8094 10.467C18.7451 11.5244 18.0535 12.8953 17.8379 14.3752C17.7433 15.2052 17.3632 15.9773 16.7621 16.5614C16.161 17.1454 15.3755 17.5054 14.5381 17.5809C13.0485 17.7951 11.6686 18.4822 10.6043 19.5396C9.53999 20.597 8.8484 21.9679 8.63277 23.4478C8.55977 24.237 8.22085 24.9787 7.67087 25.5527C6.72192 23.5607 6.29564 21.3625 6.43167 19.1628C6.5677 16.9631 7.26163 14.8334 8.44888 12.9717C9.63612 11.1101 11.2781 9.57707 13.222 8.51538C15.1659 7.45368 17.3486 6.8978 19.5669 6.89943L19.5547 6.92362ZM9.4851 28.468C9.63121 28.3349 9.77732 28.214 9.92344 28.0688C11.0067 27.0255 11.702 25.6481 11.896 24.1615C11.9746 23.3259 12.3501 22.5454 12.9553 21.9599C13.5376 21.3578 14.3214 20.9877 15.1591 20.9196C16.6487 20.7054 18.0287 20.0183 19.093 18.9609C20.1573 17.9035 20.8489 16.5326 21.0645 15.0527C21.1172 14.1787 21.4947 13.3552 22.1238 12.7422C22.7206 12.1517 23.5118 11.7951 24.352 11.7381C25.7205 11.5511 26.9968 10.9467 28.0049 10.0083C29.1527 10.9544 30.1251 12.0925 30.8784 13.3712C30.8321 13.4333 30.7791 13.4901 30.7201 13.5406C30.139 14.1481 29.3562 14.5262 28.5163 14.6051C27.0251 14.8156 25.6431 15.5015 24.578 16.5594C23.5131 17.6175 22.8227 18.9905 22.6109 20.472C22.525 21.3048 22.1521 22.0825 21.5552 22.6733C20.9582 23.2642 20.1741 23.6318 19.3355 23.714C17.8415 23.9265 16.4565 24.6123 15.386 25.6692C14.3156 26.7262 13.6168 28.098 13.3936 29.5809C13.3281 30.1721 13.1237 30.7398 12.797 31.2382C11.5477 30.5012 10.4289 29.5654 9.4851 28.468ZM19.5547 33.1374C18.3192 33.1387 17.0895 32.9676 15.9019 32.6293C16.3082 31.8769 16.5723 31.0568 16.6811 30.2099C16.7665 29.379 17.1377 28.6028 17.7322 28.0122C18.3266 27.4216 19.1079 27.0528 19.9443 26.968C21.4361 26.7562 22.8188 26.0702 23.8856 25.0125C24.9522 23.955 25.6456 22.5827 25.8619 21.1011C25.9472 20.2701 26.3185 19.4939 26.9129 18.9033C27.5074 18.3127 28.2887 17.9439 29.1251 17.8591C30.2477 17.7141 31.3177 17.2988 32.2421 16.6494C32.7555 18.5824 32.8162 20.6064 32.4199 22.5663C32.0236 24.5263 31.1805 26.37 29.9556 27.9561C28.7307 29.5419 27.1564 30.8282 25.3534 31.7159C23.5505 32.6035 21.5669 33.0691 19.5547 33.0769V33.1374Z" fill="#728095"/>
</svg>
