<svg width="151" height="40" viewBox="0 0 151 40" fill="none" xmlns="http://www.w3.org/2000/svg">
<path d="M28.3155 0.90918C25.9122 0.90918 23.5324 1.39128 21.312 2.32778C19.0916 3.26439 17.0742 4.63709 15.3747 6.36761C13.6753 8.09824 12.3274 10.1526 11.4076 12.4137C10.4879 14.6747 10.0145 17.0982 10.0145 19.5455C10.0145 21.9929 10.4879 24.4163 11.4076 26.6774C12.3274 28.9385 13.6753 30.9928 15.3747 32.7235C17.0742 34.454 19.6898 35.4271 21.9102 36.3637C24.1305 37.3002 25.9122 38.1819 28.3155 38.1819V29.7308C27.1138 29.7308 25.7655 29.1048 24.6553 28.6365C23.5451 28.1682 22.6948 26.9998 21.8451 26.1345C20.9954 25.2693 20.3214 24.242 19.8616 23.1115C19.4017 21.9809 19.165 21.2238 19.165 20.0001C19.165 18.7764 19.4017 17.1101 19.8616 15.9796C20.3214 14.8491 20.9954 13.8218 21.8451 12.9566C22.6948 12.0913 23.7036 11.405 24.8137 10.9367C25.9239 10.4684 27.1138 10.2274 28.3155 10.2274V0.90918Z" fill="#0F52FF"/>
<path d="M28.773 25.4547C32.058 25.4547 34.7208 22.8091 34.7208 19.5456C34.7208 16.282 32.058 13.6365 28.773 13.6365C25.4881 13.6365 22.8252 16.282 22.8252 19.5456C22.8252 22.8091 25.4881 25.4547 28.773 25.4547Z" fill="#0F52FF"/>
<path d="M10.0145 20C10.0145 22.3876 10.4998 24.752 11.4424 26.9579C12.3852 29.1638 13.7669 31.1681 15.5087 32.8565C17.2507 34.5448 19.3185 35.8841 21.5944 36.7978C23.8703 37.7115 26.3097 38.1818 28.773 38.1818C31.2364 38.1818 33.6758 37.7115 35.9516 36.7978C38.2275 35.8841 40.2954 34.5448 42.0373 32.8565C43.7792 31.1681 45.1609 29.1638 46.1036 26.9579C47.0463 24.752 47.5315 22.3876 47.5315 20H38.1523C38.1523 21.1939 37.9097 22.376 37.4383 23.479C36.967 24.5819 36.2761 25.5841 35.4052 26.4283C34.5342 27.2724 33.5003 27.942 32.3623 28.3989C31.2244 28.8558 30.0048 29.0909 28.773 29.0909C27.5413 29.0909 26.3217 28.8558 25.1837 28.3989C24.0458 27.942 23.0118 27.2724 22.1409 26.4283C21.2699 25.5841 20.5791 24.5819 20.1078 23.479C19.6364 22.376 19.3938 21.1939 19.3938 20H10.0145Z" fill="#5BD0F4"/>
<path d="M34.7208 20.0001C34.7208 18.3124 34.0942 16.6938 32.9788 15.5004C31.8633 14.3069 30.3505 13.6365 28.7731 13.6365C27.1956 13.6365 25.6828 14.3069 24.5673 15.5004C23.4519 16.6938 22.8252 18.3124 22.8252 20.0001H28.7731H34.7208Z" fill="#5BD0F4"/>
<path d="M57.5971 12.7273H54.8519V25.4546H57.5971V12.7273Z" fill="#0F52FF"/>
<path d="M58.5121 20.909C58.5121 23.7195 60.68 25.4544 63.5449 25.4544C66.4097 25.4544 68.5776 23.7195 68.5776 20.909C68.5776 18.0984 66.4097 16.3635 63.5449 16.3635C60.68 16.3635 58.5121 18.0984 58.5121 20.909ZM60.951 20.909C60.951 19.2435 62.035 18.2719 63.5449 18.2719C65.0547 18.2719 66.1387 19.2435 66.1387 20.909C66.1387 22.5745 65.0547 23.546 63.5449 23.546C62.035 23.546 60.951 22.5745 60.951 20.909Z" fill="#0F52FF"/>
<path d="M76.4695 16.6096V17.7874H76.2942C75.7683 17.0315 74.9269 16.3635 73.4193 16.3635C71.3508 16.3635 69.4927 18.1214 69.4927 20.8286C69.4927 23.5358 71.3508 25.2937 73.4193 25.2937C74.9269 25.2937 75.7683 24.6081 76.2591 23.9225H76.4344V24.7663C76.4344 26.4539 75.4528 27.2274 74.0153 27.2274C72.5779 27.2274 71.8417 26.4539 71.5436 25.4519L69.5628 26.3133C70.0186 27.6317 71.3508 29.0908 74.0504 29.0908C76.8201 29.0908 78.6432 27.6317 78.6432 24.819V16.6096H76.4695ZM74.0855 23.3952C72.7181 23.3952 71.7014 22.4107 71.7014 20.8286C71.7014 19.2465 72.7181 18.2621 74.0855 18.2621C75.4528 18.2621 76.4695 19.2465 76.4695 20.8286C76.4695 22.4107 75.4528 23.3952 74.0855 23.3952Z" fill="#0F52FF"/>
<path d="M80.4733 20.909C80.4733 23.7195 82.6413 25.4544 85.5061 25.4544C88.3709 25.4544 90.5388 23.7195 90.5388 20.909C90.5388 18.0984 88.3709 16.3635 85.5061 16.3635C82.6413 16.3635 80.4733 18.0984 80.4733 20.909ZM82.9123 20.909C82.9123 19.2435 83.9962 18.2719 85.5061 18.2719C87.0159 18.2719 88.0999 19.2435 88.0999 20.909C88.0999 22.5745 87.0159 23.546 85.5061 23.546C83.9962 23.546 82.9123 22.5745 82.9123 20.909Z" fill="#0F52FF"/>
<path d="M92.3689 13.4334C92.3689 14.3914 92.9705 15.0488 93.7419 15.0488C94.5125 15.0488 95.114 14.3914 95.114 13.4334C95.114 12.4756 94.5125 11.8181 93.7419 11.8181C92.9705 11.8181 92.3689 12.4756 92.3689 13.4334ZM94.7127 16.1382H92.7703V25.4545H94.7127V16.1382Z" fill="#5BD0F4"/>
<path d="M96.9441 29.0908H99.1532V24.3584H99.328C99.8188 25.0754 100.66 25.7566 102.168 25.7566C104.236 25.7566 106.095 23.964 106.095 21.0601C106.095 18.1561 104.236 16.3635 102.168 16.3635C100.66 16.3635 99.8188 17.0447 99.2934 17.8156H99.1176V16.6145H96.9441V29.0908ZM101.502 23.8206C100.135 23.8206 99.1176 22.8168 99.1176 21.0601C99.1176 19.3033 100.135 18.2995 101.502 18.2995C102.869 18.2995 103.885 19.3033 103.885 21.0601C103.885 22.8168 102.869 23.8206 101.502 23.8206Z" fill="#5BD0F4"/>
<path d="M108.261 19.018C108.261 20.7182 109.788 21.3428 111.725 21.6897L112.21 21.7764C113.365 21.9846 113.887 22.2449 113.887 22.8001C113.887 23.3552 113.365 23.7889 112.285 23.7889C111.204 23.7889 110.329 23.3725 110.086 22.1234L107.925 22.6439C108.242 24.4482 109.862 25.4544 112.285 25.4544C114.632 25.4544 116.16 24.4309 116.16 22.6266C116.16 20.8222 114.595 20.3365 112.508 19.9548L112.024 19.868C111.055 19.6945 110.533 19.4517 110.533 18.8792C110.533 18.3587 111.018 18.029 111.912 18.029C112.807 18.029 113.439 18.376 113.663 19.3129L115.788 18.7057C115.34 17.3178 113.981 16.3635 111.912 16.3635C109.713 16.3635 108.261 17.3178 108.261 19.018Z" fill="#5BD0F4"/>
<path d="M126.226 25.3101V16.3635H123.824V20.9811C123.824 22.6406 122.967 23.6146 121.498 23.6146C120.202 23.6146 119.478 22.9473 119.478 21.5944V16.3635H117.075V21.7026C117.075 23.9213 118.544 25.4544 120.755 25.4544C122.489 25.4544 123.29 24.7329 123.672 23.9754H123.862V25.3101H126.226Z" fill="#5BD0F4"/>
<path d="M128.056 16.5078V25.4544H130.465V20.1153C130.465 18.8888 131.077 18.2034 132.185 18.2034C133.141 18.2034 133.714 18.7084 133.714 19.6824V25.4544H136.123V20.1153C136.123 18.8888 136.735 18.2034 137.843 18.2034C138.799 18.2034 139.372 18.7084 139.372 19.6824V25.4544H141.782V19.5742C141.782 17.4097 140.366 16.3635 138.608 16.3635C137.06 16.3635 136.353 17.0129 135.894 17.7705H135.702C135.262 16.9227 134.479 16.3635 133.102 16.3635C131.726 16.3635 130.98 16.9407 130.618 17.6262H130.426V16.5078H128.056Z" fill="#5BD0F4"/>
</svg>
