<svg width="151" height="40" viewBox="0 0 151 40" fill="none" xmlns="http://www.w3.org/2000/svg">
<path d="M35.8929 14.6333C36.2947 14.6333 36.4286 14.7774 36.4286 15.1655V23.9473H40.9711C41.3617 23.9473 41.5068 24.0915 41.5068 24.4796V25.2558C41.5068 25.6438 41.3617 25.788 40.9711 25.788H34.9889C34.5983 25.788 34.442 25.6438 34.442 25.2558V15.1655C34.442 14.7774 34.5983 14.6333 34.9889 14.6333H35.8929Z" fill="#728095"/>
<path d="M45.4688 18.503C45.4688 15.9416 47.0983 14.4004 49.9332 14.4004C52.768 14.4004 54.3975 15.9416 54.3975 18.503V21.9182C54.3975 24.4795 52.7569 26.0208 49.9332 26.0208C47.1095 26.0208 45.4688 24.4795 45.4688 21.9182V18.503ZM52.5225 18.503C52.5225 17.0615 51.6185 16.2854 49.989 16.2854C48.3595 16.2854 47.4666 17.0726 47.4666 18.503V21.9403C47.4666 23.3929 48.3595 24.158 49.989 24.158C51.6185 24.158 52.5225 23.3596 52.5225 21.9403V18.503Z" fill="#728095"/>
<path d="M67.6902 19.6783C68.1255 19.6783 68.2259 19.8224 68.2259 20.2105V22.3173C68.2378 22.8134 68.1377 23.3061 67.933 23.7588C67.7282 24.2117 67.4241 24.6132 67.0429 24.9341C66.0961 25.6831 64.9024 26.0546 63.6946 25.9763C60.804 25.9763 59.2303 24.4351 59.2303 21.8737V18.4364C59.2303 15.9083 60.8598 14.356 63.6946 14.356C65.9268 14.356 67.3777 15.2319 67.9916 16.9838C68.0259 17.0497 68.0444 17.1226 68.0454 17.1966C68.0464 17.2708 68.03 17.3442 67.9975 17.4109C67.965 17.4776 67.9172 17.5359 67.8581 17.5812C67.7989 17.6263 67.73 17.6572 67.6567 17.6713L66.7862 17.9707C66.4067 18.1038 66.2505 18.0261 66.1165 17.6381C65.9316 17.1645 65.5931 16.7655 65.1545 16.5045C64.7159 16.2435 64.2022 16.1351 63.6946 16.1966C62.054 16.1966 61.1611 16.9838 61.1611 18.4142V21.9403C61.1611 23.3928 62.0652 24.1579 63.6946 24.1579C65.3241 24.1579 66.3286 23.415 66.3286 22.3283V21.5078H63.9067C63.5049 21.5078 63.3598 21.3526 63.3598 20.9645V20.2105C63.3598 19.8224 63.5049 19.6783 63.9067 19.6783H67.6902Z" fill="#728095"/>
<path d="M72.8353 18.503C72.8353 15.9416 74.4648 14.4004 77.2996 14.4004C80.1345 14.4004 81.764 15.9416 81.764 18.503V21.9182C81.764 24.4795 80.1233 26.0208 77.2996 26.0208C74.476 26.0208 72.8353 24.4795 72.8353 21.9182V18.503ZM79.8778 18.503C79.8778 17.0615 78.9738 16.2854 77.3554 16.2854C75.7371 16.2854 74.8219 17.0726 74.8219 18.503V21.9403C74.8219 23.3929 75.726 24.158 77.3554 24.158C78.9849 24.158 79.8778 23.3596 79.8778 21.9403V18.503Z" fill="#728095"/>
<path d="M87.0206 14.9549C87.0206 14.7109 87.0987 14.6333 87.3442 14.6333H87.8576C88.1032 14.6333 88.159 14.7109 88.159 14.9549V25.4664C88.159 25.7104 88.159 25.788 87.8576 25.788H87.3442C87.0987 25.788 87.0206 25.7104 87.0206 25.4664V14.9549Z" fill="#728095"/>
<path d="M98.3265 14.6333C99.256 14.6333 100.147 15.0001 100.805 15.6531C101.462 16.3059 101.831 17.1916 101.831 18.115C101.831 19.0384 101.462 19.924 100.805 20.5769C100.147 21.2299 99.256 21.5967 98.3265 21.5967H94.9783V25.4664C94.9783 25.7104 94.9225 25.788 94.6881 25.788H94.1635C93.9292 25.788 93.8399 25.7104 93.8399 25.4664V14.9549C93.8399 14.7109 93.9292 14.6333 94.1635 14.6333H98.3265ZM98.2261 20.4989C98.5456 20.4989 98.862 20.4364 99.1572 20.315C99.4523 20.1935 99.7206 20.0154 99.9465 19.791C100.172 19.5665 100.352 19.3 100.474 19.0068C100.596 18.7135 100.659 18.3992 100.659 18.0817C100.659 17.7643 100.596 17.4499 100.474 17.1566C100.352 16.8635 100.172 16.5969 99.9465 16.3725C99.7206 16.1481 99.4523 15.97 99.1572 15.8485C98.862 15.727 98.5456 15.6645 98.2261 15.6645H94.8778V20.4989H98.2261Z" fill="#728095"/>
<path d="M110.548 14.4114C111.409 14.3169 112.279 14.5011 113.027 14.9365C113.774 15.372 114.361 16.0356 114.699 16.8286C114.789 17.006 114.699 17.1501 114.521 17.2388L114.03 17.4606C113.829 17.5382 113.751 17.5271 113.628 17.3165C113.375 16.7279 112.94 16.2345 112.387 15.9076C111.833 15.5807 111.189 15.4372 110.548 15.498C108.661 15.498 107.635 16.2409 107.635 17.5715C107.624 17.9781 107.761 18.375 108.022 18.6888C108.282 19.0026 108.648 19.2123 109.052 19.2791C109.652 19.4736 110.275 19.5927 110.905 19.6339C111.667 19.6742 112.42 19.8275 113.137 20.0885C113.687 20.2614 114.16 20.6168 114.477 21.0954C114.794 21.574 114.936 22.1464 114.878 22.7164C114.878 24.7899 113.36 26.0428 110.57 26.0428C109.655 26.1468 108.731 25.9362 107.954 25.4459C107.176 24.9556 106.59 24.2153 106.295 23.3484C106.276 23.3089 106.265 23.2656 106.264 23.2215C106.263 23.1773 106.272 23.1336 106.29 23.0934C106.308 23.0531 106.335 23.0173 106.369 22.9886C106.403 22.9598 106.442 22.9388 106.485 22.9271L106.976 22.7497C107.015 22.7339 107.056 22.7264 107.098 22.7275C107.14 22.7286 107.181 22.7383 107.219 22.7561C107.257 22.7738 107.29 22.7991 107.318 22.8305C107.345 22.8619 107.366 22.8985 107.378 22.9382C107.628 23.5645 108.072 24.0956 108.646 24.4546C109.219 24.8134 109.894 24.9814 110.57 24.934C112.679 24.934 113.717 24.2022 113.717 22.7164C113.737 22.3259 113.617 21.941 113.377 21.6303C113.138 21.3197 112.796 21.1034 112.412 21.0199C111.834 20.8488 111.239 20.7446 110.637 20.7094L109.432 20.5542C109.054 20.4747 108.682 20.3747 108.316 20.2548C107.954 20.1463 107.616 19.9693 107.322 19.7337C107.026 19.4673 106.793 19.1396 106.638 18.7736C106.484 18.4075 106.413 18.0124 106.429 17.6158C106.507 15.6754 107.97 14.4114 110.548 14.4114Z" fill="#728095"/>
<path d="M120.894 21.9958C120.941 22.78 121.288 23.5166 121.864 24.0551C122.44 24.5937 123.201 24.8935 123.991 24.8935C124.781 24.8935 125.542 24.5937 126.118 24.0551C126.694 23.5166 127.04 22.78 127.088 21.9958V14.9549C127.088 14.7109 127.166 14.6333 127.412 14.6333H127.925C128.171 14.6333 128.249 14.7109 128.249 14.9549V21.9847C128.249 24.5018 126.753 26.0208 123.996 26.0208C121.24 26.0208 119.744 24.5018 119.744 21.9847V14.9549C119.744 14.7109 119.822 14.6333 120.057 14.6333H120.581C120.816 14.6333 120.894 14.7109 120.894 14.9549V21.9958Z" fill="#728095"/>
<path d="M143.651 14.6332C143.896 14.6332 143.974 14.7109 143.974 14.9548V25.4664C143.974 25.7103 143.896 25.7879 143.651 25.7879H143.182C142.948 25.7879 142.869 25.7103 142.869 25.4664V19.0685C142.869 18.1377 142.933 17.2078 143.059 16.2854H142.992C142.644 17.1289 142.237 17.9476 141.776 18.7359L139.376 22.9383C139.347 23.0112 139.296 23.0735 139.23 23.1171C139.164 23.1606 139.087 23.1833 139.008 23.1822H138.695C138.615 23.1826 138.537 23.1597 138.469 23.1165C138.402 23.0731 138.348 23.0112 138.316 22.9383L135.883 18.6915C135.451 17.9146 135.078 17.1066 134.767 16.2743H134.7C134.814 17.2051 134.874 18.1419 134.878 19.0796V25.4664C134.878 25.7103 134.8 25.7879 134.555 25.7879H134.119C133.874 25.7879 133.796 25.7103 133.796 25.4664V14.9548C133.796 14.7109 133.874 14.6332 134.119 14.6332H134.521C134.613 14.6248 134.705 14.6447 134.784 14.6903C134.865 14.736 134.928 14.8052 134.968 14.8883L138.874 21.7851L142.758 14.9548C142.881 14.7219 142.948 14.6887 143.193 14.6887L143.651 14.6332Z" fill="#728095"/>
<path d="M16.0378 24.1028V32.1195C16.0378 32.4269 15.9149 32.7216 15.6962 32.9388C15.4775 33.1561 15.1809 33.2782 14.8715 33.2782C14.5623 33.2782 14.2656 33.1561 14.0468 32.9388C13.8281 32.7216 13.7052 32.4269 13.7052 32.1195V24.1139C14.03 24.3495 14.4193 24.481 14.8213 24.4909C15.2595 24.5033 15.6888 24.3663 16.0378 24.1028ZM25.971 21.7854C25.675 21.7854 25.391 21.9022 25.1818 22.1101C24.9725 22.318 24.8549 22.6001 24.8549 22.8942V24.2913C24.8549 24.5986 24.9778 24.8934 25.1965 25.1106C25.4151 25.3279 25.7118 25.45 26.0212 25.45C26.3306 25.45 26.6272 25.3279 26.8459 25.1106C27.0646 24.8934 27.1875 24.5986 27.1875 24.2913V22.9496C27.1962 22.7906 27.1703 22.6316 27.1116 22.4835C27.0529 22.3353 26.9628 22.2014 26.8473 22.0909C26.7319 21.9805 26.5938 21.896 26.4427 21.8432C26.2915 21.7906 26.1306 21.7708 25.971 21.7854ZM11.1717 27.1409C10.7701 27.129 10.3813 26.9977 10.0556 26.7639V34.8028C10.0556 35.1117 10.1791 35.4078 10.3989 35.6261C10.6186 35.8445 10.9167 35.9671 11.2275 35.9671C11.5383 35.9671 11.8364 35.8445 12.0562 35.6261C12.2759 35.4078 12.3994 35.1117 12.3994 34.8028V26.8194C12.0349 27.0534 11.6049 27.1661 11.1717 27.1409ZM22.3325 19.3792C22.1813 19.3717 22.0302 19.3949 21.8882 19.4472C21.7464 19.4995 21.6167 19.58 21.507 19.6837C21.3974 19.7875 21.3102 19.9122 21.2506 20.0505C21.1911 20.1888 21.1604 20.3377 21.1606 20.488V26.6641C21.1606 26.9729 21.2841 27.2691 21.5038 27.4874C21.7237 27.7058 22.0217 27.8284 22.3325 27.8284C22.6434 27.8284 22.9415 27.7058 23.1612 27.4874C23.381 27.2691 23.5044 26.9729 23.5044 26.6641V20.5657C23.5133 20.4057 23.4872 20.2457 23.4279 20.0966C23.3685 19.9476 23.2774 19.8131 23.1607 19.7024C23.0439 19.5918 22.9045 19.5075 22.752 19.4556C22.5994 19.4036 22.4372 19.3851 22.2767 19.4014L22.3325 19.3792ZM18.6271 21.7521C18.2067 21.7492 17.7975 21.6176 17.4552 21.3751V29.4362C17.4552 29.745 17.5787 30.0412 17.7984 30.2595C18.0183 30.4778 18.3163 30.6004 18.6271 30.6004C18.938 30.6004 19.236 30.4778 19.4558 30.2595C19.6756 30.0412 19.799 29.745 19.799 29.4362V21.3862C19.445 21.6482 19.0127 21.7848 18.5713 21.7743L18.6271 21.7521ZM8.6382 27.9282V5.40815C8.63526 5.13364 8.52343 4.87139 8.327 4.67831C8.13057 4.48523 7.8654 4.37694 7.58908 4.37695H7.34354C7.06722 4.37694 6.80205 4.48523 6.60562 4.67831C6.40919 4.87139 6.29736 5.13364 6.29442 5.40815V27.9282C6.29442 28.2046 6.40496 28.4697 6.6017 28.6652C6.79845 28.8607 7.0653 28.9705 7.34354 28.9705H7.58908C7.86733 28.9705 8.13417 28.8607 8.33092 28.6652C8.52767 28.4697 8.6382 28.2046 8.6382 27.9282ZM11.2945 26.2871H11.0489C10.7707 26.2871 10.5038 26.1774 10.3071 25.9819C10.1104 25.7864 9.99982 25.5213 9.99982 25.2449V8.09148C10.0028 7.81699 10.1146 7.55471 10.311 7.36164C10.5074 7.16856 10.7726 7.06028 11.0489 7.06029H11.2945C11.5708 7.06028 11.836 7.16856 12.0324 7.36164C12.2288 7.55471 12.3407 7.81699 12.3436 8.09148V25.267C12.3436 25.5435 12.2331 25.8086 12.0363 26.0041C11.8396 26.1995 11.5727 26.3093 11.2945 26.3093V26.2871ZM14.9887 23.6482H14.732C14.4568 23.6482 14.1927 23.5395 13.9981 23.3461C13.8034 23.1527 13.694 22.8905 13.694 22.617V10.7526C13.6926 10.6163 13.7184 10.481 13.7698 10.3546C13.8213 10.2282 13.8975 10.1132 13.9941 10.0163C14.0906 9.91937 14.2056 9.84242 14.3322 9.7899C14.4589 9.73739 14.5947 9.71034 14.732 9.71036H14.9887C15.265 9.71328 15.529 9.82437 15.7233 10.0195C15.9177 10.2147 16.0267 10.4781 16.0267 10.7526V22.617C16.0267 22.8905 15.9173 23.1527 15.7226 23.3461C15.528 23.5395 15.264 23.6482 14.9887 23.6482ZM18.6829 20.9316H18.4486C18.1722 20.9316 17.907 20.8233 17.7106 20.6302C17.5142 20.4371 17.4023 20.1749 17.3994 19.9004V13.5136C17.3903 13.3712 17.4106 13.2285 17.4593 13.0942C17.5078 12.9601 17.5837 12.8371 17.682 12.7332C17.7804 12.6292 17.8991 12.5465 18.031 12.4899C18.1628 12.4335 18.3049 12.4044 18.4486 12.4048H18.6941C18.9723 12.4048 19.2392 12.5145 19.436 12.71C19.6327 12.9055 19.7432 13.1706 19.7432 13.4471V19.8782C19.7447 20.016 19.7187 20.1527 19.6665 20.2805C19.6145 20.4082 19.5375 20.5244 19.4399 20.6224C19.3423 20.7203 19.2262 20.7981 19.0981 20.8512C18.9701 20.9043 18.8328 20.9316 18.6941 20.9316H18.6829ZM22.3883 18.5476H22.1428C21.8646 18.5476 21.5977 18.4378 21.4009 18.2424C21.2042 18.0469 21.0937 17.7818 21.0937 17.5053V15.8532C21.0966 15.5787 21.2084 15.3164 21.4048 15.1234C21.6013 14.9302 21.8665 14.822 22.1428 14.822H22.3883C22.6647 14.822 22.9299 14.9302 23.1263 15.1234C23.3227 15.3164 23.4345 15.5787 23.4374 15.8532V17.5053C23.4374 17.7799 23.3285 18.0433 23.1341 18.2385C22.9398 18.4336 22.6758 18.5447 22.3995 18.5476H22.3883Z" fill="#728095"/>
</svg>
