<svg width="151" height="40" viewBox="0 0 151 40" fill="none" xmlns="http://www.w3.org/2000/svg">
<path d="M17.3026 8.37722V3.60449H2.29583V36.3959H17.3026V31.6232C14.2285 31.6232 11.2802 30.3986 9.1065 28.2189C6.93276 26.0391 5.71156 23.0828 5.71156 20.0002C5.71156 16.9176 6.93276 13.9612 9.1065 11.7815C11.2802 9.60179 14.2285 8.37722 17.3026 8.37722Z" fill="#728095"/>
<path d="M17.3026 8.37695V31.623C20.3768 31.623 23.325 30.3983 25.4988 28.2186C27.6725 26.0389 28.8937 23.0826 28.8937 20C28.8937 16.9173 27.6725 13.9609 25.4988 11.7813C23.325 9.60152 20.3768 8.37695 17.3026 8.37695Z" fill="#728095"/>
<path d="M37.3154 11.2969H40.6752V27.5242H37.3154V11.2969Z" fill="#728095"/>
<path d="M42.5566 21.9654C42.5566 20.798 42.9023 19.6568 43.5499 18.6865C44.1974 17.7162 45.1176 16.9606 46.194 16.5153C47.2703 16.0701 48.4542 15.9554 49.5956 16.1856C50.737 16.4158 51.7846 16.9807 52.6055 17.8085C53.4264 18.6365 53.9837 19.6901 54.2068 20.836C54.4298 21.9819 54.3086 23.1684 53.8584 24.2451C53.4082 25.3217 52.6495 26.2402 51.6782 26.8839C50.7069 27.5277 49.5668 27.8678 48.4025 27.8611C47.6304 27.8672 46.8647 27.7186 46.1505 27.424C45.4364 27.1294 44.7879 26.6948 44.2434 26.1458C43.6989 25.5966 43.2693 24.9439 42.9796 24.2261C42.69 23.5083 42.5462 22.7397 42.5566 21.9654ZM50.9783 21.9654C50.9651 21.4621 50.8042 20.9738 50.5157 20.5618C50.2272 20.1496 49.8241 19.832 49.3564 19.6485C48.8888 19.465 48.3777 19.4237 47.8869 19.5301C47.3961 19.6363 46.9474 19.8853 46.597 20.246C46.2466 20.6066 46.01 21.0628 45.9168 21.5576C45.8236 22.0523 45.8779 22.5636 46.073 23.0276C46.2681 23.4915 46.5952 23.8875 47.0136 24.1659C47.4319 24.4444 47.9228 24.593 48.4249 24.5932C48.7669 24.6 49.1064 24.5358 49.4224 24.4049C49.7385 24.2741 50.0242 24.0792 50.2617 23.8326C50.4992 23.586 50.6835 23.2928 50.803 22.9716C50.9225 22.6503 50.9745 22.3078 50.9559 21.9654H50.9783Z" fill="#728095"/>
<path d="M67.5418 16.4063V26.9736C67.5418 30.702 64.63 32.2854 61.6847 32.2854C60.6457 32.3709 59.6036 32.1639 58.6758 31.6877C57.7478 31.2116 56.9708 30.4851 56.4323 29.5902L59.2656 27.9506C59.4952 28.4149 59.8604 28.7978 60.3126 29.0486C60.7649 29.2994 61.2825 29.406 61.7966 29.3544C62.1242 29.3948 62.4566 29.3623 62.7701 29.2589C63.0836 29.1555 63.3705 28.984 63.6101 28.7565C63.8499 28.529 64.0365 28.2513 64.1566 27.943C64.2768 27.6349 64.3275 27.3038 64.3052 26.9736V25.9517C63.9143 26.4271 63.4182 26.8044 62.8564 27.0539C62.2946 27.3035 61.6825 27.4182 61.0687 27.3892C59.5836 27.3892 58.1594 26.7976 57.1093 25.7445C56.0591 24.6916 55.4691 23.2634 55.4691 21.7742C55.4691 20.285 56.0591 18.8569 57.1093 17.8038C58.1594 16.7508 59.5836 16.1592 61.0687 16.1592C61.6825 16.1301 62.2946 16.2449 62.8564 16.4944C63.4182 16.7439 63.9143 17.1213 64.3052 17.5966V16.4736L67.5418 16.4063ZM64.3052 21.7405C64.3275 21.2032 64.1891 20.6715 63.9077 20.2138C63.6262 19.756 63.2148 19.3932 62.7259 19.1719C62.2372 18.9505 61.6937 18.8809 61.1651 18.9719C60.6366 19.0628 60.1472 19.3102 59.7601 19.6823C59.3729 20.0543 59.1056 20.5341 58.9925 21.0597C58.8794 21.5854 58.9256 22.1329 59.1253 22.6319C59.3251 23.131 59.6691 23.5587 60.1132 23.8601C60.5573 24.1616 61.0812 24.3229 61.6175 24.3234C61.9674 24.3486 62.3187 24.3 62.6487 24.1808C62.9787 24.0614 63.2802 23.874 63.5334 23.6305C63.7867 23.3871 63.9863 23.0931 64.1192 22.7676C64.2522 22.442 64.3155 22.0921 64.3052 21.7405Z" fill="#728095"/>
<path d="M69.4344 21.9651C69.4344 20.7985 69.7796 19.6582 70.4261 18.6884C71.0726 17.7186 71.9915 16.9629 73.0665 16.5171C74.1415 16.0712 75.3243 15.955 76.4651 16.1835C77.606 16.4119 78.6535 16.9745 79.4754 17.8001C80.2972 18.6259 80.8563 19.6774 81.0818 20.8218C81.3075 21.9662 81.1895 23.152 80.7427 24.229C80.296 25.3062 79.5406 26.2262 78.5723 26.8727C77.6039 27.5192 76.4661 27.863 75.3028 27.8608C74.5291 27.8683 73.7616 27.7209 73.0456 27.4271C72.3295 27.1333 71.6791 26.6992 71.1325 26.15C70.5859 25.6009 70.1542 24.9479 69.8626 24.2293C69.571 23.5107 69.4255 22.7408 69.4344 21.9651ZM77.8561 21.9651C77.8429 21.4613 77.6817 20.9726 77.3927 20.5602C77.1038 20.148 76.6998 19.8303 76.2316 19.6471C75.7634 19.4639 75.2517 19.4234 74.7606 19.5307C74.2695 19.6378 73.8209 19.888 73.4709 20.2497C73.1209 20.6114 72.8852 21.0687 72.7934 21.5642C72.7014 22.0596 72.7573 22.5713 72.9541 23.035C73.1508 23.4988 73.4798 23.8939 73.8996 24.1711C74.3194 24.4481 74.8113 24.5949 75.314 24.5929C75.6559 24.5996 75.9954 24.5355 76.3115 24.4046C76.6275 24.2737 76.9132 24.0789 77.1507 23.8323C77.3883 23.5857 77.5725 23.2925 77.692 22.9713C77.8115 22.65 77.8635 22.3075 77.845 21.9651H77.8561Z" fill="#728095"/>
<path d="M82.7278 13.4306C82.7278 13.0353 82.8447 12.6487 83.0638 12.32C83.2828 11.9913 83.5942 11.7351 83.9584 11.5838C84.3227 11.4325 84.7235 11.3929 85.1102 11.47C85.4968 11.5472 85.852 11.7376 86.1309 12.0171C86.4096 12.2967 86.5994 12.6529 86.6764 13.0406C86.7533 13.4283 86.7138 13.8302 86.5629 14.1956C86.4121 14.5608 86.1565 14.8729 85.8287 15.0926C85.5009 15.3123 85.1156 15.4295 84.7213 15.4295C84.1943 15.4237 83.6907 15.2112 83.3181 14.8376C82.9455 14.464 82.7336 13.9589 82.7278 13.4306ZM83.0526 16.4065H86.4123V27.5242H83.0526V16.4065Z" fill="#728095"/>
<path d="M100.792 21.965C100.83 22.7044 100.721 23.444 100.473 24.1412C100.224 24.8383 99.8405 25.4793 99.3441 26.0273C98.8475 26.5753 98.2479 27.0193 97.5796 27.334C96.9113 27.6486 96.1875 27.8276 95.4499 27.8608C94.824 27.9025 94.1968 27.802 93.6151 27.5668C93.0333 27.3314 92.5121 26.9674 92.0902 26.5019V31.9934H88.7305V16.4062H92.0902V17.4506C92.5126 16.9865 93.0343 16.6242 93.6161 16.3908C94.1979 16.1574 94.8248 16.059 95.4499 16.103C96.1846 16.1361 96.9055 16.3141 97.5715 16.6267C98.2375 16.9392 98.8356 17.3803 99.3317 17.9246C99.8278 18.4689 100.212 19.1059 100.463 19.7992C100.713 20.4925 100.825 21.2284 100.792 21.965ZM97.4322 21.965C97.419 21.4434 97.2524 20.9374 96.9536 20.5103C96.6548 20.0832 96.2369 19.754 95.7523 19.5641C95.2677 19.3741 94.738 19.3318 94.2295 19.4425C93.721 19.5531 93.2565 19.8118 92.894 20.1861C92.5315 20.5604 92.2872 21.0336 92.1919 21.5466C92.0965 22.0595 92.1542 22.5892 92.3578 23.0694C92.5614 23.5495 92.9017 23.9587 93.3362 24.2457C93.7707 24.5328 94.2801 24.6847 94.8004 24.6827C95.1567 24.6978 95.5123 24.6373 95.8437 24.505C96.1752 24.3727 96.475 24.1717 96.7235 23.9151C96.972 23.6585 97.1635 23.3521 97.2857 23.0161C97.4079 22.6799 97.4577 22.3218 97.4322 21.965Z" fill="#728095"/>
<path d="M111.017 24.1886C111.017 26.749 108.777 27.8383 106.403 27.8383C105.434 27.9257 104.462 27.7199 103.612 27.2474C102.761 26.775 102.072 26.0576 101.632 25.1881L104.521 23.5485C104.636 23.9492 104.884 24.2983 105.224 24.5375C105.565 24.7767 105.977 24.8914 106.391 24.8624C107.187 24.8624 107.59 24.6153 107.59 24.1661C107.59 22.9421 102.136 23.5934 102.136 19.7415C102.136 17.3159 104.174 16.103 106.481 16.103C107.358 16.0636 108.229 16.2632 109.002 16.6804C109.775 17.0976 110.421 17.7169 110.871 18.4726L107.982 19.9998C107.854 19.7101 107.646 19.4637 107.381 19.2903C107.117 19.1169 106.808 19.0241 106.492 19.0228C105.91 19.0228 105.563 19.2474 105.563 19.6405C105.563 20.9207 111.017 20.0784 111.017 24.1886Z" fill="#728095"/>
<path d="M123.19 16.4062V27.5239H119.83V26.4795C119.449 26.9418 118.964 27.3076 118.416 27.5476C117.867 27.7876 117.27 27.8948 116.672 27.8608C114.432 27.8608 112.517 26.2549 112.517 23.2565V16.4062H115.877V22.7512C115.85 23.0164 115.882 23.2843 115.969 23.5363C116.056 23.7881 116.196 24.0181 116.38 24.2104C116.565 24.4025 116.789 24.5523 117.036 24.6495C117.284 24.7465 117.549 24.7885 117.815 24.7726C119.024 24.7726 119.875 24.0538 119.875 22.5266V16.4062H123.19Z" fill="#728095"/>
<path d="M142.229 20.6963V27.5241H138.869V20.9883C138.869 19.8653 138.343 19.169 137.279 19.169C136.215 19.169 135.543 19.9439 135.543 21.2578V27.5241H132.183V20.9883C132.183 19.8653 131.657 19.169 130.593 19.169C129.529 19.169 128.857 19.9439 128.857 21.2578V27.5241H125.497V16.4064H128.857V17.4284C129.205 16.9769 129.659 16.6194 130.18 16.388C130.699 16.1567 131.269 16.0588 131.836 16.1032C132.404 16.0735 132.97 16.1925 133.479 16.4484C133.987 16.7044 134.421 17.0885 134.736 17.5631C135.106 17.0672 135.594 16.6733 136.157 16.418C136.718 16.1626 137.336 16.0544 137.951 16.1032C140.571 16.1032 142.229 17.9225 142.229 20.6963Z" fill="#728095"/>
<path d="M145.051 16.3391C146.412 16.3391 147.515 15.233 147.515 13.8685C147.515 12.5041 146.412 11.3979 145.051 11.3979C143.69 11.3979 142.587 12.5041 142.587 13.8685C142.587 15.233 143.69 16.3391 145.051 16.3391Z" fill="#728095"/>
</svg>
